<svg width="43" height="42" viewBox="0 0 43 42" fill="none" xmlns="http://www.w3.org/2000/svg">
<mask id="path-1-inside-1_2100_15232" fill="white">
<path fill-rule="evenodd" clip-rule="evenodd" d="M20.167 0C20.2851 2.20488 21.2599 6.46046 24.4243 7.9951C24.1732 10.2146 24.3991 15.0054 27.3115 16.4128C27.9392 16.9992 30.2741 17.9961 34.5925 17.2924C35.011 18.1301 37.053 19.7302 41.8735 19.4286H42.4437C42.481 19.9406 42.5 20.4577 42.5 20.9792C42.5 32.5887 33.098 42.0001 21.5 42.0001C9.90202 42.0001 0.5 32.5887 0.5 20.9792C0.5 9.81788 9.19011 0.688254 20.167 0Z"/>
</mask>
<path d="M24.4243 7.9951L26.4116 8.21995L26.5708 6.81329L25.297 6.19556L24.4243 7.9951ZM20.167 0L22.1642 -0.106975L22.0562 -2.12238L20.0419 -1.99608L20.167 0ZM27.3115 16.4128L28.6769 14.9513L28.455 14.7441L28.1817 14.612L27.3115 16.4128ZM34.5925 17.2924L36.3817 16.3987L35.7239 15.0816L34.2709 15.3184L34.5925 17.2924ZM41.8735 19.4286V17.4286H41.811L41.7487 17.4325L41.8735 19.4286ZM42.4437 19.4286L44.4384 19.2833L44.3034 17.4286H42.4437V19.4286ZM25.297 6.19556C24.3096 5.71666 23.5417 4.74916 22.9926 3.46337C22.4477 2.18754 22.2133 0.809976 22.1642 -0.106975L18.1699 0.106975C18.2389 1.3949 18.5509 3.24757 19.314 5.03441C20.0729 6.8113 21.3747 8.7389 23.5516 9.79465L25.297 6.19556ZM28.1817 14.612C27.5399 14.3018 26.9677 13.4898 26.6282 12.0497C26.3032 10.6706 26.3057 9.15616 26.4116 8.21995L22.437 7.77026C22.2918 9.05352 22.2817 11.0442 22.7349 12.9673C23.1738 14.8292 24.1707 17.1163 26.4413 18.2135L28.1817 14.612ZM34.2709 15.3184C32.3144 15.6372 30.8918 15.557 29.951 15.3734C28.9453 15.1771 28.6121 14.8908 28.6769 14.9513L25.9461 17.8742C26.6385 18.5211 27.7867 19.0265 29.1849 19.2993C30.6482 19.5849 32.5522 19.6512 34.9142 19.2663L34.2709 15.3184ZM41.7487 17.4325C39.5706 17.5688 38.1619 17.2662 37.3262 16.9313C36.4295 16.5719 36.2967 16.2285 36.3817 16.3987L32.8033 18.1861C33.3068 19.194 34.4042 20.0695 35.8383 20.6442C37.3333 21.2434 39.3559 21.59 41.9984 21.4247L41.7487 17.4325ZM42.4437 17.4286H41.8735V21.4286H42.4437V17.4286ZM40.449 19.5739C40.4828 20.0376 40.5 20.5062 40.5 20.9792H44.5C44.5 20.4092 44.4793 19.8436 44.4384 19.2833L40.449 19.5739ZM40.5 20.9792C40.5 31.486 31.9915 40.0001 21.5 40.0001V44.0001C34.2044 44.0001 44.5 33.6914 44.5 20.9792H40.5ZM21.5 40.0001C11.0085 40.0001 2.5 31.486 2.5 20.9792H-1.5C-1.5 33.6914 8.79558 44.0001 21.5 44.0001V40.0001ZM2.5 20.9792C2.5 10.8788 10.3642 2.61857 20.2922 1.99608L20.0419 -1.99608C8.01601 -1.24206 -1.5 8.75695 -1.5 20.9792H2.5Z" fill="#FFE500" mask="url(#path-1-inside-1_2100_15232)"/>
<ellipse cx="30.0068" cy="2.93468" rx="2.12398" ry="2.12609" fill="#FFE500"/>
<ellipse cx="15.4537" cy="11.8612" rx="1.2467" ry="1.24794" fill="#FFE500"/>
<ellipse cx="9.72063" cy="20.9649" rx="2.1386" ry="2.14073" fill="#FFE500"/>
<ellipse cx="19.1234" cy="23.0042" rx="1.91246" ry="1.91436" fill="#FFE500"/>
<ellipse cx="17.2103" cy="31.8992" rx="1.41339" ry="1.41479" fill="#FFE500"/>
<ellipse cx="29.1598" cy="27.2246" rx="2.30431" ry="2.3066" fill="#FFE500"/>
<ellipse cx="33.5281" cy="10.9478" rx="1.68827" ry="1.68994" fill="#FFE500"/>
<ellipse cx="40.5115" cy="14.2705" rx="1.15605" ry="1.1572" fill="#FFE500"/>
</svg>
