<svg width="20" height="21" viewBox="0 0 20 21" fill="none" xmlns="http://www.w3.org/2000/svg">
<path fill-rule="evenodd" clip-rule="evenodd" d="M7.43587 14.4552H11.9243C12.2626 14.4552 12.5431 14.1719 12.5431 13.8302C12.5431 13.4885 12.2626 13.2135 11.9243 13.2135H7.43587C7.09759 13.2135 6.81706 13.4885 6.81706 13.8302C6.81706 14.1719 7.09759 14.4552 7.43587 14.4552ZM10.2246 9.04688H7.43587C7.09759 9.04688 6.81706 9.33021 6.81706 9.67188C6.81706 10.0135 7.09759 10.2885 7.43587 10.2885H10.2246C10.5629 10.2885 10.8435 10.0135 10.8435 9.67188C10.8435 9.33021 10.5629 9.04688 10.2246 9.04688ZM16.1125 8.31952C16.3064 8.31728 16.5176 8.31484 16.7094 8.31484C16.9157 8.31484 17.0807 8.48151 17.0807 8.68984V15.3898C17.0807 17.4565 15.4223 19.1315 13.3761 19.1315H6.80845C4.66324 19.1315 2.91406 17.3732 2.91406 15.2065V6.22318C2.91406 4.15651 4.58073 2.46484 6.63518 2.46484H11.0411C11.2556 2.46484 11.4207 2.63984 11.4207 2.84818V5.53151C11.4207 7.05651 12.6665 8.30651 14.1764 8.31484C14.5291 8.31484 14.84 8.31748 15.1121 8.31979C15.3238 8.32158 15.512 8.32318 15.6781 8.32318C15.7955 8.32318 15.9478 8.32142 16.1125 8.31952ZM16.3426 7.1055C15.6644 7.108 14.8649 7.1055 14.2898 7.09967C13.3773 7.09967 12.6257 6.3405 12.6257 5.41884V3.22217C12.6257 2.863 13.0572 2.68467 13.3039 2.94384C13.7505 3.41289 14.3643 4.05769 14.9753 4.69949C15.5844 5.33934 16.1907 5.97621 16.6257 6.433C16.8666 6.6855 16.69 7.10467 16.3426 7.1055Z" fill="white"/>
</svg>
