<svg width="8" height="12" viewBox="0 0 8 12" fill="none" xmlns="http://www.w3.org/2000/svg">
<path d="M1.06348 0.850586C1.28618 0.716845 1.57396 0.716418 1.79688 0.849609L1.90137 0.926758L7.04004 5.53906V5.54004L7.12793 5.63574C7.2052 5.73983 7.25 5.866 7.25 6C7.25 6.13375 7.20535 6.26001 7.12793 6.36426L7.04004 6.46094L1.90137 11.0732C1.76726 11.1934 1.59635 11.25 1.43066 11.25C1.3059 11.25 1.17824 11.2176 1.06543 11.1504L0.958008 11.0713C0.680021 10.8201 0.681379 10.4025 0.959961 10.1523L5.58398 6L0.959961 1.84766C0.681457 1.59757 0.680162 1.17984 0.958008 0.928711V0.927734L1.06348 0.850586Z" fill="#FFE500" stroke="#FFE500" stroke-width="0.5"/>
</svg>
