<svg width="18" height="18" viewBox="0 0 18 18" fill="none" xmlns="http://www.w3.org/2000/svg">
<path d="M8.5 9.63536C8.5 9.67168 8.51969 9.70514 8.55144 9.72278L12.0075 11.6428C12.2489 11.7769 12.5533 11.69 12.6874 11.4486C12.8215 11.2072 12.7346 10.9028 12.4932 10.7687L9.5 9.1058V5.4C9.5 5.12386 9.27614 4.9 9 4.9C8.72386 4.9 8.5 5.12386 8.5 5.4V9.63536ZM9 17.1C13.4735 17.1 17.1 13.4735 17.1 9C17.1 4.52649 13.4735 0.9 9 0.9C4.52649 0.9 0.9 4.52649 0.9 9C0.9 13.4735 4.52649 17.1 9 17.1ZM16.1 9C16.1 12.9212 12.9212 16.1 9 16.1C5.07878 16.1 1.9 12.9212 1.9 9C1.9 5.07878 5.07878 1.9 9 1.9C12.9212 1.9 16.1 5.07878 16.1 9Z" fill="white" stroke="white" stroke-width="0.2" stroke-linejoin="round"/>
</svg>
