<svg width="76" height="76" viewBox="0 0 76 76" fill="none" xmlns="http://www.w3.org/2000/svg">
<path d="M41.7437 47.9242C42.7755 47.9242 43.8072 47.9242 44.8529 47.9242C45.0899 47.9242 45.3269 47.9521 45.5639 47.9939C45.8985 48.0497 46.0519 48.3983 45.8567 48.6771C45.7312 48.8584 45.5918 49.0257 45.4524 49.2069C45.4245 49.2488 45.3687 49.2627 45.313 49.2627C45.1317 49.2627 44.9505 49.2488 44.7692 49.2348C44.5322 49.2209 44.2952 49.2069 44.0581 49.2069C40.3913 49.2069 36.7244 49.2069 33.0576 49.2069C32.6114 49.2069 32.1932 49.0675 31.8167 48.8165C31.5518 48.6492 31.5797 48.3564 31.8725 48.2449C32.0956 48.1613 32.3187 48.0915 32.5557 48.0358C32.7509 47.98 32.9461 47.9521 33.1413 47.9242C33.3922 47.8964 33.6432 47.8685 33.8941 47.8545C34.173 47.8266 34.4518 47.8266 34.7307 47.7709C35.1071 47.7012 35.4417 47.5478 35.7764 47.3665C36.2643 47.0877 36.6826 46.7391 37.0451 46.293C37.3519 45.9026 37.6168 45.4983 37.798 45.0382C37.9096 44.7593 38.0072 44.4944 38.1047 44.2016C38.1605 44.0204 38.2023 43.8252 38.2163 43.63C38.2442 43.3511 38.1047 43.1838 37.8259 43.142C37.6725 43.1141 37.5331 43.1141 37.3797 43.0862C37.0312 43.0444 36.6826 43.0026 36.3341 42.9607C36.0831 42.9329 35.8321 42.905 35.5812 42.8631C35.2884 42.8213 34.9956 42.7655 34.7028 42.7098C34.3821 42.6401 34.0754 42.5704 33.7547 42.5006C33.5038 42.4449 33.2667 42.3612 33.0158 42.2915C32.723 42.1939 32.4302 42.1103 32.1374 41.9987C31.7331 41.8453 31.3287 41.692 30.9384 41.5107C30.534 41.3295 30.1297 41.1482 29.7393 40.9391C29.2932 40.716 28.8609 40.4651 28.4427 40.2141C27.9826 39.9213 27.5225 39.6285 27.0903 39.2939C26.6023 38.9174 26.1561 38.5131 25.71 38.1088C25.459 37.8857 25.208 37.6487 24.971 37.3977C24.5249 36.9097 24.0787 36.4218 23.6604 35.9059C23.3258 35.4876 23.0051 35.0554 22.6984 34.6232C22.4614 34.2886 22.2522 33.94 22.057 33.5775C21.7921 33.1174 21.5412 32.6434 21.3181 32.1554C21.109 31.6953 20.9417 31.2352 20.7604 30.7611C20.6349 30.4126 20.5094 30.0501 20.3979 29.7015C20.3003 29.4087 20.2167 29.1159 20.1469 28.8232C20.0633 28.5025 19.9796 28.1818 19.9099 27.8611C19.8681 27.6659 19.8402 27.4568 19.8123 27.2616C19.7705 26.9967 19.7287 26.7457 19.7008 26.4808C19.6729 26.188 19.659 25.8953 19.6311 25.6025C19.6171 25.5049 19.6032 25.4073 19.5753 25.3236C19.4219 24.9053 19.4359 24.4731 19.4359 24.0409C19.4359 23.8875 19.4638 23.7202 19.4638 23.5669C19.4777 23.4135 19.5056 23.2741 19.5335 23.1207C19.5614 22.9534 19.5753 22.8279 19.6171 22.6606C19.6171 22.6327 19.6311 22.6048 19.6311 22.5909C19.659 22.2005 19.6868 21.7962 19.7287 21.4058C19.7426 21.2385 19.7844 21.0851 19.8263 20.9178C19.8541 20.7505 19.882 20.5971 19.9099 20.4298C19.9517 20.1928 20.0075 19.9558 20.0633 19.7327C20.1191 19.5236 20.1748 19.3144 20.2306 19.1053C20.3421 18.7289 20.4537 18.3524 20.5792 17.976C20.6907 17.6414 20.8162 17.2928 20.9417 16.9582C21.1229 16.526 21.3181 16.0937 21.5133 15.6755C21.82 15.0341 22.1965 14.4207 22.6008 13.8351C22.9075 13.3889 23.2422 12.9428 23.5768 12.5106C23.8138 12.2038 24.0787 11.911 24.3297 11.6182C25.1523 10.6423 26.0725 9.7639 26.9927 8.87159C27.4667 8.41149 27.9407 7.96533 28.4148 7.51917C28.5821 7.35186 28.7912 7.25427 29.0143 7.17061C29.0422 7.15667 29.0701 7.15667 29.084 7.17061C29.3489 7.26821 29.4744 7.4634 29.4883 7.74225C29.5162 8.04898 29.3768 8.27206 29.1816 8.4812C28.7076 8.96918 28.2335 9.45717 27.7595 9.94515C27.4806 10.224 27.1878 10.475 26.909 10.7538C26.5883 11.0745 26.672 11.3812 26.9648 11.6601C27.4109 12.0783 27.8431 12.4966 28.2754 12.9288C28.4008 13.0543 28.5263 13.1937 28.6518 13.3192C28.8191 13.5005 29.098 13.5423 29.321 13.4168C29.5023 13.3192 29.6696 13.1937 29.8508 13.0822C30.3528 12.7615 30.8408 12.4269 31.3427 12.1202C31.7052 11.8831 32.0816 11.6601 32.472 11.4509C32.9879 11.1721 33.5177 10.9072 34.0893 10.7399C34.3821 10.6562 34.661 10.5447 34.9538 10.475C35.2187 10.4052 35.4975 10.3495 35.7764 10.2937C36.1249 10.224 36.4874 10.1543 36.836 10.1125C37.8817 9.95909 38.9413 9.93121 40.0009 9.97303C40.2798 9.98698 40.5725 10.0149 40.8514 10.0567C41.1721 10.0985 41.4788 10.1682 41.7995 10.224C42.1899 10.3077 42.5803 10.3913 42.9567 10.4889C43.3471 10.6004 43.7375 10.7259 44.1139 10.8653C44.5182 11.0187 44.9226 11.186 45.3269 11.3673C45.7034 11.5485 46.0798 11.7437 46.4423 11.9668C46.8466 12.2178 47.237 12.4827 47.6135 12.7615C47.9202 12.9846 48.199 13.2356 48.4918 13.4726C49.0077 13.8908 49.4399 14.3788 49.8721 14.8808C50.2904 15.3687 50.6668 15.8846 51.0015 16.4144C51.2106 16.749 51.4197 17.0837 51.601 17.4322C51.8101 17.8365 51.9914 18.2688 52.1866 18.687C52.2981 18.9241 52.3957 19.175 52.4794 19.426C52.563 19.6769 52.6467 19.9279 52.7024 20.1789C52.7861 20.4717 52.8558 20.7784 52.9255 21.0712C52.9673 21.2803 53.0092 21.4895 53.0371 21.6986C53.0789 21.9774 53.1207 22.2563 53.1625 22.5351C53.1625 22.563 53.1625 22.5909 53.1765 22.6048C53.2322 23.3577 53.2601 24.0967 53.2183 24.8496C53.1904 25.3097 53.1486 25.7698 53.0928 26.2299C53.051 26.5784 52.9813 26.9409 52.8976 27.2895C52.8279 27.5683 52.7443 27.8472 52.6746 28.126C52.5909 28.4049 52.5072 28.6977 52.4096 28.9765C52.1866 29.5621 51.9495 30.1337 51.6428 30.6775C51.3919 31.1236 51.1269 31.5698 50.8342 31.9881C50.5274 32.4482 50.1649 32.8664 49.8303 33.3126C49.7606 33.3963 49.7048 33.4799 49.663 33.5775C49.5933 33.7588 49.663 33.9121 49.8024 34.0516C50.2346 34.4698 50.6668 34.902 51.0851 35.3203C51.2664 35.4876 51.4337 35.6689 51.6149 35.8362C51.6986 35.9059 51.8101 35.9756 51.9217 36.0174C52.089 36.0732 52.2423 36.0035 52.3678 35.8919C52.563 35.7107 52.7443 35.5155 52.9395 35.3343C53.4693 34.8044 54.013 34.2746 54.5428 33.7588C54.7101 33.5915 54.8774 33.4241 55.1145 33.3405C55.2818 33.2847 55.4491 33.229 55.6443 33.2429C55.7976 33.2568 55.965 33.4102 56.0207 33.5915C56.1044 33.8703 56.0068 34.0934 55.8255 34.2746C55.463 34.665 55.0866 35.0415 54.7101 35.4179C54.0409 36.0871 53.3717 36.7564 52.6885 37.4117C52.3539 37.7463 51.9914 38.053 51.6289 38.3737C51.2803 38.6665 50.9318 38.9593 50.5692 39.2242C50.0813 39.5867 49.5793 39.9213 49.0635 40.242C48.687 40.479 48.2966 40.6742 47.9062 40.8694C47.5019 41.0785 47.0976 41.2877 46.6793 41.455C46.1077 41.692 45.536 41.9011 44.9505 42.1103C44.6298 42.2218 44.3231 42.3333 43.9884 42.403C43.5423 42.5146 43.0822 42.6122 42.636 42.6958C42.3014 42.7516 41.9668 42.7934 41.6461 42.8353C41.2139 42.8771 40.7817 42.9189 40.3355 42.9607C39.9451 43.0026 39.75 43.1838 39.6524 43.5463C39.4711 44.1737 39.3038 44.8011 39.0389 45.4007C38.76 46.0141 38.4115 46.5858 37.9793 47.1016C37.8677 47.2411 37.798 47.4084 37.7144 47.5757C37.6865 47.6314 37.7004 47.6872 37.7701 47.729C37.9514 47.8127 38.1326 47.8685 38.3278 47.8685C39.4153 47.9242 40.5865 47.9242 41.7437 47.9242ZM51.9635 24.3198C51.9774 24.3198 51.9914 24.3198 51.9914 24.3198C51.9635 23.8457 51.9495 23.3717 51.8938 22.8976C51.8519 22.5351 51.7822 22.1726 51.7125 21.8101C51.6428 21.4755 51.5731 21.127 51.4755 20.7923C51.4058 20.5274 51.2664 20.2765 51.0015 20.151C50.8899 20.0952 50.7644 20.0534 50.6529 20.0394C50.3043 20.0255 49.9418 19.9976 49.6072 20.0534C49.2447 20.0952 48.9101 20.0673 48.5755 19.9697C48.2966 19.8861 48.0457 19.7327 47.8365 19.5515C47.5437 19.3005 47.3346 18.9798 47.1255 18.6731C46.6793 17.976 46.1077 17.4322 45.3687 17.0697C45.0481 16.9163 44.7134 16.8048 44.3788 16.7072C44.1697 16.6514 43.9466 16.6375 43.7375 16.6096C43.6956 16.6096 43.6538 16.5957 43.612 16.5817C43.3471 16.5678 43.0822 16.5399 42.8312 16.5678C42.636 16.5817 42.4548 16.6793 42.2596 16.7351C41.925 16.8466 41.6043 16.9582 41.2697 17.0697C41.0745 17.1255 40.8653 17.1394 40.6701 17.0558C40.2658 16.8745 39.8475 16.7072 39.4432 16.512C38.9413 16.2611 38.4394 16.0101 37.9514 15.7312C37.31 15.3687 36.7663 14.8808 36.3341 14.2952C36.1528 14.0582 36.0134 13.7793 36.0552 13.4726C36.0831 13.2634 36.1528 13.0543 36.2365 12.8591C36.4038 12.4966 36.6129 12.148 36.7942 11.7855C36.8778 11.6322 36.8639 11.6043 36.6966 11.5485C36.6687 11.5346 36.6408 11.5346 36.6129 11.5346C36.111 11.4649 35.6091 11.5485 35.135 11.6879C34.4797 11.8692 33.8384 12.1202 33.2249 12.4269C32.6672 12.7197 32.1095 13.0125 31.5797 13.3471C31.0917 13.6538 30.6316 14.0024 30.1715 14.3509C29.6975 14.7274 29.2653 15.1596 29.0143 15.7173C28.9306 15.8986 28.9585 15.9404 29.1537 15.9404C29.5999 15.9404 30.046 15.9264 30.4922 15.9543C30.8408 15.9683 30.9941 16.1077 31.0638 16.4005C31.1057 16.5678 31.1196 16.749 31.1196 16.9303C31.1196 17.3486 31.0917 17.7668 31.0917 18.199C31.0917 18.9938 31.1196 19.7745 31.1196 20.5693C31.1196 20.876 31.036 21.1688 30.8686 21.4197C30.6595 21.7404 30.3528 21.9635 30.0321 22.1587C29.5441 22.4515 29.4186 22.8976 29.5302 23.3717C29.5999 23.6645 29.7811 23.9154 30.0042 24.1385C30.297 24.4174 30.6595 24.5568 31.0638 24.5847C31.4263 24.5986 31.7749 24.5847 32.1374 24.5986C32.3605 24.6126 32.5975 24.6683 32.8206 24.738C33.0437 24.7938 33.1273 24.9193 33.0994 25.1424C33.0715 25.4212 33.0018 25.7001 32.8066 25.9231C32.5557 26.2159 32.3187 26.5227 32.0677 26.8015C31.5658 27.3871 31.0638 27.9727 30.5619 28.5443C30.3807 28.7534 30.1576 28.9068 29.8648 28.8789C29.6835 28.865 29.5162 28.7813 29.3629 28.6837C28.9446 28.3909 28.5263 28.0842 28.108 27.7775C27.8292 27.5823 27.5225 27.4986 27.2018 27.6102C26.9648 27.6938 26.7556 27.8193 26.5326 27.9308C26.4768 27.9587 26.435 28.0284 26.421 28.0842C26.3095 28.3212 26.3513 28.5443 26.4489 28.7813C26.6162 29.1578 26.7696 29.5342 26.9508 29.8967C27.383 30.789 27.9129 31.6256 28.5403 32.3924C29.1677 33.1732 29.8927 33.8703 30.7013 34.4838C31.3148 34.9578 31.9701 35.3761 32.6533 35.7525C33.2388 36.0732 33.8384 36.3381 34.4797 36.5472C34.898 36.6867 35.3163 36.7982 35.7345 36.8958C36.0552 36.9795 36.3759 37.0352 36.7105 37.091C37.0172 37.1468 37.31 37.2025 37.6168 37.2165C38.1047 37.2444 38.6067 37.2583 39.0947 37.2722C39.2341 37.2722 39.3596 37.2862 39.499 37.2722C39.8057 37.2444 40.0985 37.2165 40.4052 37.1746C40.7259 37.1328 41.0466 37.091 41.3673 37.0352C41.7437 36.9655 42.1202 36.8819 42.4966 36.7703C42.9846 36.617 43.4726 36.4636 43.9466 36.2684C44.3928 36.0871 44.811 35.8641 45.2433 35.641C46.0659 35.1948 46.8327 34.6511 47.5437 34.0516C48.1154 33.5636 48.6452 33.0198 49.1192 32.4342C49.5236 31.9323 49.914 31.4164 50.2207 30.8587C50.4856 30.3847 50.7366 29.8967 50.9596 29.4087C51.1688 28.9486 51.3361 28.4746 51.4894 28.0006C51.6149 27.6241 51.6986 27.2477 51.7962 26.8712C51.8519 26.6481 51.8938 26.4251 51.9217 26.202C51.9635 25.8813 52.0193 25.5467 52.0471 25.226C51.9774 24.8914 51.9635 24.5986 51.9635 24.3198ZM20.7743 25.2121C20.7883 25.2121 20.7883 25.2121 20.7743 25.2121C20.7883 25.3097 20.7743 25.4212 20.7883 25.5188C20.8301 25.8813 20.8719 26.2578 20.9138 26.6203C20.9695 27.1082 21.0671 27.5962 21.1787 28.0842C21.2623 28.4328 21.346 28.7813 21.4575 29.1299C21.6109 29.6318 21.7782 30.1337 21.9734 30.6357C22.1965 31.2212 22.4614 31.7789 22.7821 32.3227C23.0748 32.8246 23.3676 33.3126 23.6883 33.7866C24.1345 34.4419 24.5806 35.0833 25.0686 35.7107C25.6821 36.5054 26.4071 37.2025 27.1878 37.8299C27.6758 38.2203 28.1778 38.5828 28.7076 38.9174C29.3071 39.3078 29.9345 39.6564 30.5759 40.005C31.0081 40.242 31.4682 40.4372 31.9283 40.6184C32.3605 40.7857 32.7927 40.9391 33.2389 41.0646C33.5038 41.1482 33.7687 41.204 34.0475 41.2598C34.2985 41.3155 34.5355 41.3853 34.7865 41.4271C35.0653 41.4828 35.3441 41.5386 35.623 41.5944C35.8042 41.6362 35.9855 41.678 36.1528 41.7059C36.5293 41.7617 36.9057 41.8175 37.2961 41.8593C37.6028 41.8872 37.8956 41.929 38.2023 41.929C38.7879 41.929 39.3735 41.9151 39.9591 41.8872C40.3495 41.8732 40.7399 41.8175 41.1302 41.7756C41.3115 41.7478 41.5067 41.7199 41.6879 41.678C42.0783 41.5944 42.4687 41.5247 42.8591 41.441C43.138 41.3713 43.4168 41.2877 43.6956 41.204C44.1 41.0785 44.4904 40.9809 44.8808 40.8276C45.3966 40.6324 45.9264 40.4372 46.4284 40.1862C47.0697 39.8655 47.6971 39.5309 48.3106 39.1684C48.938 38.792 49.5375 38.3598 50.137 37.9415C50.3601 37.7881 50.5692 37.6069 50.7644 37.4256C50.8899 37.3141 50.9039 37.1607 50.8202 37.0073C50.7644 36.8819 50.6808 36.7703 50.5832 36.6727C50.0534 36.1429 49.5236 35.627 48.9938 35.1112C48.8125 34.9299 48.6173 34.8184 48.3524 34.916C48.2409 34.9578 48.1293 35.0415 48.0317 35.1112C47.7389 35.3343 47.4601 35.5852 47.1534 35.8083C46.4981 36.2963 45.8009 36.7146 45.0481 37.0631C44.6577 37.2444 44.2673 37.4117 43.863 37.565C43.5005 37.7045 43.138 37.816 42.7754 37.9275C42.5942 37.9833 42.399 38.0391 42.2038 38.0809C41.9389 38.1367 41.6601 38.1924 41.3952 38.2482C41.2 38.29 40.9908 38.3319 40.7956 38.3598C40.6004 38.3876 40.3913 38.4016 40.1822 38.4295C39.8894 38.4573 39.6105 38.4852 39.3177 38.4992C38.8855 38.5131 38.4672 38.5131 38.035 38.4992C37.6446 38.4852 37.2403 38.4573 36.8499 38.4016C36.4456 38.3458 36.0552 38.2622 35.6648 38.1785C35.3442 38.1088 35.0235 38.0391 34.7167 37.9554C34.1312 37.7881 33.5595 37.579 33.0018 37.328C32.2489 36.9934 31.5239 36.603 30.8268 36.1569C29.9484 35.5852 29.1258 34.9439 28.3869 34.191C27.7455 33.5496 27.1739 32.8386 26.672 32.0857C26.2119 31.4025 25.8215 30.6775 25.5008 29.9385C25.3475 29.576 25.1941 29.2275 25.0547 28.865C24.9292 28.5025 24.8037 28.14 24.7061 27.7635C24.6364 27.4847 24.5946 27.2058 24.5527 26.913C24.5109 26.5924 24.483 26.2717 24.4691 25.951C24.4551 25.24 24.4551 24.5289 24.4691 23.8318C24.483 22.9952 24.4133 22.1447 24.5946 21.3221C24.6503 21.0572 24.6782 20.7923 24.7479 20.5414C24.8734 20.137 24.985 19.7327 25.1523 19.3423C25.3614 18.8404 25.6124 18.3524 25.8494 17.8505C26.184 17.1673 26.6302 16.5538 27.0763 15.9404C27.3273 15.5918 27.5922 15.2572 27.8431 14.8947C27.9965 14.6856 28.0244 14.4625 27.8013 14.2673C27.5922 14.086 27.383 13.9327 27.1878 13.7514C26.6999 13.3192 26.2119 12.8731 25.7239 12.4408C25.6542 12.3711 25.5845 12.3432 25.4869 12.413C25.3893 12.4827 25.2917 12.5384 25.222 12.6221C24.985 12.887 24.7619 13.1519 24.5527 13.4307C24.1763 13.9327 23.7998 14.4485 23.4652 14.9784C23.1724 15.4245 22.9075 15.8986 22.6845 16.3865C22.4056 16.9721 22.1407 17.5577 21.9176 18.1572C21.7364 18.6173 21.6109 19.0914 21.4715 19.5654C21.3599 19.9697 21.2623 20.388 21.1647 20.7923C21.095 21.0851 21.0532 21.3919 20.9974 21.6986C20.9277 22.1447 20.858 22.6048 20.8162 23.051C20.7743 23.4414 20.7604 23.8318 20.7604 24.2082C20.7465 24.5289 20.7743 24.8635 20.7743 25.2121ZM42.5803 15.1735C42.7057 15.1875 42.8312 15.1875 42.9567 15.2014C43.1519 15.2293 43.361 15.2711 43.5562 15.313C43.849 15.3548 44.1418 15.3966 44.4346 15.4524C44.8668 15.55 45.299 15.6615 45.7312 15.787C46.0659 15.8846 46.3865 16.038 46.6514 16.2611C47.2928 16.763 47.8087 17.3904 48.2409 18.0736C48.4639 18.4221 48.7846 18.6452 49.189 18.701C49.5236 18.7428 49.8861 18.7149 50.2207 18.701C50.4298 18.687 50.5414 18.5337 50.5135 18.3245C50.4995 18.2409 50.4856 18.1712 50.4438 18.1015C50.0952 17.488 49.7188 16.9163 49.2865 16.3587C49.0495 16.0659 48.8125 15.7731 48.5615 15.4942C48.1014 14.9644 47.5856 14.4904 47.0418 14.0442C46.3447 13.4865 45.6058 12.9846 44.7971 12.5942C44.3928 12.399 43.9745 12.2178 43.5423 12.0365C43.2495 11.925 42.9567 11.8274 42.65 11.7437C42.3572 11.6601 42.0644 11.5764 41.7577 11.5067C41.5206 11.4509 41.2836 11.4091 41.0466 11.3533C40.8235 11.3115 40.6004 11.2697 40.3774 11.2418C40.1822 11.2139 39.973 11.2 39.7778 11.1721C39.499 11.1442 39.2341 11.1024 38.9552 11.0745C38.774 11.0605 38.5927 11.1024 38.4673 11.2278C38.3557 11.3394 38.2442 11.4649 38.1745 11.6182C38.049 11.8971 37.9096 12.1759 37.7283 12.4269C37.5192 12.7197 37.4495 13.0543 37.5052 13.4029C37.561 13.7514 37.7422 14.0442 37.9932 14.2952C38.3696 14.6716 38.8437 14.8947 39.3317 15.1038C39.7778 15.299 40.2379 15.4942 40.6841 15.6755C40.7538 15.7034 40.8375 15.7312 40.9072 15.7173C41.0745 15.7034 41.2139 15.6336 41.3533 15.55C41.7298 15.313 42.1341 15.1596 42.5803 15.1735ZM25.6263 24.4034C25.6124 24.7799 25.6124 25.1702 25.6263 25.5467C25.6402 25.7698 25.6542 26.0068 25.71 26.2159C25.7936 26.5505 26.0864 26.7039 26.421 26.6063C26.5744 26.5645 26.7278 26.4808 26.8672 26.4111C27.1181 26.2856 27.383 26.188 27.6758 26.202C27.9826 26.2159 28.2614 26.3275 28.4984 26.5087C28.7633 26.7039 29.0143 26.8991 29.2653 27.0943C29.4465 27.2198 29.6417 27.3034 29.8508 27.1919C29.9345 27.1501 30.0182 27.0943 30.0879 27.0246C30.297 26.8154 30.5201 26.6063 30.7153 26.3832C30.8408 26.2438 30.8129 26.1044 30.6734 25.9928C30.6037 25.9371 30.5061 25.8953 30.4225 25.8395C30.0321 25.6303 29.6278 25.4491 29.2513 25.2121C28.4706 24.7101 28.0941 23.9991 28.2475 23.0649C28.2754 22.9255 28.2475 22.7582 28.2335 22.6188C28.1917 22.326 28.1917 22.0332 28.3869 21.7822C28.5403 21.5731 28.7494 21.4616 28.9725 21.3361C29.3071 21.1548 29.5999 20.9039 29.7254 20.5414C29.7811 20.3741 29.7951 20.1789 29.7951 19.9837C29.7951 19.8164 29.7533 19.6351 29.7533 19.4678C29.7533 19.0356 29.7811 18.5894 29.7811 18.1572C29.7811 17.9481 29.7393 17.7389 29.6975 17.5298C29.6696 17.3764 29.5581 17.2649 29.4047 17.1952C29.0561 17.0558 28.6936 17.0418 28.3451 17.1394C27.8013 17.2789 27.3691 17.5995 27.0903 18.0736C26.9229 18.3524 26.7975 18.6313 26.658 18.9241C26.4071 19.4678 26.184 20.0255 26.0167 20.6111C25.8773 21.0712 25.7797 21.5313 25.7239 22.0053C25.6681 22.3539 25.6542 22.7164 25.6402 23.0649C25.6124 23.5111 25.6263 23.9573 25.6263 24.4034Z" fill="white"/>
<path d="M40.7258 34.6758C40.182 34.6758 39.6383 34.6758 39.1085 34.6758C39.0387 34.6758 38.8296 34.634 38.7878 34.634C38.1046 34.6479 37.4354 34.6061 36.7661 34.62C36.069 34.6339 35.3719 34.5921 34.6887 34.4806C34.2147 34.4109 33.7546 34.2993 33.2945 34.2017C32.9041 34.1181 32.5277 33.9926 32.1233 33.9229C31.5656 33.8253 31.2868 33.2955 31.2589 32.9051C31.231 32.5008 31.2031 32.0825 31.2031 31.6782C31.2031 31.4133 31.231 31.1344 31.2728 30.8695C31.3286 30.5349 31.482 30.2421 31.6911 29.9772C32.0118 29.545 32.3464 29.1406 32.681 28.7224C32.932 28.4017 33.1969 28.1089 33.42 27.7743C33.6849 27.37 33.8243 26.9238 33.9498 26.4498C34.0334 26.1012 34.131 25.7526 34.2705 25.418C34.4099 25.0555 34.7863 24.8743 35.0791 24.9858C35.2604 25.0555 35.4277 25.1392 35.581 25.2368C36.2642 25.6829 36.9335 26.143 37.6306 26.5892C38.3974 27.0772 39.1642 27.5652 39.9311 28.0392C40.0008 28.081 40.0705 28.1228 40.1541 28.1228C40.3912 28.1647 40.5445 28.095 40.6421 27.8719C40.7397 27.6349 40.8234 27.3839 40.907 27.1469C41.0046 26.9099 41.0883 26.6589 41.1998 26.4219C41.2835 26.2406 41.4229 26.1012 41.646 26.143C41.7715 26.1709 41.9109 26.2546 41.9806 26.3522C42.4128 26.868 42.8171 27.3839 43.2354 27.9137C43.5003 28.2483 43.7513 28.569 44.0162 28.9036C44.1696 29.0988 44.309 29.294 44.4623 29.4892C44.5739 29.6426 44.6157 29.8099 44.6297 29.9911C44.6575 30.4233 44.7273 30.8695 44.7412 31.3017C44.7691 32.3474 44.3926 33.1979 43.5282 33.8253C43.2215 34.0484 42.9008 34.2296 42.5662 34.4109C42.2316 34.5921 41.8691 34.6897 41.4787 34.6618C41.2138 34.6758 40.9767 34.6897 40.7258 34.6758C40.7258 34.6897 40.7258 34.6897 40.7258 34.6758ZM43.4864 31.1484C43.4724 30.8834 43.4306 30.5349 43.2633 30.2142C43.082 29.8935 42.8869 29.5729 42.6777 29.2661C42.5522 29.0849 42.4128 28.9176 42.2734 28.7503C42.1618 28.6248 41.9527 28.6387 41.8272 28.7642C41.6739 28.9176 41.6042 29.0988 41.5205 29.294C41.4508 29.4753 41.3811 29.6565 41.2695 29.8099C41.1162 30.033 40.8791 30.1027 40.6282 30.019C40.5027 29.9772 40.3912 29.9075 40.2936 29.8378C40.0984 29.6844 39.9311 29.5031 39.7219 29.3637C39.3455 29.0849 38.969 28.8339 38.5926 28.569C37.9094 28.1089 37.2123 27.6627 36.5152 27.2166C36.2782 27.0632 36.0272 26.8959 35.7762 26.7426C35.5253 26.5892 35.2464 26.645 35.1209 26.868C35.0791 26.9517 35.0373 27.0353 35.0373 27.119C35.0094 27.4118 34.8979 27.6767 34.7166 27.9277C34.1729 28.6666 33.6291 29.4195 33.0853 30.1724C32.9738 30.3257 32.8483 30.4652 32.7507 30.6325C32.5555 30.9671 32.5416 31.3435 32.5834 31.72C32.6113 31.971 32.6392 32.2219 32.6392 32.4729C32.6392 32.6681 32.7647 32.7796 32.9459 32.8214C33.3503 32.933 33.7546 33.0166 34.1589 33.1282C34.5214 33.2258 34.8839 33.3373 35.2464 33.421C35.4834 33.4767 35.7205 33.5325 35.9575 33.5604C36.1666 33.6022 36.3897 33.6162 36.5988 33.644C36.6685 33.658 36.7243 33.658 36.794 33.658C36.8777 33.658 36.9753 33.6719 37.0729 33.6719C37.282 33.658 37.4911 33.6301 37.7003 33.6162C38.007 33.6162 38.3277 33.6301 38.6344 33.6301C38.9412 33.6301 39.2618 33.6162 39.5686 33.5883C39.7916 33.5743 40.0147 33.5325 40.2378 33.5046C40.5166 33.4767 40.7955 33.4488 41.0604 33.407C41.5484 33.3234 42.0364 33.17 42.4686 32.919C43.1378 32.5565 43.4864 31.9988 43.4864 31.1484Z" fill="white"/>
<path d="M47.7786 21.4609C48.2387 21.4609 48.6988 21.4609 49.1449 21.4609C49.5493 21.4609 49.7445 21.7537 49.7445 22.0605C49.7584 22.5066 49.7584 22.9528 49.7305 23.3989C49.7166 23.6778 49.7026 23.9706 49.5632 24.2355C49.4377 24.4864 49.2565 24.6677 48.9776 24.7513C48.6151 24.8489 48.2805 24.9884 47.918 25.0999C47.6113 25.1975 47.2906 25.2672 46.9699 25.3509C46.8723 25.3788 46.7608 25.3927 46.6632 25.4206C46.4262 25.5042 46.2449 25.4206 46.0637 25.2812C45.8267 25.0999 45.7291 24.8768 45.7291 24.584C45.7291 24.0682 45.7012 23.5384 45.7012 23.0225C45.7012 22.6879 45.7151 22.3672 45.7291 22.0326C45.743 21.7398 46.0079 21.4888 46.3286 21.4888C46.8166 21.4609 47.3045 21.4609 47.7786 21.4609ZM47.8204 22.5345C47.7368 22.5345 47.667 22.5345 47.5834 22.5345C47.4997 22.5345 47.4161 22.5484 47.3464 22.5484C47.1651 22.5624 47.0118 22.6739 46.9978 22.8133C46.9699 23.0783 46.956 23.3571 46.956 23.636C46.956 23.8033 47.1094 23.9706 47.2488 23.9706C47.4719 23.9706 47.6949 23.9985 47.9041 23.9148C48.0435 23.859 48.1829 23.8172 48.2945 23.7335C48.5733 23.5384 48.643 23.2595 48.6012 22.9388C48.5594 22.6739 48.3921 22.5345 48.1132 22.5206C48.0156 22.5206 47.918 22.5345 47.8204 22.5345Z" fill="white"/>
<path d="M70.0605 76H5.93946C2.663 76 0 73.337 0 70.0605V5.93946C0 2.663 2.663 0 5.93946 0H70.0605C73.337 0 76 2.663 76 5.93946V70.0605C76 73.337 73.337 76 70.0605 76ZM5.93946 1.97982C3.7505 1.97982 1.97982 3.7505 1.97982 5.93946V70.0605C1.97982 72.2495 3.7505 74.0202 5.93946 74.0202H70.0605C72.2495 74.0202 74.0202 72.2495 74.0202 70.0605V5.93946C74.0202 3.7505 72.2495 1.97982 70.0605 1.97982H5.93946Z" fill="white"/>
<path d="M16.0625 62.7786C16.0625 62.3604 16.1322 61.956 16.2856 61.5517C16.425 61.1474 16.6341 60.7849 16.913 60.4642C17.1918 60.1435 17.5265 59.8786 17.9168 59.6834C18.3072 59.4882 18.7673 59.3906 19.2693 59.3906C19.8827 59.3906 20.3986 59.53 20.8447 59.795C21.2909 60.0738 21.6255 60.4224 21.8347 60.8825L20.5241 61.9003C20.4683 61.7329 20.3846 61.5935 20.287 61.482C20.1894 61.3704 20.0779 61.2868 19.9664 61.2171C19.8548 61.1474 19.7293 61.1055 19.6039 61.0777C19.4784 61.0498 19.3529 61.0358 19.2414 61.0358C18.9904 61.0358 18.7813 61.0916 18.6 61.1892C18.4188 61.3007 18.2793 61.4262 18.1539 61.6075C18.0423 61.7748 17.9587 61.97 17.9029 62.1791C17.8471 62.3882 17.8192 62.6113 17.8192 62.8205C17.8192 63.0575 17.8471 63.2806 17.9168 63.5036C17.9866 63.7267 18.0702 63.908 18.1957 64.0753C18.3212 64.2426 18.4745 64.382 18.6558 64.4796C18.837 64.5772 19.0322 64.633 19.2553 64.633C19.3668 64.633 19.4923 64.619 19.6178 64.5911C19.7433 64.5633 19.8548 64.5075 19.9803 64.4517C20.0919 64.382 20.2034 64.2983 20.287 64.1868C20.3846 64.0753 20.4544 63.9498 20.5101 63.7964L21.9183 64.7166C21.8207 64.9676 21.6813 65.1907 21.4861 65.3859C21.2909 65.581 21.0818 65.7484 20.8308 65.8878C20.5798 66.0272 20.3289 66.1248 20.05 66.1945C19.7712 66.2642 19.4923 66.3061 19.2274 66.3061C18.7673 66.3061 18.3351 66.2085 17.9447 65.9993C17.5543 65.8041 17.2197 65.5253 16.9409 65.1907C16.662 64.856 16.4389 64.4796 16.2856 64.0613C16.1322 63.6431 16.0625 63.2248 16.0625 62.7786Z" fill="white"/>
<path d="M24.6784 66.3478C24.2601 66.3478 23.8976 66.2781 23.577 66.1247C23.2563 65.9853 22.9914 65.7901 22.7822 65.5531C22.5731 65.3161 22.4058 65.0372 22.2943 64.7165C22.1827 64.3959 22.127 64.0613 22.127 63.7266C22.127 63.3781 22.1827 63.0435 22.2943 62.7367C22.4058 62.4161 22.5592 62.1372 22.7822 61.9002C22.9914 61.6632 23.2563 61.468 23.577 61.3285C23.8976 61.1891 24.2601 61.1055 24.6784 61.1055C25.0967 61.1055 25.4592 61.1752 25.7799 61.3285C26.1005 61.468 26.3654 61.6632 26.5746 61.9002C26.7837 62.1372 26.951 62.4161 27.0626 62.7367C27.1741 63.0574 27.2299 63.392 27.2299 63.7266C27.2299 64.0752 27.1741 64.4098 27.0626 64.7165C26.951 65.0372 26.7977 65.3161 26.5746 65.5531C26.3654 65.7901 26.0866 65.9853 25.7799 66.1247C25.4592 66.2781 25.0967 66.3478 24.6784 66.3478ZM23.8558 63.7266C23.8558 64.0613 23.9255 64.3262 24.0789 64.5214C24.2323 64.7165 24.4274 64.8141 24.6645 64.8141C24.9015 64.8141 25.0967 64.7165 25.25 64.5214C25.4034 64.3262 25.4731 64.0613 25.4731 63.7266C25.4731 63.392 25.3895 63.1271 25.25 62.9319C25.0967 62.7367 24.9015 62.6391 24.6645 62.6391C24.4274 62.6391 24.2323 62.7367 24.0789 62.9319C23.9395 63.1132 23.8558 63.392 23.8558 63.7266Z" fill="white"/>
<path d="M35.3174 66.2491H33.6443V63.4048C33.6443 63.1539 33.6025 62.9726 33.5049 62.8611C33.4073 62.7495 33.3097 62.6938 33.1703 62.6938C33.0309 62.6938 32.8914 62.7635 32.7381 62.889C32.5847 63.0284 32.4732 63.1957 32.4035 63.4048V66.2351H30.7304V63.4048C30.7304 63.1539 30.6885 62.9726 30.5909 62.8611C30.4933 62.7495 30.3957 62.6938 30.2563 62.6938C30.1169 62.6938 29.9775 62.7635 29.8241 62.889C29.6707 63.0284 29.5592 63.1957 29.4895 63.4048V66.2351H27.8164V61.174H29.3222V61.9269C29.4895 61.6481 29.7126 61.4389 30.0054 61.2995C30.2982 61.1601 30.6328 61.0764 31.0371 61.0764C31.2323 61.0764 31.3857 61.1043 31.539 61.1462C31.6784 61.188 31.8039 61.2577 31.9015 61.3413C31.9991 61.425 32.0828 61.5226 32.1525 61.6202C32.2083 61.7178 32.264 61.8293 32.2919 61.9409C32.4592 61.662 32.6823 61.4529 32.9751 61.2995C33.2679 61.1462 33.5886 61.0625 33.9511 61.0625C34.2578 61.0625 34.4948 61.1183 34.6761 61.2437C34.8573 61.3692 34.9967 61.5226 35.0804 61.7038C35.178 61.8851 35.2338 62.0942 35.2616 62.3034C35.2895 62.5125 35.3035 62.7077 35.3035 62.875V66.2491H35.3174Z" fill="white"/>
<path d="M39.2618 66.3484C38.9272 66.3484 38.6344 66.2786 38.3834 66.1253C38.1324 65.9859 37.9512 65.7767 37.8118 65.4979V68.3003H36.1387V61.1897H37.6026V61.9426C37.7699 61.6637 37.9651 61.4546 38.2161 61.3012C38.4531 61.1478 38.7598 61.0781 39.1084 61.0781C39.4151 61.0781 39.694 61.1478 39.9728 61.2733C40.2377 61.3988 40.4608 61.5801 40.656 61.8171C40.8512 62.0541 40.9906 62.319 41.1022 62.6397C41.2137 62.9604 41.2695 63.3089 41.2695 63.6714C41.2695 64.0479 41.2137 64.3964 41.1161 64.731C41.0185 65.0517 40.8791 65.3306 40.6978 65.5676C40.5166 65.8046 40.3075 65.9859 40.0704 66.1253C39.8055 66.2786 39.5406 66.3484 39.2618 66.3484ZM38.6762 64.8147C38.8017 64.8147 38.9132 64.7868 39.0108 64.731C39.1084 64.6753 39.206 64.5916 39.2757 64.494C39.3454 64.3964 39.4151 64.2709 39.457 64.1315C39.4988 63.9921 39.5267 63.8527 39.5267 63.6993C39.5267 63.3786 39.443 63.1277 39.2757 62.9325C39.1084 62.7373 38.8853 62.6397 38.6065 62.6397C38.2997 62.6397 38.0348 62.807 37.8118 63.1555V64.0339C37.8954 64.257 38.0209 64.4382 38.1743 64.5916C38.3276 64.745 38.4949 64.8147 38.6762 64.8147Z" fill="white"/>
<path d="M43.2645 66.3501C42.7904 66.3501 42.4279 66.1967 42.1909 65.89C41.9399 65.5833 41.8145 65.1232 41.8145 64.5236V61.1914H43.4875V64.1054C43.4875 64.3284 43.5294 64.5097 43.627 64.6212C43.7246 64.7467 43.85 64.8025 44.0034 64.8025C44.1289 64.8025 44.2683 64.7746 44.4077 64.7049C44.5472 64.6352 44.6726 64.4958 44.8121 64.2866V61.1914H46.4852V64.2308C46.4852 64.3982 46.513 64.5236 46.5549 64.5934C46.5967 64.6631 46.6803 64.7049 46.8058 64.7188V66.2525C46.513 66.3222 46.276 66.3501 46.0948 66.3501C45.5231 66.3501 45.1885 66.1131 45.1049 65.653L45.063 65.4717C44.84 65.7924 44.589 66.0155 44.2823 66.1549C43.9895 66.2804 43.6409 66.3501 43.2645 66.3501Z" fill="white"/>
<path d="M50.7501 65.9732C50.5131 66.0848 50.2621 66.1684 49.9972 66.2521C49.7323 66.3218 49.4674 66.3636 49.2025 66.3636C49.0073 66.3636 48.84 66.3357 48.6587 66.28C48.4914 66.2242 48.338 66.1405 48.2126 66.029C48.0871 65.9175 47.9895 65.7641 47.9058 65.5828C47.8361 65.4016 47.7943 65.1646 47.7943 64.8857V62.5713H47.2227V61.191H47.7943V59.6016H49.4674V61.191H50.3736V62.5713H49.4674V64.2444C49.4674 64.4117 49.4953 64.5232 49.565 64.5929C49.6347 64.6627 49.7183 64.6905 49.8299 64.6905C49.9135 64.6905 50.0111 64.6766 50.1087 64.6487C50.2203 64.6208 50.3179 64.579 50.4294 64.5232L50.7501 65.9732Z" fill="white"/>
<path d="M53.5258 66.35C53.1215 66.35 52.759 66.2803 52.4383 66.1409C52.1176 66.0015 51.8527 65.8202 51.6436 65.5832C51.4344 65.3462 51.2671 65.0673 51.1556 64.7606C51.0441 64.4539 50.9883 64.1332 50.9883 63.7846C50.9883 63.4221 51.0441 63.0736 51.1556 62.7529C51.2671 62.4322 51.4205 62.1394 51.6436 61.9024C51.8527 61.6654 52.1176 61.4702 52.4383 61.3168C52.759 61.1774 53.1215 61.0938 53.5397 61.0938C53.958 61.0938 54.3205 61.1635 54.6412 61.3168C54.9619 61.4563 55.2268 61.6514 55.4359 61.8885C55.645 62.1255 55.8124 62.4043 55.9239 62.725C56.0354 63.0457 56.0912 63.3803 56.0912 63.7149C56.0912 63.8125 56.0912 63.9101 56.0773 64.0077C56.0633 64.1053 56.0633 64.189 56.0494 64.2726H52.7868C52.8008 64.5375 52.8984 64.7327 53.0657 64.8582C53.233 64.9837 53.4143 65.0395 53.6095 65.0395C53.7907 65.0395 53.958 64.9976 54.1253 64.9C54.2926 64.8164 54.3902 64.6909 54.446 64.5236L55.8681 64.9697C55.6729 65.3741 55.3941 65.7087 55.0037 65.9596C54.5715 66.2246 54.0974 66.35 53.5258 66.35ZM54.2647 63.1851C54.2369 62.9481 54.1532 62.7529 54.0138 62.6135C53.8744 62.474 53.707 62.4043 53.4979 62.4043C53.2888 62.4043 53.1075 62.474 52.982 62.6135C52.8426 62.7529 52.759 62.9481 52.7311 63.1851H54.2647Z" fill="white"/>
<path d="M59.7718 62.7529C59.4511 62.7529 59.1583 62.7947 58.8934 62.8644C58.6285 62.9481 58.4333 63.0736 58.3079 63.2548V66.2524H56.6348V61.1913H58.1684V62.1534C58.3357 61.8188 58.5449 61.5538 58.7819 61.3726C59.0329 61.1913 59.2838 61.0938 59.5766 61.0938C59.6882 61.0938 59.7579 61.0938 59.7857 61.1077V62.7529H59.7718Z" fill="white"/>
<path d="M29.6582 50.0469H32.3913L34.2713 54.6284H34.3661L36.2461 50.0469H38.9792V58.1356H36.8306V53.4593H36.7674L34.9664 58.0724H33.671L31.87 53.4277H31.8068V58.1356H29.6582V50.0469Z" fill="#A00D0D"/>
<path d="M41.3785 60.4105C41.1284 60.4105 40.8901 60.3908 40.6636 60.3513C40.4372 60.3144 40.2384 60.2631 40.0673 60.1972L40.5412 58.649C40.7203 58.7122 40.8835 58.753 41.031 58.7714C41.181 58.7899 41.3087 58.7793 41.4141 58.7399C41.522 58.7004 41.5997 58.6253 41.6471 58.5147L41.6945 58.4041L39.5617 52.069H41.8367L42.8162 56.2714H42.8793L43.8746 52.069H46.1654L43.9536 58.6411C43.843 58.9755 43.6824 59.2757 43.4718 59.5416C43.2638 59.8102 42.9899 60.0221 42.6503 60.1775C42.3106 60.3328 41.8867 60.4105 41.3785 60.4105Z" fill="#A00D0D"/>
</svg>
