<svg width="24" height="24" viewBox="0 0 24 24" fill="none" xmlns="http://www.w3.org/2000/svg">
<path fill-rule="evenodd" clip-rule="evenodd" d="M5 0C2.23858 0 0 2.23858 0 5V19C0 21.7614 2.23858 24 5 24H19C21.7614 24 24 21.7614 24 19V5C24 2.23858 21.7614 0 19 0H5ZM6 7.57031V16.4297C6.01695 16.4867 6.03177 16.5446 6.0466 16.6026C6.07895 16.7292 6.1113 16.8557 6.16578 16.9719C6.43218 17.5399 6.88282 17.8763 7.50446 17.9791C7.5198 17.9816 7.53465 17.9871 7.54951 17.9926C7.55643 17.9952 7.56334 17.9977 7.57031 18H11.2969V13.7592H9.8963V11.6522H11.2969L11.2969 11.5148C11.2969 11.3838 11.2968 11.2528 11.2967 11.1218C11.2964 10.8349 11.2962 10.548 11.2971 10.261C11.301 9.03689 12.2242 8.1131 13.4482 8.10972C13.924 8.10841 14.3998 8.10874 14.8786 8.10908C15.0951 8.10923 15.3122 8.10938 15.5302 8.10938V10.2169H13.4122V11.6439H15.5396L15.1874 13.7567H13.4062V18H16.4297C16.4899 17.9815 16.5513 17.9652 16.6126 17.9489C16.7468 17.9133 16.881 17.8777 17.0037 17.8184C17.5477 17.5552 17.8689 17.1138 17.9767 16.5182C17.9804 16.4978 17.9862 16.4777 17.9921 16.4577C17.9948 16.4484 17.9975 16.4391 18 16.4297V7.57031C17.983 7.51333 17.9682 7.45536 17.9534 7.39738C17.9211 7.27083 17.8887 7.14429 17.8342 7.02812C17.5678 6.46008 17.1172 6.12373 16.4955 6.02091C16.4802 6.01838 16.4654 6.01288 16.4505 6.00738C16.4436 6.00482 16.4367 6.00226 16.4297 6H7.57031C7.51006 6.01855 7.4487 6.03482 7.38735 6.05109C7.25318 6.08668 7.11901 6.12227 6.99634 6.18162C6.45228 6.44481 6.13106 6.8862 6.02327 7.48183C6.01958 7.50224 6.01375 7.52227 6.00792 7.5423C6.00521 7.55162 6.0025 7.56095 6 7.57031Z" fill="white"/>
</svg>
