<svg width="417" height="419" viewBox="0 0 417 419" fill="none" xmlns="http://www.w3.org/2000/svg">
<path d="M247.038 366.87L232.339 372.037V379.405C232.339 379.405 248.359 378.916 247.038 366.87Z" fill="#F6A86A"/>
<path d="M304.41 291.345L307.016 307.302L314.661 308.908C314.661 308.908 317.198 292.567 304.41 291.345Z" fill="#F6A86A"/>
<path d="M198.041 283.558C198.041 283.558 198.041 314.111 203.635 335.27C205.477 342.184 208.848 348.608 213.435 354.09L228.586 372.177C229.837 373.678 231.922 374.202 233.729 373.504L250.548 366.974C251.486 366.625 251.834 365.473 251.278 364.635L234.042 339.495C229.003 332.162 225.597 323.817 224.173 315.018C223.061 308.314 222.435 300.249 223.617 292.427C223.617 292.427 226.848 285.304 236.092 293.929C242.799 300.179 261.355 309.117 267.819 312.12C269.278 312.784 270.842 313.168 272.44 313.203L306.356 314.006C306.356 314.006 316.816 308.105 308.719 294.557C307.468 292.462 305.21 291.17 302.777 291.1C291.9 290.926 270.911 293.265 256.038 270.569C255.83 270.29 255.795 269.173 255.865 269.522C255.899 269.871 255.899 269.871 255.899 269.871C255.899 269.871 236.717 287.225 198.041 283.558Z" fill="#4D3458"/>
<path d="M228.586 372.177L244.884 366.067L222.991 332.861C221.879 331.15 221.323 329.125 221.427 327.1C222.713 301.017 220.454 292.043 219.203 289.18C218.508 287.539 217.952 285.828 217.535 284.082L217.466 283.733L198.075 283.593C198.075 283.593 228.447 288.482 256.073 270.604H257.046" stroke="#EFEFEF" stroke-width="1.47" stroke-miterlimit="10"/>
<path d="M305.07 312.714C304.862 309.676 303.367 294.801 303.367 294.801C273.065 298.887 250.339 273.956 250.339 273.956C250.339 273.956 255.829 280.974 260.59 276.54" stroke="#EFEFEF" stroke-width="1.47" stroke-miterlimit="10"/>
<path d="M274.664 290.611L267.019 295.849" stroke="#EFEFEF" stroke-width="1.47" stroke-miterlimit="10"/>
<path d="M204.504 284.117C204.504 284.117 203.566 293.789 197.832 293.37" stroke="#EFEFEF" stroke-width="1.47" stroke-miterlimit="10"/>
<path d="M95.9552 213.717L84.3382 209.395C83.1915 208.976 81.9752 208.697 80.759 208.592C77.1797 208.278 69.1177 206.777 70.334 199.968C71.3417 194.242 77.3187 189.458 81.315 186.839C83.7127 185.268 86.875 185.338 89.099 187.119C91.879 189.318 94.9717 193.299 94.9717 199.968C94.9717 201.574 95.7015 203.075 96.9872 204.018L100.705 206.707" fill="#F8BA7F"/>
<path d="M182.889 237.782C182.889 237.782 199.222 230.45 203.878 227.831C208.535 225.212 209.89 244.207 209.89 244.207C209.89 244.207 199.882 261.316 185.079 250.736C170.24 240.122 182.889 237.782 182.889 237.782Z" fill="#E55C26"/>
<path d="M181.117 202.378C181.117 202.378 172.985 206.533 172.951 207.894C172.916 209.256 171.63 221.442 181.812 223.851C181.812 223.851 186.851 271.129 190.986 280.207C191.368 281.045 191.716 281.534 192.063 281.673C196.303 283.21 242.451 286.213 257.775 268.161L265.976 257.895L252.181 238.272L236.126 270.605C234.597 272.42 232.825 273.503 231.192 271.792C223.06 263.168 204.295 239.075 197.345 221.687C197.345 221.687 210.55 205.904 204.955 197.315H196.198C196.233 197.28 189.804 227.483 181.117 202.378Z" fill="#F0E2E8"/>
<path d="M181.117 238.341L203.878 227.832L212.461 239.494C212.461 239.494 204.99 261.317 185.078 250.702C165.167 240.087 181.117 238.341 181.117 238.341Z" fill="#E55C26"/>
<path d="M183.897 197.001C183.897 197.001 97.6476 204.158 103.833 149.374C103.833 149.374 102.964 148.501 112.312 127.516C112.59 126.923 112.833 126.329 113.111 125.701C113.111 125.701 113.111 77.5856 119.714 77.0967C120.583 77.0269 121.417 76.8872 122.181 76.4682C123.814 75.4906 126.768 74.7922 129.374 79.2616C130.73 81.601 133.336 82.9278 135.977 82.5786C142.44 81.7756 153.317 81.2169 155.889 86.1401C155.889 86.1401 176.322 79.925 178.824 87.3971C178.824 87.3971 227.474 71.8243 230.254 77.4459C233.034 83.0326 239.254 144.695 239.254 144.695L253.467 141.308C258.818 140.017 264.552 142.321 267.228 147.174C270.008 152.168 272.753 161.805 258.922 171.162C258.922 171.162 232.13 169.591 226.257 182.999C226.223 182.999 206.311 195.464 183.897 197.001Z" fill="url(#paint0_linear_487_174)"/>
<path d="M117.698 86.7686C121.173 85.6512 127.15 84.8482 132.954 89.3175C133.301 89.5968 133.753 89.7016 134.17 89.6317C136.95 89.1429 147.444 87.432 150.85 90.2602C151.997 91.203 153.317 91.9013 154.811 92.1108C157.313 92.4251 160.962 92.7742 163.881 92.5647C165.792 92.4251 167.495 93.6122 168.155 95.393C169.337 98.4657 172.742 102.376 182.542 102.83C190.048 103.179 197.484 101.259 204.017 97.5927C213.261 92.3902 228.203 83.8007 227.995 82.9627C227.717 81.8104 207.596 129.192 227.995 130.345C229.628 130.449 231.088 131.497 231.574 133.068C233.659 139.667 238.837 157.859 246.273 151.015C254.891 143.089 239.984 85.7211 237.62 76.9221C237.447 76.2587 236.856 75.8047 236.161 75.8047L119.992 75.3857C119.332 75.3857 118.741 75.8047 118.532 76.4332L115.752 84.8831C115.37 86.0353 116.517 87.1527 117.698 86.7686Z" fill="#ED7D50"/>
<path d="M189.04 154.821C197.312 154.821 204.017 152.445 204.017 149.513C204.017 146.582 197.312 144.206 189.04 144.206C180.768 144.206 174.063 146.582 174.063 149.513C174.063 152.445 180.768 154.821 189.04 154.821Z" fill="#F2917C"/>
<path d="M174.028 122.837C174.028 122.837 188.275 102.306 204.816 122.907" stroke="#9B6251" stroke-width="1.1025" stroke-miterlimit="10"/>
<path d="M121.243 116.064C121.243 116.064 132.919 95.3231 145.811 115.645" stroke="#9B6251" stroke-width="1.1025" stroke-miterlimit="10"/>
<path d="M103.764 156.497C103.764 156.497 81.9753 117.634 112.451 124.548L103.764 156.497Z" fill="#EC7E4B"/>
<path d="M198.353 282.58C198.388 282.475 198.283 282.336 198.179 282.301C188.484 280.031 178.719 283.069 176.704 283.767C176.53 283.837 176.495 284.047 176.599 284.151C181.951 289.738 194.6 292.147 197.693 292.671C197.901 292.706 198.005 292.496 197.936 292.322C197.137 290.471 198.144 283.837 198.353 282.58Z" fill="#CDCFC9"/>
<path d="M162.352 238.237C162.352 238.237 115.578 245.709 100.705 223.921L113.424 206.672C113.424 206.672 153.908 216.379 171.144 207.091C171.109 207.091 164.819 240.122 162.352 238.237Z" fill="#ECDAC9"/>
<path d="M198.944 304.473C198.944 304.473 174.341 304.682 171.109 277.692C171.109 277.692 177.99 290.332 197.797 292.776L198.944 304.473Z" fill="#E55C26"/>
<path d="M183.897 282.092C186.225 281.673 189.005 281.463 191.993 281.708C191.993 281.708 182.958 250.038 182.576 224.479C182.576 223.502 181.951 222.594 181.012 222.28C178.232 221.302 172.464 220.464 172.985 206.777C172.985 206.777 164.298 202.098 165.132 251.924C165.132 251.924 166.313 270.36 171.213 277.657C175.452 283.977 176.947 284.082 176.947 284.082C176.947 284.082 179.727 282.825 183.897 282.092Z" fill="#0C717A"/>
<path d="M204.643 197.28C204.643 197.28 207.701 206.079 198.006 215.855C196.789 217.077 196.65 220.848 197.415 222.42C202.037 231.777 217.605 260.584 230.914 272.281C232.13 273.328 233.902 273.328 235.119 272.316C240.123 268.091 253.015 257.022 258.019 250.877C259.444 249.096 259.548 246.547 258.262 244.662L239.949 217.461C239.184 216.344 237.829 215.89 236.613 216.344C230.497 218.579 212.809 223.991 213.574 211.665L213.261 196.302L204.643 197.28Z" fill="#097181"/>
<path d="M230.844 232.685L249.575 250.562L244.466 255.695L225.18 237.783L230.844 232.685Z" fill="#DFE7E8"/>
<path d="M230.08 236.91L244.744 250.702" stroke="#545656" stroke-width="1.1025" stroke-miterlimit="10"/>
<path d="M233.659 219.417L256.073 251.47" stroke="#07565E" stroke-width="1.1025" stroke-miterlimit="10"/>
<path d="M178.302 220.045C178.302 220.639 177.92 228.879 178.233 239.983C178.615 253.949 180.179 274.48 185.322 282.686" stroke="#07565E" stroke-width="1.1025" stroke-miterlimit="10"/>
<path d="M184.314 241.065L178.198 240.751" stroke="#07565E" stroke-width="1.1025" stroke-miterlimit="10"/>
<path d="M187.094 259.467H179.31" stroke="#07565E" stroke-width="1.1025" stroke-miterlimit="10"/>
<path d="M191.611 277.692H183.098H191.611Z" stroke="#07565E" stroke-width="1.1025" stroke-miterlimit="10"/>
<path d="M165.48 252.378L172.117 253.775C172.117 253.775 171.7 278.95 171.144 278.112C169.476 275.249 164.402 260.828 165.48 252.378Z" fill="#DFE7E8"/>
<path d="M207.284 231.393C207.667 231.393 207.979 231.081 207.979 230.695C207.979 230.309 207.667 229.997 207.284 229.997C206.9 229.997 206.589 230.309 206.589 230.695C206.589 231.081 206.9 231.393 207.284 231.393Z" fill="#07565E"/>
<path d="M218.439 248.398C218.822 248.398 219.134 248.085 219.134 247.699C219.134 247.314 218.822 247.001 218.439 247.001C218.055 247.001 217.744 247.314 217.744 247.699C217.744 248.085 218.055 248.398 218.439 248.398Z" fill="#07565E"/>
<path d="M231.609 267.078C231.992 267.078 232.304 266.765 232.304 266.379C232.304 265.994 231.992 265.681 231.609 265.681C231.225 265.681 230.914 265.994 230.914 266.379C230.914 266.765 231.225 267.078 231.609 267.078Z" fill="#07565E"/>
<path d="M100.706 223.921L94.798 215.227L102.235 204.926L113.389 206.707L100.706 223.921Z" fill="#0C717A"/>
<path d="M213.226 196.232C213.226 196.232 256.837 172.873 298.572 204.961L286.583 217.531C286.583 217.531 260.173 205.904 219.134 221.267C219.134 221.232 209.682 223.118 213.226 196.232Z" fill="#EEDAC8"/>
<path d="M298.572 204.926C298.572 204.926 305.661 205.241 306.356 212.084L295.583 221.756C295.583 221.756 287.521 221.651 286.583 217.496L298.572 204.926Z" fill="#097181"/>
<path d="M304.966 213.341C304.966 213.341 332.106 215.681 332.141 216.763C332.175 217.846 329.986 218.439 329.986 218.439C329.986 218.439 327.415 218.334 327.519 218.893C327.588 219.172 329.951 219.417 329.882 220.08C329.812 220.709 329.013 221.582 328.561 221.756C328.11 221.931 316.295 221.267 316.295 221.267C316.017 221.267 315.912 221.582 316.121 221.756C318.275 223.293 324.322 227.762 322.654 228.914C321.09 229.997 312.194 227.552 308.233 226.365C307.121 226.051 305.939 226.575 305.453 227.622L302.429 234.012C301.943 235.059 300.761 235.618 299.684 235.269C297.495 234.606 294.437 231.882 295.549 221.721" fill="#F7B881"/>
<path d="M184.14 198.083C184.14 198.083 185.113 204.018 181.117 202.342C181.117 202.342 188.484 225.562 195.469 200.352V196.232L184.14 198.083Z" fill="#F49E6D"/>
<path d="M113.355 127.097C113.424 127.097 113.459 127.027 113.459 126.957C113.389 124.338 112.104 78.3529 122.494 77.8292C121.834 77.48 126.594 76.0833 129.896 81.4256C131.042 83.3111 133.197 84.3586 135.386 84.0793C141.224 83.2762 158.947 90.0849 161.414 90.3294C165.862 90.7833 172.117 90.5039 176.113 86.5933C176.217 86.4885 176.391 86.5933 176.356 86.7329C175.453 89.631 172.916 101.223 192.758 96.8588C192.758 96.8588 220.663 90.2246 230.115 79.3306C230.219 79.2258 230.427 79.2957 230.358 79.4703C228.69 85.5458 216.771 131.322 235.327 129.89C235.431 129.89 235.501 129.96 235.501 130.03C235.327 132.788 233.381 169.066 255.482 142.46C255.517 142.425 255.552 142.39 255.621 142.39L260.486 142.914C260.556 142.914 260.59 142.879 260.625 142.844C261.876 140.574 287.383 92.983 257.22 72.9059C257.185 72.871 257.185 72.871 257.15 72.8361C256.976 72.1727 255.343 64.3863 269.486 54.0509C269.591 53.9811 269.556 53.8414 269.452 53.8065C268.201 53.2828 262.085 51.2925 255.517 59.8122C255.447 59.9169 255.274 59.882 255.239 59.7423C255.1 57.0538 254.196 41.5857 252.772 43.0173C251.208 44.5885 250.617 59.2186 250.617 59.2186C261.529 53.3177 187.963 -28.527 102.93 72.7663C101.227 74.7914 100.462 77.5498 101.157 80.1337C101.54 81.5653 102.304 82.8223 103.798 83.0667C105.501 83.3809 106.683 84.9522 106.578 86.6631C105.779 98.1158 103.242 129.611 113.355 127.097Z" fill="url(#paint1_radial_487_174)"/>
<path d="M175.661 61.2097C175.661 61.2097 191.16 73.0465 156.132 87.2575" stroke="#804220" stroke-width="1.1025" stroke-miterlimit="10"/>
<path d="M209.612 63.4436C209.612 63.4436 186.225 74.5122 177.851 88.0249" stroke="#804220" stroke-width="1.1025" stroke-miterlimit="10"/>
<path d="M146.228 65.5037C146.228 65.5037 119.888 70.4967 113.389 80.448" stroke="#804220" stroke-width="1.1025" stroke-miterlimit="10"/>
<path d="M120.513 103.772C120.513 103.772 134.135 90.8882 143.031 103.772C143.031 103.772 116.725 106.566 120.513 103.772Z" fill="#ED6B2E"/>
<path d="M181.117 107.509C181.117 107.509 195.087 92.9835 207.075 113.724C207.075 113.724 202.836 111.839 197.797 111.245C189.7 110.267 179.518 110.058 181.117 107.509Z" fill="#ED6B2E"/>
<path d="M144.073 161.525C144.073 161.525 168.398 177.656 185.044 156.497C185.044 156.497 193.662 170.708 167.634 177.866C167.599 177.866 142.405 177.691 144.073 161.525Z" fill="#E2411E"/>
<path d="M150.572 164.737C150.572 164.737 169.858 169.591 176.912 163.306C176.912 165.436 175.766 167.391 173.889 168.438C168.468 171.511 156.966 174.13 150.572 164.737Z" fill="white"/>
<path d="M160.997 119.276C160.997 119.276 161.101 140.4 146.297 139.527C143.656 139.388 141.502 141.622 141.849 144.241C142.127 146.476 143.483 149.025 147.409 151.085C149.46 152.167 151.857 152.446 154.116 151.818C160.197 150.142 171.005 143.752 160.997 119.276Z" fill="#EF7C54"/>
<path d="M133.544 140.889C139.839 140.889 144.942 133.745 144.942 124.932C144.942 116.119 139.839 108.975 133.544 108.975C127.249 108.975 122.146 116.119 122.146 124.932C122.146 133.745 127.249 140.889 133.544 140.889Z" fill="white"/>
<path d="M145.012 126.957C144.004 134.185 139.417 139.492 134.761 138.864C130.104 138.235 127.15 131.811 128.158 124.583C129.166 117.355 133.753 112.048 138.409 112.676C143.066 113.34 146.02 119.729 145.012 126.957Z" fill="url(#paint2_linear_487_174)"/>
<path d="M131.181 122.523C132.486 122.523 133.544 121.46 133.544 120.149C133.544 118.837 132.486 117.774 131.181 117.774C129.876 117.774 128.818 118.837 128.818 120.149C128.818 121.46 129.876 122.523 131.181 122.523Z" fill="#F9FCFF"/>
<path d="M201.828 135.267C199.604 143.612 191.785 148.78 184.314 146.79C180.596 145.812 176.565 144.904 174.827 141.517C173.125 138.13 173.715 132.264 174.793 128.074C177.017 119.729 184.835 114.562 192.307 116.552C199.778 118.542 204.052 126.887 201.828 135.267Z" fill="white"/>
<path d="M201.585 136.106C199.291 143.508 193.106 148.187 187.789 146.511C182.472 144.835 180.005 137.502 182.298 130.065C184.592 122.628 190.777 117.984 196.094 119.66C201.446 121.336 203.878 128.703 201.585 136.106Z" fill="url(#paint3_linear_487_174)"/>
<path d="M187.72 126.399C188.067 127.656 187.303 128.948 186.052 129.297C184.801 129.646 183.515 128.878 183.167 127.621C182.82 126.364 183.584 125.072 184.835 124.723C186.086 124.374 187.407 125.107 187.72 126.399Z" fill="#F9FCFF"/>
<path d="M125.795 154.821C132.647 154.821 138.201 152.445 138.201 149.513C138.201 146.582 132.647 144.206 125.795 144.206C118.944 144.206 113.389 146.582 113.389 149.513C113.389 152.445 118.944 154.821 125.795 154.821Z" fill="#F2917C"/>
<path d="M250.304 152.621C253.015 154.507 261.598 161.455 247.594 164.807C247.107 164.912 247.003 165.575 247.455 165.82C249.714 166.937 255.204 168.054 262.641 158.732C262.71 158.662 262.745 158.557 262.745 158.452C262.919 156.916 263.926 144.555 250.339 151.713C249.992 151.888 249.957 152.412 250.304 152.621Z" fill="#EE8453"/>
<path d="M186.99 281.708L184.974 281.952L183.341 282.197L183.584 284.327L187.268 283.873L186.99 281.708Z" fill="#CDCFC9"/>
<path d="M193.679 280.7C195.07 280.532 195.971 278.488 195.69 276.132C195.409 273.777 194.054 272.004 192.663 272.171C191.272 272.339 190.372 274.384 190.652 276.739C190.933 279.094 192.288 280.867 193.679 280.7Z" fill="#F0E2E8"/>
<path d="M189.576 263.242C190.967 263.074 191.867 261.03 191.587 258.674C191.306 256.319 189.951 254.546 188.56 254.713C187.169 254.881 186.269 256.926 186.549 259.281C186.83 261.636 188.185 263.409 189.576 263.242Z" fill="#F0E2E8"/>
<path d="M185.738 243.253C186.621 243.066 187.132 241.936 186.879 240.729C186.627 239.521 185.706 238.693 184.824 238.879C183.941 239.066 183.43 240.196 183.683 241.404C183.935 242.611 184.856 243.439 185.738 243.253Z" fill="#E55C26"/>
<path d="M181.171 220.294C181.392 219.435 180.457 218.449 179.082 218.092C177.707 217.734 176.413 218.141 176.192 218.999C175.971 219.858 176.906 220.844 178.281 221.201C179.656 221.559 180.95 221.153 181.171 220.294Z" fill="#F0E2E8"/>
<path d="M246.482 396.723C244.084 401.192 242.103 404.789 241.547 405.766C241.478 405.871 241.408 405.976 241.339 406.08C239.566 408.525 235.709 407.547 235.084 404.614L233.555 396.094C236.682 394.383 241.79 392.847 246.482 396.723Z" fill="#E3DBC7"/>
<path d="M253.675 383.384C251.381 387.644 248.775 392.533 246.516 396.688C241.825 392.812 236.717 394.348 233.589 396.024L231.018 378.81C243.458 378.775 246.134 374.097 246.864 370.849C247.246 375.912 248.984 380.801 253.675 383.384Z" fill="#ED687A"/>
<path d="M257.671 375.913C256.664 377.798 255.239 380.452 253.675 383.385C249.019 380.801 247.246 375.878 246.864 370.885C247.177 369.418 247.038 368.336 247.038 368.336L251.59 366.625C253.64 367.253 255.135 368.091 256.247 368.964C258.332 370.605 258.922 373.573 257.671 375.913Z" fill="#E3DBC7"/>
<path d="M233.691 384.335L231.87 384.607L232.943 391.86L234.765 391.588L233.691 384.335Z" fill="#E3DBC7"/>
<path d="M331.341 314.25C332.975 319.348 334.26 323.433 334.573 324.585C334.608 324.725 334.643 324.864 334.677 324.969C335.233 328.077 331.585 330.311 328.839 328.635L321.125 323.573C322.167 320.011 324.808 314.983 331.341 314.25Z" fill="#E3DBC7"/>
<path d="M326.858 299.62C328.422 304.473 330.229 310.06 331.758 314.773C325.225 315.507 322.584 320.5 321.542 324.096L306.356 313.97C315.669 304.508 314.07 298.537 312.124 295.639C316.26 299.026 321.368 301.296 326.858 299.62Z" fill="#ED687A"/>
<path d="M324.148 291.379C324.843 293.509 325.816 296.512 326.893 299.864C321.403 301.505 316.294 299.235 312.124 295.883C311.221 294.557 310.283 293.893 310.283 293.893C310.283 293.893 310.595 291.065 312.402 289.179C314.209 287.294 316.225 287.573 317.719 287.364C320.569 286.98 323.279 288.691 324.148 291.379Z" fill="#E3DBC7"/>
<path d="M318.206 319.697L317.059 321.303L310.665 316.833L311.847 315.227L318.206 319.697Z" fill="#E3DBC7"/>
<defs>
<linearGradient id="paint0_linear_487_174" x1="186.476" y1="197.316" x2="186.476" y2="75.7485" gradientUnits="userSpaceOnUse">
<stop stop-color="#F39462"/>
<stop offset="0.1793" stop-color="#F49B69"/>
<stop offset="0.6232" stop-color="#F5A775"/>
<stop offset="1" stop-color="#F6AB7A"/>
</linearGradient>
<radialGradient id="paint1_radial_487_174" cx="0" cy="0" r="1" gradientUnits="userSpaceOnUse" gradientTransform="translate(186.476 87.2663) scale(75.7429 76.1062)">
<stop stop-color="#9F5029"/>
<stop offset="1" stop-color="#732E10"/>
</radialGradient>
<linearGradient id="paint2_linear_487_174" x1="136.564" y1="138.89" x2="136.564" y2="112.62" gradientUnits="userSpaceOnUse">
<stop stop-color="#0C597C"/>
<stop offset="0.353" stop-color="#0E6793"/>
<stop offset="0.7031" stop-color="#1171A3"/>
<stop offset="1" stop-color="#1275A9"/>
</linearGradient>
<linearGradient id="paint3_linear_487_174" x1="191.949" y1="146.852" x2="191.949" y2="119.347" gradientUnits="userSpaceOnUse">
<stop stop-color="#0C597C"/>
<stop offset="0.353" stop-color="#0E6793"/>
<stop offset="0.7031" stop-color="#1171A3"/>
<stop offset="1" stop-color="#1275A9"/>
</linearGradient>
</defs>
</svg>
