<svg width="317" height="94" viewBox="0 0 317 94" fill="none" xmlns="http://www.w3.org/2000/svg">
<path d="M80.5338 2.22759C56.1868 5.62484 47.8589 25.7017 46.7383 35.3155L50.631 90.1669L180.505 91.0516C197.067 48.0197 168.178 32.7792 151.664 30.538C147.276 9.58825 128.013 10.1309 118.93 13.021C110.012 1.27212 89.6168 0.930026 80.5338 2.22759Z" fill="#AEDB81" stroke="#333333" stroke-width="3"/>
<path d="M122.326 43.8365L129.326 63.2208M138.936 89.8325L129.326 63.2208M129.326 63.2208L144.302 51.247" stroke="#333333" stroke-width="3" stroke-linecap="round"/>
<path d="M166.022 69.3899L157.079 90.3437" stroke="#333333" stroke-width="3" stroke-linecap="round"/>
<path d="M103.161 28.5045C102.52 29.8459 100.865 33.9367 98.6624 39.5321M98.6624 39.5321C93.1452 53.55 84.1939 77.0114 79.141 90.3436L98.6624 39.5321ZM98.6624 39.5321L85.2738 28.5045" stroke="#333333" stroke-width="3" stroke-linecap="round"/>
<path d="M27.5903 38.6967C-2.27724 49.8794 0.0465212 77.9184 4.94184 90.5401H109.691C112.663 51.7548 83.2085 47.1308 68.1096 49.667C59.1918 33.1053 37.381 35.4528 27.5903 38.6967Z" fill="#95CC81" stroke="#333333" stroke-width="3"/>
<path d="M45.3641 87.4011L41.537 76.2675M35.9555 60.0302L41.537 76.2675M41.537 76.2675L24.8359 71.7911" stroke="#333333" stroke-width="3" stroke-linecap="round"/>
<path d="M62.6549 90.5402L66.4821 79.4065L72.0636 63.1692" stroke="#333333" stroke-width="3" stroke-linecap="round"/>
<path d="M235.367 24.7079C216.922 27.2816 210.613 42.4919 209.764 49.7753L212.713 91.3308L311.106 92.0011C323.653 59.4001 301.767 47.8539 289.256 46.1559C285.931 30.2843 271.337 30.6955 264.456 32.885C257.7 23.984 242.249 23.7248 235.367 24.7079Z" fill="#AEDB81" stroke="#333333" stroke-width="3"/>
<path d="M267.029 56.231L272.332 70.9165M279.613 91.0776L272.332 70.9165M272.332 70.9165L283.678 61.8451" stroke="#333333" stroke-width="3" stroke-linecap="round"/>
<path d="M300.133 75.5901L293.358 91.4648" stroke="#333333" stroke-width="3" stroke-linecap="round"/>
<path d="M252.51 44.6154C252.024 45.6316 250.77 48.7308 249.101 52.9699M249.101 52.9699C244.922 63.5899 238.14 81.3643 234.312 91.4648L249.101 52.9699ZM249.101 52.9699L238.958 44.6154" stroke="#333333" stroke-width="3" stroke-linecap="round"/>
<path d="M187.345 34.5572C171.747 36.7337 166.411 49.5965 165.693 55.7559L168.187 90.898L251.395 91.4648C262.006 63.8952 243.497 54.131 232.917 52.695C230.106 39.273 217.764 39.6207 211.945 41.4723C206.232 33.945 193.165 33.7258 187.345 34.5572Z" fill="#AEDB81" stroke="#333333" stroke-width="3"/>
<path d="M214.121 61.2152L218.606 73.6343M224.762 90.6838L218.606 73.6343M218.606 73.6343L228.2 65.9629" stroke="#333333" stroke-width="3" stroke-linecap="round"/>
<path d="M242.116 77.5867L236.386 91.0114" stroke="#333333" stroke-width="3" stroke-linecap="round"/>
<path d="M201.842 51.3923C201.431 52.2517 200.371 54.8726 198.96 58.4575M198.96 58.4575C195.425 67.4384 189.69 82.4697 186.453 91.0114L198.96 58.4575ZM198.96 58.4575L190.382 51.3923" stroke="#333333" stroke-width="3" stroke-linecap="round"/>
<path d="M149.71 57.7962C130.574 64.9607 132.063 82.9247 135.199 91.0111H202.31C204.214 66.1622 185.343 63.1997 175.669 64.8246C169.956 54.2139 155.982 55.7178 149.71 57.7962Z" fill="#95CC81" stroke="#333333" stroke-width="3"/>
<path d="M161.097 89L158.645 81.8669M155.069 71.464L158.645 81.8669M158.645 81.8669L147.945 78.999" stroke="#333333" stroke-width="3" stroke-linecap="round"/>
<path d="M172.175 91.0111L174.627 83.878L178.203 73.4751" stroke="#333333" stroke-width="3" stroke-linecap="round"/>
</svg>
