<svg width="561" height="447" viewBox="0 0 561 447" fill="none" xmlns="http://www.w3.org/2000/svg">
<path d="M194.705 26.109C150.575 23.8459 115.132 56.4984 91.4479 87.0669C66.5605 119.189 47.913 157.646 38.1478 183.503C27.298 212.039 24.534 237.872 29.1281 260.863C33.7539 284.012 45.4475 302.287 60.1285 316.138C88.3093 342.726 127.73 353.455 154.863 356.006C255.498 371.07 310.775 377.867 346.728 378.867C384.953 379.93 402.578 374.399 426.604 366.728C426.605 366.727 426.605 366.727 426.606 366.727L427.773 366.354C447.168 360.164 459.644 346.492 467.242 331.962C474.613 317.868 477.938 302.097 479.472 288.461C482.323 263.126 479.259 232.851 479.259 235.833C479.259 230.751 477.794 226.375 477.227 224.707C476.396 222.266 475.344 219.761 474.247 217.377C472.031 212.558 469.022 206.907 465.479 200.901C458.385 188.875 448.455 174.243 436.815 160.438C430.962 153.496 421.603 145.204 411.771 137.097C401.525 128.65 389.32 119.24 376.753 109.867C352.608 91.8586 326.485 73.5085 308.944 61.5212C300.925 53.6994 288.11 46.3066 272.029 40.4026C253.187 33.4848 227.704 27.8012 194.705 26.109Z" fill="#ECE3E4" stroke="white" stroke-width="50"/>
<path d="M73.5993 304.765L93.4843 273.13L418.043 273.451L434.205 304.765H73.5993Z" fill="#FCCE69"/>
<path d="M73.5993 312.53V304.765H434.469V312.53H73.5993Z" fill="#F59B40"/>
<rect x="271.914" y="233.829" width="64.4423" height="34.7736" rx="8" fill="#AC5C4C"/>
<path d="M255.408 300.783L214.154 282.031L217.748 280.312L297.72 284.752L303.644 287.21L255.408 300.783Z" fill="#3490B7"/>
<path d="M219.435 281.83V279.606L255.323 295.223L296.936 284.692V286.638L255.323 297.384L219.435 281.83Z" fill="#D6CEBA"/>
<path d="M245.501 272.821C249.923 268.323 264.371 274.695 271.042 278.444C282.818 277.762 292.52 281.532 297.007 284.669C283.709 288 255.824 295.148 255.366 295.224C254.908 295.3 231.817 284.989 219.491 279.684L245.501 272.821Z" fill="white"/>
<path d="M227.526 280.567C228.608 280.447 229.928 279.966 230.934 280.693C231.148 280.847 231.197 281.146 231.414 281.325C231.807 281.65 232.344 281.742 232.835 281.809C233.196 281.859 233.563 281.838 233.92 281.912C234.283 281.988 234.635 282.08 235.005 282.128C235.091 282.139 235.578 282.12 235.66 282.253C235.746 282.395 235.636 282.631 235.691 282.787C235.759 282.981 235.998 283.212 236.175 283.307C236.776 283.627 237.303 283.582 237.498 284.36C237.69 285.131 237.793 285.694 238.704 285.849C239.23 285.939 239.374 285.919 239.228 285.41" stroke="#EEEDEC" stroke-width="0.5" stroke-linecap="round"/>
<path d="M236.484 278.63C237.331 278.698 238.491 278.523 239.291 278.837C240.112 279.159 240.9 279.682 241.596 280.218C241.819 280.39 242.015 280.636 242.277 280.747C242.523 280.851 242.804 281.147 243.021 281.312C243.471 281.652 243.645 281.697 244.232 281.697C244.708 281.697 245.206 281.654 245.68 281.702C246.052 281.739 246.067 282.022 246.33 282.172C246.883 282.489 247.167 282.984 247.783 283.231" stroke="#EEEDEC" stroke-width="0.5" stroke-linecap="round"/>
<path d="M242.214 276.774C242.658 276.794 243.009 276.883 243.416 277.052C243.951 277.275 244.524 277.319 245.07 277.501C245.47 277.634 245.775 277.925 246.07 278.209C246.535 278.656 246.862 279.438 247.541 279.536C248.079 279.614 248.606 279.68 249.15 279.68C249.511 279.68 249.724 279.839 250.043 280.002C250.6 280.289 250.624 281.235 251.334 280.81" stroke="#EEEDEC" stroke-width="0.5" stroke-linecap="round"/>
<path d="M247.622 275.564C248.658 275.564 249.533 275.77 250.509 276.084C251.144 276.288 251.511 276.711 252.06 277.016C252.628 277.332 252.641 278.341 253.392 277.819C253.854 277.497 254.21 277.42 254.773 277.42C255.302 277.42 255.526 277.501 255.889 277.864C256.403 278.378 257.024 278.388 257.709 278.388" stroke="#EEEDEC" stroke-width="0.5" stroke-linecap="round"/>
<path d="M252.868 273.385C254.496 273.385 256.036 273.439 257.459 274.308C257.709 274.462 257.798 274.696 257.97 274.918C258.2 275.216 258.525 275.334 258.795 275.564C259.568 276.22 260.411 276.209 261.418 276.209C261.78 276.209 263.706 276.015 263.843 276.29" stroke="#EEEDEC" stroke-width="0.5" stroke-linecap="round"/>
<path d="M247.864 288.718C247.841 288.399 247.609 287.726 247.936 287.49C248.616 286.999 250.405 287.021 251.16 287.36C252.22 287.835 252.788 288.878 253.675 289.543C254.506 290.167 255.398 290.423 256.414 290.61C256.8 290.682 257.199 290.655 257.589 290.655C257.92 290.655 257.919 290.471 257.952 290.171" stroke="#EEEDEC" stroke-width="0.5" stroke-linecap="round"/>
<path d="M255.208 286.055C256.38 285.965 258.151 285.28 259.243 286.055C259.848 286.484 259.82 287.344 260.494 287.701C260.85 287.889 261.51 287.785 261.906 287.876C262.59 288.033 263.236 288.047 263.928 288.113C264.368 288.155 265.476 288.609 265.78 288.154" stroke="#EEEDEC" stroke-width="0.5" stroke-linecap="round"/>
<path d="M262.552 284.118C263.177 283.988 263.831 283.979 264.467 283.961C265.344 283.937 265.85 284.32 266.525 284.885C267.018 285.298 267.441 285.782 268.04 286.037C268.677 286.309 269.328 286.587 269.977 286.826C270.16 286.894 270.991 287.245 271.223 287.055C271.47 286.854 271.662 286.567 271.914 286.378" stroke="#EEEDEC" stroke-width="0.5" stroke-linecap="round"/>
<path d="M269.169 283.069C269.432 282.304 271.077 282.678 271.608 282.863C272.21 283.073 272.768 283.458 273.33 283.755C273.772 283.989 274.129 284.339 274.567 284.558C275.557 285.053 276.719 285.48 277.804 285.715C278.181 285.796 278.375 285.706 278.45 285.329" stroke="#EEEDEC" stroke-width="0.5" stroke-linecap="round"/>
<path d="M275.303 280.567C275.461 280.147 277.734 280.774 278.047 280.89C278.775 281.16 279.428 281.493 280.082 281.908C281.049 282.52 282.212 282.67 283.302 282.912C284.421 283.161 285.543 283.15 286.682 283.15" stroke="#EEEDEC" stroke-width="0.5" stroke-linecap="round"/>
<path fill-rule="evenodd" clip-rule="evenodd" d="M269.812 257.356L254.928 266.38C252.389 264.7 246.092 262.677 241.217 268.021C240.005 269.388 237.701 272.709 238.169 275.053C238.638 277.396 245.943 277.904 249.537 277.865L254.928 272.709L280.126 264.974L269.812 257.356ZM245.29 274.514C247.218 274.514 248.781 273.415 248.781 272.06C248.781 270.704 247.218 269.605 245.29 269.605C243.362 269.605 241.799 270.704 241.799 272.06C241.799 273.415 243.362 274.514 245.29 274.514Z" fill="#FCC09A"/>
<path d="M292.616 240.842V238.968C300.917 240.258 306.159 237.732 307.743 236.308L307.394 241.583C306.871 242.876 304.804 245.445 300.724 245.376C296.644 245.306 293.619 242.324 292.616 240.842Z" fill="#FCC1A6"/>
<path d="M273.656 211.483C275.693 209.445 277.901 192.954 278.75 184.963V181.817H325.348C328.494 190.906 334.787 209.146 334.787 209.385V218.825C332.39 231.111 321.003 228.714 318.455 229.762C312.013 237.254 296.73 236.655 287.44 233.658C278.151 230.661 271.109 214.03 273.656 211.483Z" fill="#FFC0A1"/>
<path d="M283.697 221.679C282.6 217.146 284.154 215.587 285.068 215.374L299.165 216.942C300.725 216.987 301.821 218.224 302.174 218.837C302.709 220.799 300.911 223.667 299.945 224.856C297.805 227.175 293.48 227.903 291.585 227.977C286.101 226.729 284.041 223.258 283.697 221.679Z" fill="#701205"/>
<path d="M293.039 219.291C288.025 219.047 285.698 216.578 285.161 215.374L299.39 216.955C298.694 218.905 294.896 219.276 293.039 219.291Z" fill="white"/>
<path d="M320.625 223.071L325.891 215.367C328.224 215.785 328.691 217.834 328.633 218.806C328.72 220.489 328.102 224.055 324.933 224.855C321.765 225.656 320.741 223.999 320.625 223.071Z" fill="#E1936E"/>
<path d="M174.542 139.504L174.684 134.964C185.746 145.004 195.975 146.611 199.443 146.708L199.574 149.547C189.27 153.331 178.592 144.428 174.542 139.504Z" fill="#DC946C"/>
<path d="M174.579 148.01V139.826C183.671 151.238 194.804 151.077 199.521 149.637L203.616 151.529C203.707 162.259 192.063 164.017 186.57 163.865C173.886 164.229 169.919 154.962 169.521 150.283L174.579 148.01Z" fill="#FEC2A4"/>
<path d="M137.76 161.808L169.141 150.115C171.522 163.599 182.188 164.935 187.223 163.917C200.268 163.321 203.91 154.945 204.1 150.831C212.5 153.599 225.736 159.939 231.304 162.763C234.549 170.208 242.44 194.262 245.98 205.359C242.066 208.986 229.633 213.472 223.906 215.262L224.861 273.13H146.709L145.754 214.427C139.263 215.668 126.266 212.398 120.579 210.609C121.151 203.641 124.795 187.183 126.545 179.825C128.263 167.13 134.738 162.524 137.76 161.808Z" fill="#172856"/>
<path d="M242.778 245.986C233.777 241.268 226.676 224.876 224.251 217.27V215.567L244.951 207.031L251.314 226.509L273.144 251.375C273.144 251.375 290.08 273.25 282.814 274.023C275.548 274.796 242.778 245.986 242.778 245.986Z" fill="#FDBF9A"/>
<path d="M282.011 239.137L289.981 237.848C289.981 246.314 298.273 248.044 302.42 247.852C310.711 246.308 311.098 241.399 310.255 239.137C313.162 239.137 320.608 241.95 323.967 243.356C325.936 243.263 330.413 256.521 332.406 263.163L319.397 267.968L320.803 272.304H278.964L280.136 264.217H276.151L266.776 254.256L282.011 239.137Z" fill="#FEAA00"/>
<path d="M292.153 237.509L289.968 237.82C289.892 245.768 297.002 247.599 300.678 247.773C309.676 248.017 311.024 241.888 310.574 238.793H307.83C308.144 243.71 303.601 245.376 300.678 245.768C292.448 243.989 291.514 239.572 292.153 237.509Z" fill="#D15609"/>
<path d="M173.043 132.644C169.03 131.262 164.088 125.38 162.119 122.612L167.469 123.448L173.043 132.644Z" fill="#86220F"/>
<path d="M134.766 285.756V275.11L165.136 283.739V295.058L134.766 285.756Z" fill="#316E63"/>
<path d="M195.197 290.287L165.142 295.06V284.028L195.197 280.047V290.287Z" fill="#E9CFC7"/>
<path d="M165.357 284.019C164.208 284.134 144.259 278.047 134.74 275.129L164.761 269.418L195.492 279.895C185.399 281.426 166.505 283.904 165.357 284.019Z" fill="#52869E"/>
<rect x="141.531" y="279.682" width="17.214" height="6.66456" rx="3.33228" transform="rotate(14.6596 141.531 279.682)" fill="#92C1C1"/>
<path d="M158.044 282.131L159.81 282.627L159.755 293.41L158.044 292.882V282.131Z" fill="#A5BA7F"/>
<path d="M160.853 282.934L162.519 283.386V294.251L160.808 293.729L160.853 282.934Z" fill="#A5BA7F"/>
<path d="M137.502 276.1L139.13 276.683V287.106L137.502 286.596V276.1Z" fill="#A5BA7F"/>
<path d="M191.764 278.917L170.846 282.003L170.845 271.322L191.764 268.118V278.917Z" fill="#E6D6C3"/>
<path d="M135.831 271.337C135.9 268.816 138.428 268.186 139.682 268.186L170.839 271.337V282.102C159.607 280.526 137.203 276.673 135.831 276.524C135.275 276.464 135.745 274.48 135.831 271.337Z" fill="#DB2C39"/>
<path d="M172.325 276.689V271.097L175.992 270.54V275.925L174.165 275.225L172.325 276.689Z" fill="#DD4D43"/>
<path d="M166.651 289.447V283.855L170.41 283.368L170.318 288.683L168.491 287.983L166.651 289.447Z" fill="#DFB545"/>
<path d="M139.247 263.237C139.033 263.365 139.158 266.742 139.247 268.414L173.175 271.527V264.361C165.115 263.774 147.756 262.244 143.784 261.689C138.82 260.995 139.514 263.076 139.247 263.237Z" fill="#4CBA27"/>
<path d="M161.561 256.618L140.904 261.635L173.144 264.357L192.896 260.297L161.561 256.618Z" fill="#62C73F"/>
<g filter="url(#filter0_d_71_8871)">
<path d="M192.799 267.803V260.29L173.142 264.335V271.521L192.799 267.803Z" fill="#E6D6C3"/>
</g>
<path d="M165.593 263.757L167.305 263.902V270.988L165.593 270.851V263.757Z" fill="#83EA64"/>
<path d="M142.897 261.818L144.609 261.963V268.912L142.897 268.753V261.818Z" fill="#83EA64"/>
<path d="M168.393 263.991L170.059 264.126V271.253L168.393 271.083V263.991Z" fill="#83EA64"/>
<circle cx="147.818" cy="265.799" r="2.38766" fill="#A2ED8E"/>
<path d="M164.902 107.18C158.615 105.498 156.617 109.403 156.404 111.566C153.918 105.645 152.566 92.5286 152.201 86.7107C154.394 82.1051 159.755 76.3847 162.161 74.1002V69.3485C165.085 65.6202 169.228 64.2008 170.934 63.9571C168.375 65.7116 167.918 68.2824 168.01 69.3485C170.782 66.8203 178.336 61.9467 186.377 62.6778C194.418 63.4088 214.096 69.3181 222.929 72.1813C223.264 72.821 223.623 74.5572 222.381 76.3848C221.138 78.2124 222.899 81.167 223.934 82.4159C225.835 92.358 221.619 109.221 219.274 116.409V113.302C223.587 98.0236 219.243 87.99 216.532 84.8831C207.979 92.4128 190.428 86.3757 182.722 82.4159C175.85 82.4159 175.594 90.0309 176.325 93.8384C174.717 93.6922 173.279 96.2752 172.761 97.5849C171.592 97.7312 170.751 110.195 170.477 116.409C170.185 111.731 166.639 108.307 164.902 107.18Z" fill="#86220F"/>
<path d="M156.38 115.249C158.765 122.927 164.646 123.773 167.288 123.236L173.619 133.512C185.919 146.185 198.249 147.427 202.877 146.464C216.37 143.11 219.557 124.877 219.463 116.18C223.638 101.197 219.588 89.0029 217.041 84.7787C207.35 92.0841 189.646 86.0833 182.005 82.1697C175.52 83.2133 175.948 90.7423 176.973 94.3763C171.681 93.0345 170.544 108.912 170.637 117.019C169.295 109.565 165.232 107.08 163.369 106.769C160.045 106.397 153.995 107.571 156.38 115.249Z" fill="#FEC2A4"/>
<path d="M195.554 97.7186C188.185 93.2583 181.535 96.9106 179.131 99.2942C179.131 100.118 179.898 100.365 180.282 100.385C185.494 96.6278 191.251 98.87 194.039 99.2942C196.269 99.6336 195.978 98.3852 195.554 97.7186Z" fill="#3E0000"/>
<path d="M220.279 100.385C215.043 94.4219 210.017 97.4156 208.159 99.6578C209.129 99.076 212.199 99.4154 213.613 99.6578C217.7 99.9665 219.76 100.271 220.279 100.385Z" fill="#3E0000"/>
<path d="M161.071 115.717C161.943 119.838 165.313 120.626 166.889 120.505C167.81 116.578 165.01 112.647 163.495 111.172C162.324 110.97 160.199 111.596 161.071 115.717Z" fill="#DC946C"/>
<path d="M204.038 116.687C204.785 117.697 206.159 120.081 205.674 121.535C205.513 122.202 204.486 123.462 201.675 123.171" stroke="#D99A79"/>
<path d="M182.117 112.932C181.944 109.531 183.447 103.241 190.839 105.281" stroke="#8B725D"/>
<path d="M208.913 108.389C211.688 106.638 217.457 104.893 218.334 111.922" stroke="#8B725D"/>
<circle cx="188.55" cy="111.139" r="6.06151" fill="white"/>
<circle cx="189.212" cy="112.664" r="4.32327" fill="#7D2E1E"/>
<circle cx="187.133" cy="110.325" r="1.41851" fill="white"/>
<circle cx="213.091" cy="112.338" r="5.24312" fill="white"/>
<ellipse cx="213.862" cy="113.216" rx="3.41563" ry="4.36504" fill="#7D2E1E"/>
<circle cx="212.221" cy="110.634" r="1.06851" fill="white"/>
<path d="M289.388 212.265C289.905 211.721 291.2 210.657 292.245 210.755C293.552 210.877 294.694 212.714 294.654 213.244" stroke="#D99A79"/>
<path d="M280.251 189.024C281.807 187.934 285.875 186.406 289.705 189.024" stroke="#480000" stroke-width="1.5" stroke-linecap="round"/>
<path d="M306.066 191.299C309.52 191.117 316.817 191.844 318.368 196.207" stroke="#480000" stroke-width="1.5" stroke-linecap="round"/>
<path d="M278.137 201.354C278.468 200.228 279.933 197.963 283.105 197.578C284.349 197.427 285.146 197.756 285.805 198.262C287.146 199.128 287.938 201.138 287.938 202.267" stroke="#8B725D"/>
<ellipse cx="282.782" cy="204.147" rx="5.03983" ry="6.404" transform="rotate(8.48766 282.782 204.147)" fill="white"/>
<ellipse cx="306.689" cy="208.242" rx="6.66055" ry="6.45154" transform="rotate(8.48766 306.689 208.242)" fill="white"/>
<ellipse cx="281.5" cy="203.303" rx="3.54459" ry="4.74944" transform="rotate(8.48766 281.5 203.303)" fill="#7D2E1E"/>
<ellipse cx="305.197" cy="206.333" rx="4.14195" ry="4.11724" transform="rotate(8.48766 305.197 206.333)" fill="#7D2E1E"/>
<ellipse cx="284.13" cy="201.307" rx="1.17886" ry="1.2358" transform="rotate(8.48766 284.13 201.307)" fill="white"/>
<ellipse cx="308.349" cy="204.98" rx="1.14187" ry="1.19703" transform="rotate(8.48766 308.349 204.98)" fill="white"/>
<path d="M304.024 202.044C306.185 201.64 309.622 200.658 312.079 203.879C312.746 204.485 313.875 206.692 313.439 210.813" stroke="#8B725D"/>
<circle cx="277.294" cy="213.224" r="3.05077" fill="#FC8E8A"/>
<ellipse cx="310.452" cy="219.797" rx="4.95641" ry="2.94839" fill="#FC8E8A"/>
<path d="M292.438 189.77C307.818 192.247 320.135 185.806 324.371 182.276C321.686 201.2 322.182 209.932 322.766 211.932C325.921 214.782 330.018 214.901 331.672 214.604C328.481 211.629 328.985 210.226 329.636 209.896C336.762 212.034 336.168 218.251 334.98 221.093C340.477 218.141 344.565 204.68 345.922 198.318C348.671 183.151 340.536 178.596 336.125 178.215C324.674 161.801 295.537 165.618 290.702 165.364C286.834 165.16 285.443 161.971 285.231 160.402C279.466 163.557 281.896 170.029 283.832 172.871C275.79 176.332 274.798 196.112 275.307 205.57C276.63 202.211 278.064 190.07 278.615 184.42C285.842 187.145 295.837 185.555 299.932 184.42C299.765 186.135 294.866 188.701 292.438 189.77Z" fill="#BD040B"/>
<path d="M291.003 223.471C288.498 223.606 286.641 224.684 285.966 225.251C290.179 228.872 294.079 228.157 295.529 227.214C295.094 225.908 293.579 223.331 291.003 223.471Z" fill="#D36053"/>
<path d="M292.79 238.968V235.785C297.289 236.797 304.807 235.916 308.004 235.349C305.005 239.848 296.612 239.636 292.79 238.968Z" fill="#DD9B7D"/>
<path d="M235.802 278.859L254.068 259.108C254.424 258.723 255.017 258.678 255.427 259.006L255.787 259.294C256.238 259.654 256.291 260.319 255.904 260.747L237.756 280.772C237.351 281.219 236.646 281.208 236.254 280.749L235.775 280.187C235.446 279.801 235.458 279.231 235.802 278.859Z" fill="#D22842"/>
<g filter="url(#filter1_d_71_8871)">
<path d="M234.852 281.902L235.57 279.14L237.481 281.063L234.852 281.902Z" fill="#FCC19F"/>
</g>
<path d="M234.95 281.448L234.852 281.902L235.367 281.768L234.95 281.448Z" fill="#D22943"/>
<path d="M243.62 274.451C241.379 273.964 242.04 273.326 241.788 272.306C241.537 271.286 238.542 275.761 238.542 275.761C238.542 275.761 238.392 275.761 239.922 276.527C241.453 277.292 241.615 277.141 241.615 277.141C241.615 277.141 245.862 274.938 243.62 274.451Z" fill="#FCC09A"/>
<path d="M189.372 128.986C189.448 126.79 191.36 126.682 192.306 126.903C196.959 127.108 206.635 127.547 208.112 127.661C209.958 127.803 209.511 130.248 209.39 131.305C209.15 133.39 205.566 136.034 204.099 137.691H196.075C193.771 135.687 189.296 131.182 189.372 128.986Z" fill="#701205"/>
<path d="M191.71 126.824C193.854 128.684 199.898 131.3 208.295 127.633L191.71 126.824Z" fill="white"/>
<path d="M204.615 137.163C201.279 133.862 196.074 135.071 194.384 136.153L196.072 137.691H204.138L204.615 137.163Z" fill="#D36053"/>
<path d="M166.619 150.533C166.472 150.415 168.529 149.794 169.576 149.498C175.013 161.205 178.562 160.76 182.562 162.033C185.761 163.051 192.339 161.932 195.227 161.245C203.097 158.19 203.807 152.853 203.7 150.21L206.844 151.318C206.844 151.318 206.838 151.706 206.748 152.535C206.555 154.299 203.59 158.154 203.045 159.366C202.609 160.336 198.338 162.719 196.258 163.79C194.359 164.234 189.373 165.111 184.622 165.063C178.683 165.002 175.895 162.214 172.259 159.79C168.623 157.366 166.804 150.681 166.619 150.533Z" fill="#4F5D81"/>
<path d="M150.324 198.673L152.452 192.104C168.473 194.127 206.641 192.921 223.843 192.058V197.928C214.227 200.91 170.824 199.667 150.324 198.673Z" fill="#4F5D81"/>
<path d="M130.482 239.245C119.601 234.949 120.062 218.682 121.653 211.086C128.276 213.446 140.56 214.854 145.874 215.262C154.082 216.026 172.772 211.405 181.091 208.999C191.453 198.644 193.589 188.417 193.361 184.598C195.366 182.021 198.015 184.001 199.088 185.314C199.685 186.745 200.52 190.707 199.088 195.098C197.299 200.586 209.708 202.376 213.287 203.092C216.151 203.664 215.037 206.671 214.122 208.103C216.986 209.726 214.281 212.915 212.571 214.307C213.43 216.407 211.02 218.205 209.708 218.842C210.948 220.178 208.95 222.202 207.916 222.679L185.312 222.255C151.999 240.391 134.976 241.034 130.482 239.245Z" fill="#FEC2A4"/>
<path d="M214.281 207.974L204.773 207.637" stroke="#F0B18D" stroke-width="0.5"/>
<path d="M212.713 214.357L203.205 214.02" stroke="#F0B18D" stroke-width="0.5"/>
<path d="M209.846 218.903L200.338 218.566" stroke="#F0B18D" stroke-width="0.5"/>
<g filter="url(#filter2_d_71_8871)">
<path d="M401.152 247.78L337.009 252.117L332.853 295.301L398.623 290.422L401.152 247.78Z" fill="url(#paint0_linear_71_8871)"/>
<path d="M401.152 247.78L337.009 252.117L332.853 295.301L398.623 290.422L401.152 247.78Z" fill="#D6D6D6" fill-opacity="0.6"/>
<path d="M305.781 283.531L332.912 295.301L334.316 280.267L305.781 283.531Z" fill="#C5C5CD"/>
</g>
<path d="M314.047 284.565L332.967 292.488L334.234 281.551L314.047 284.565Z" fill="#99999D"/>
<g filter="url(#filter3_d_71_8871)">
<path d="M327.699 280.931C334.729 278.735 332.459 268.667 330.445 263.908L321.435 267.111L321.554 273.354C319.544 273.187 313.803 274.068 310.409 276.756C306.476 279.871 307.161 281.311 308.972 281.311C309.154 281.311 313.054 277.884 314.849 276.935C314.948 276.882 312.728 278.609 310.551 281.4C308.809 283.633 310.495 284.303 311.555 284.359C314.011 282.342 317.356 280.591 316.898 280.931C314.884 282.426 311.297 285.709 313.054 286.88C314.811 288.052 317.339 284.583 318.377 282.783C318.847 281.966 318.381 282.78 317.356 285.416C316.331 288.052 318.594 288.361 319.003 287.616C320.99 283.991 325.38 281.541 327.699 280.931Z" fill="#FCC09A"/>
</g>
<circle cx="367.351" cy="271.541" r="8.03279" fill="#EFEFEF"/>
<ellipse cx="116.301" cy="263.428" rx="8.49516" ry="1.60352" fill="#6CC4B4"/>
<path d="M112.061 228.849C112.178 241.209 112.429 266.082 112.5 266.686H117.225V228.849H112.061Z" fill="url(#paint1_linear_71_8871)"/>
<path d="M126.153 255.63H123.439V263.681L126.153 255.63Z" fill="#1B6BB7"/>
<path d="M125.261 252.343L123.439 255.606L126.142 255.63L125.261 252.343Z" fill="#EECBAD"/>
<path d="M124.923 252.939L125.257 252.337L125.426 252.939H124.923Z" fill="#1B6BB7"/>
<path d="M106 250.345L110.201 265.516L112.564 264.733L108.45 249.66L106 250.345Z" fill="#DB6F25"/>
<path d="M106.479 247.474L106 250.344L108.456 249.663L106.479 247.474Z" fill="#EECBAD"/>
<path d="M106.325 248.312L106.489 247.483L107.04 248.088L106.325 248.312Z" fill="#DB6F25"/>
<path d="M119.569 244.956L118.188 247.528H120.735L119.569 244.956Z" fill="#EECBAD"/>
<path d="M118.188 265.032V247.528H120.735V265.032H118.188Z" fill="#D22842"/>
<path d="M119.188 245.634L119.567 244.956L119.888 245.634H119.188Z" fill="#D22842"/>
<path d="M120.735 265.16V251.507H123.439V265.16H120.735Z" fill="#E94DBD"/>
<path d="M121.933 248.316L120.735 251.507H123.439L121.933 248.316Z" fill="#EECBAD"/>
<path d="M121.671 248.992L121.948 248.312L122.264 248.992H121.671Z" fill="#E94DBD"/>
<path d="M107.932 282.728C107.837 276.851 107.703 264.776 107.932 263.494C112.64 265.825 121.086 264.465 124.721 263.494V283.456C114.389 286.72 109.224 284.33 107.932 282.728Z" fill="url(#paint2_linear_71_8871)"/>
<defs>
<filter id="filter0_d_71_8871" x="172.142" y="260.29" width="21.6575" height="13.2309" filterUnits="userSpaceOnUse" color-interpolation-filters="sRGB">
<feFlood flood-opacity="0" result="BackgroundImageFix"/>
<feColorMatrix in="SourceAlpha" type="matrix" values="0 0 0 0 0 0 0 0 0 0 0 0 0 0 0 0 0 0 127 0" result="hardAlpha"/>
<feOffset dy="1"/>
<feGaussianBlur stdDeviation="0.5"/>
<feComposite in2="hardAlpha" operator="out"/>
<feColorMatrix type="matrix" values="0 0 0 0 0 0 0 0 0 0 0 0 0 0 0 0 0 0 0.15 0"/>
<feBlend mode="normal" in2="BackgroundImageFix" result="effect1_dropShadow_71_8871"/>
<feBlend mode="normal" in="SourceGraphic" in2="effect1_dropShadow_71_8871" result="shape"/>
</filter>
<filter id="filter1_d_71_8871" x="230.852" y="279.14" width="10.6292" height="10.7625" filterUnits="userSpaceOnUse" color-interpolation-filters="sRGB">
<feFlood flood-opacity="0" result="BackgroundImageFix"/>
<feColorMatrix in="SourceAlpha" type="matrix" values="0 0 0 0 0 0 0 0 0 0 0 0 0 0 0 0 0 0 127 0" result="hardAlpha"/>
<feOffset dy="4"/>
<feGaussianBlur stdDeviation="2"/>
<feComposite in2="hardAlpha" operator="out"/>
<feColorMatrix type="matrix" values="0 0 0 0 0 0 0 0 0 0 0 0 0 0 0 0 0 0 0.25 0"/>
<feBlend mode="normal" in2="BackgroundImageFix" result="effect1_dropShadow_71_8871"/>
<feBlend mode="normal" in="SourceGraphic" in2="effect1_dropShadow_71_8871" result="shape"/>
</filter>
<filter id="filter2_d_71_8871" x="304.781" y="246.98" width="97.3711" height="49.5206" filterUnits="userSpaceOnUse" color-interpolation-filters="sRGB">
<feFlood flood-opacity="0" result="BackgroundImageFix"/>
<feColorMatrix in="SourceAlpha" type="matrix" values="0 0 0 0 0 0 0 0 0 0 0 0 0 0 0 0 0 0 127 0" result="hardAlpha"/>
<feOffset dy="0.2"/>
<feGaussianBlur stdDeviation="0.5"/>
<feComposite in2="hardAlpha" operator="out"/>
<feColorMatrix type="matrix" values="0 0 0 0 0 0 0 0 0 0 0 0 0 0 0 0 0 0 0.25 0"/>
<feBlend mode="normal" in2="BackgroundImageFix" result="effect1_dropShadow_71_8871"/>
<feBlend mode="normal" in="SourceGraphic" in2="effect1_dropShadow_71_8871" result="shape"/>
</filter>
<filter id="filter3_d_71_8871" x="305.527" y="262.908" width="28.9384" height="28.0599" filterUnits="userSpaceOnUse" color-interpolation-filters="sRGB">
<feFlood flood-opacity="0" result="BackgroundImageFix"/>
<feColorMatrix in="SourceAlpha" type="matrix" values="0 0 0 0 0 0 0 0 0 0 0 0 0 0 0 0 0 0 127 0" result="hardAlpha"/>
<feOffset dy="1"/>
<feGaussianBlur stdDeviation="1"/>
<feComposite in2="hardAlpha" operator="out"/>
<feColorMatrix type="matrix" values="0 0 0 0 0 0 0 0 0 0 0 0 0 0 0 0 0 0 0.25 0"/>
<feBlend mode="normal" in2="BackgroundImageFix" result="effect1_dropShadow_71_8871"/>
<feBlend mode="normal" in="SourceGraphic" in2="effect1_dropShadow_71_8871" result="shape"/>
</filter>
<linearGradient id="paint0_linear_71_8871" x1="318.878" y1="275.306" x2="447.98" y2="291.733" gradientUnits="userSpaceOnUse">
<stop stop-color="#D9D9D9"/>
<stop offset="0.123825" stop-color="#D9D9D9"/>
<stop offset="0.210218" stop-color="white"/>
<stop offset="0.303722" stop-color="#D9D9D9"/>
<stop offset="0.414571" stop-color="white"/>
<stop offset="0.518644" stop-color="#D9D9D9"/>
<stop offset="1" stop-color="#D9D9D9"/>
</linearGradient>
<linearGradient id="paint1_linear_71_8871" x1="112.061" y1="241.146" x2="117.225" y2="241.172" gradientUnits="userSpaceOnUse">
<stop stop-color="#FBC936"/>
<stop offset="0.627052" stop-color="#FBC936"/>
<stop offset="1" stop-color="#DDB131"/>
</linearGradient>
<linearGradient id="paint2_linear_71_8871" x1="125.528" y1="274.289" x2="107.804" y2="275.16" gradientUnits="userSpaceOnUse">
<stop offset="0.0830551" stop-color="#1A95C5"/>
<stop offset="0.419012" stop-color="#0DACE9"/>
<stop offset="0.684282" stop-color="#0DACE9"/>
<stop offset="1" stop-color="#1A95C5"/>
</linearGradient>
</defs>
</svg>
