<svg width="508" height="423" viewBox="0 0 508 423" fill="none" xmlns="http://www.w3.org/2000/svg">
<g clip-path="url(#clip0_60_1357)">
<path d="M184.358 118.011C124.065 145.801 93.0057 171.503 85.0129 180.881C13.7058 246.287 52.5058 313.778 80.8192 339.348C136.862 383.772 227.829 389.213 266.308 386.381C395.248 374.756 441.86 322.656 449.049 298.059C460.626 271.798 476.199 200.565 445.871 125.73C415.542 50.8956 365.051 35.7269 343.597 37.4969C307.185 39.1586 280.807 58.2114 266.564 67.2241C255.169 74.4342 207.012 104.086 184.358 118.011Z" fill="#EAD7B7"/>
<path d="M457.923 179.913H84.6736C100.516 163.048 138.465 141.594 152.609 132.784C192.211 113.528 250.825 74.5585 284.944 50.7327C299.088 41.674 350.987 22.6839 392.959 50.7327C442.963 84.1489 452.893 145.364 457.923 179.913Z" fill="#FEF8FC"/>
<mask id="mask0_60_1357" style="mask-type:alpha" maskUnits="userSpaceOnUse" x="344" y="73" width="118" height="123">
<path d="M461 193.345C459.084 139.498 429.421 91.1836 414.829 73.7573H347.531L344.918 194.87L461 193.345Z" fill="#D9D9D9" stroke="black"/>
</mask>
<g mask="url(#mask0_60_1357)">
<rect x="352.053" y="86.436" width="124.67" height="95.7553" fill="#FFFEFE"/>
<rect x="356.966" y="93.5635" width="54.427" height="27.09" fill="#E9EBEA"/>
<rect x="415.277" y="93.5635" width="54.427" height="27.09" fill="#E9EBEA"/>
<rect x="356.966" y="123.455" width="54.427" height="25.8944" fill="#E9EBEA"/>
<rect x="415.277" y="123.455" width="54.427" height="25.8944" fill="#E9EBEA"/>
<rect x="356.966" y="153.347" width="54.427" height="24.6991" fill="#E9EBEA"/>
<rect x="415.277" y="153.347" width="54.427" height="24.6991" fill="#E9EBEA"/>
</g>
<path d="M337.441 73.9078C337.387 74.0771 334.25 77.0503 334.33 79.0951" stroke="#C76327"/>
<path d="M312.496 288.399L164.794 364.571L57.2643 327.065L215.105 260.238L312.496 288.399Z" fill="#FCF1E0"/>
<ellipse cx="224.906" cy="292.078" rx="49.9671" ry="19.4273" fill="#54A3DB"/>
<ellipse cx="154.107" cy="323.47" rx="52.3599" ry="20.4127" fill="#54A3DB"/>
<path d="M125.788 312.573C133.011 310.751 131.997 306.824 130.587 305.089C115.947 307.887 108.112 312.979 106.025 315.176C112.857 318.592 116.761 314.85 125.788 312.573Z" fill="#FAF5DA"/>
<path d="M195.024 324.934C195.128 326.47 196.812 325.923 197.641 325.458C200.153 327.377 193.453 328.381 189.79 328.643C186.998 332.089 181.982 329.515 181.24 325.982C180.647 323.154 186.169 323.175 189.004 323.538C192.581 320.092 197.074 321.27 197.161 320.877C197.249 320.484 198.95 317.081 201.087 318.216C202.797 319.123 200.753 321.822 199.517 323.058C197.975 323.044 194.919 323.399 195.024 324.934Z" fill="#224155"/>
<path d="M106.315 326.041C105.326 328.678 107.104 329.475 108.117 329.544C109.319 329.716 111.971 330.059 112.96 330.059C114.196 330.059 115.947 332.738 119.244 333.202C122.541 333.666 121.974 331.811 121.819 331.399C121.696 331.069 119.158 331.261 117.905 331.399V330.059C122.108 330.224 124.189 328.136 124.704 327.071C124.745 323.568 121.356 322.898 119.656 323.001C117.201 324.255 112.28 326.618 112.238 326.041C112.187 325.319 107.551 322.743 106.315 326.041Z" fill="#177C4E"/>
<path d="M139.413 328.267C137.423 328.007 138.584 330.033 139.413 331.079C140.213 331.336 141.657 331.619 141.901 331.728C141.324 331.872 140.019 332.312 139.413 332.918C138.656 333.675 140.495 334 142.55 335.19C144.604 336.379 145.578 335.19 147.957 335.19H149.579C149.039 335.442 147.654 336.098 146.443 336.704C144.929 337.461 146.876 337.461 150.553 339.408C152.629 340.014 152.8 338.844 153.581 339.408V342.004H156.068C157.582 342.004 159.529 341.247 163.855 340.598C168.181 339.949 168.397 340.598 170.344 340.598C172.291 340.598 172.94 340.274 174.129 338.651C175.319 337.029 175.211 338.002 176.617 337.461C178.023 336.92 177.59 336.704 177.482 335.19C177.395 333.978 176.869 333.531 176.617 333.459C176.905 333.351 177.785 333.091 178.996 332.918C180.51 332.702 180.618 331.079 181.051 330.43C181.483 329.782 179.861 329.349 178.996 328.267C178.131 327.185 177.59 328.267 176.617 328.267H174.129C173.048 328.267 172.94 327.185 172.94 326.104C172.94 325.022 173.697 325.13 175.211 325.13C176.725 325.13 176.617 325.887 182.024 323.724C187.432 321.56 182.348 321.885 182.024 321.236C181.7 320.587 180.51 321.885 178.996 321.885H176.028C175.054 321.885 173.697 320.587 170.344 320.587C166.991 320.587 165.369 320.154 163.855 320.587C162.341 321.02 161.8 321.019 161.8 321.885C161.8 322.75 164.504 322.858 164.612 323.724C164.72 324.589 163.855 324.589 161.8 325.13C159.745 325.671 157.582 325.346 154.554 324.589C151.526 323.832 149.796 323.507 149.579 324.589C149.363 325.671 149.579 327.185 147.957 328.267C146.335 329.348 141.901 328.591 139.413 328.267Z" fill="#EB9C26"/>
<path d="M247.071 297.054C234.887 291.013 213.538 297.054 212.913 297.054C225.576 297.054 225.757 298.165 224.264 298.721C222.848 300.054 224.854 301.151 226.035 301.533C226.058 308.316 238.219 305.7 238.115 304.137C238.011 302.575 243.218 299.763 243.322 301.533C243.427 303.304 247.071 304.242 248.738 303.096C250.404 301.95 259.569 299.554 262.485 298.721C265.401 297.888 262.485 292.784 261.131 295.284C260.048 297.284 251.307 297.297 247.071 297.054Z" fill="#F56D3C"/>
<path d="M189.869 288.399C191.19 289.314 189.912 291.448 189.107 292.401C188.091 291.232 186.651 294.836 186.058 296.784C184.597 300.532 195.268 303.455 195.522 301.295C195.725 299.567 197.004 299.262 197.618 299.325C199.714 302.883 209.305 299.707 212.036 298.563C214.767 297.42 209.75 294.243 208.924 295.069C208.098 295.895 199.396 292.401 198.126 293.862C196.856 295.323 194.252 288.399 192.791 286.493C191.33 284.587 188.218 287.256 189.869 288.399Z" fill="#224155"/>
<path d="M162.303 317.974C162.474 319.691 165.171 319.167 166.499 318.69C169.24 318.308 175.477 317.774 177.251 318.69H184.668C193.086 316.401 185.976 319.68 190.554 318.69C195.131 317.699 196.561 314.684 196.204 312.538C195.846 310.391 192.556 311.679 190.554 309.963C188.952 308.589 185.962 309.39 184.668 309.963C182.865 311.417 178.658 313.797 176.249 311.679C173.239 309.033 175.583 313.182 170.313 309.963C165.043 306.744 158.941 309.605 154.864 308.603C151.603 307.802 151.744 309.509 152.223 310.463L154.864 312.538C157.272 313.634 162.131 316.257 162.303 317.974Z" fill="#177C4E"/>
<path d="M196.828 283.645C198.349 282.643 198.019 279.531 198.019 279.531C204.402 281.253 202.34 276.311 203.72 275.512C209.562 276.297 210.392 274.265 210.078 273.15C199.47 274.64 180.835 280.09 182.288 282.67C183.741 285.249 189.735 281.761 191.951 280.09C194.167 278.419 195.039 280.49 194.784 281.253C194.53 282.016 191.951 281.87 191.188 283.251C190.578 284.355 195.307 284.648 196.828 283.645Z" fill="#F2EFE3"/>
<rect x="369.923" y="128.268" width="14.4147" height="5.03449" fill="#DFCEB4"/>
<rect x="367.94" y="133.303" width="9.53355" height="5.03449" fill="#DFCEB4"/>
<rect x="372.364" y="138.337" width="19.0669" height="5.03449" fill="#DFCEB4"/>
<rect x="363.822" y="143.372" width="20.5159" height="5.72123" fill="#DFCEB4"/>
<rect x="384.337" y="128.268" width="3.96604" height="5.03449" fill="#CDB7A4"/>
<rect x="377.474" y="133.303" width="8.84717" height="5.03449" fill="#CDB7A4"/>
<rect x="362.027" y="109.498" width="26.6605" height="10.9371" fill="#E0E0E0"/>
<rect x="360.569" y="108.144" width="29.7848" height="1.35394" fill="#E0E0E0"/>
<rect x="366.295" y="97.6221" width="4.31546" height="10.5216" fill="#BDD4F3"/>
<rect x="370.61" y="100.847" width="4.31546" height="7.29708" fill="#FBCBC5"/>
<ellipse cx="106.577" cy="283.727" rx="42.349" ry="11.4777" fill="#CFBD97"/>
<ellipse cx="289.405" cy="350.764" rx="39.7165" ry="11.4777" fill="#CFBD97"/>
<ellipse cx="402.851" cy="304.618" rx="21.9236" ry="6.33568" fill="#CFBD97"/>
<ellipse cx="334.954" cy="184.082" rx="10.8904" ry="3.14722" fill="#CFBD97"/>
<ellipse cx="215.594" cy="191.456" rx="84.9299" ry="3.14722" fill="#CFBD97"/>
<path d="M329.112 354.618C329.314 353.873 326.049 349.96 324.392 348.097L320.992 351.89V358.211H321.811C321.811 358.211 322.804 357.921 323.258 357.479C323.532 357.212 323.612 356.833 323.825 356.681C324.038 356.529 325.189 356.991 325.965 356.681C326.581 356.435 326.762 355.638 327.287 355.616C327.812 355.594 328.911 355.363 329.112 354.618Z" fill="#DD804E"/>
<path d="M299.347 355.813C294.641 355.565 293.877 357.224 294.084 358.084C294.243 360.986 301.313 361.133 304.827 360.844C306.986 361.755 308.325 361.223 308.725 360.844C309.924 360.724 309.405 360.034 308.995 359.704C309.714 359.872 309.874 359.194 309.864 358.834C311.255 358.667 310.444 358.065 309.864 357.785C310.704 356.609 310.634 355.981 310.494 355.813C308.739 355.916 304.054 356.061 299.347 355.813Z" fill="#DD804E"/>
<path d="M276.344 319.462C281.192 297.811 289.92 292.398 293.678 292.398C312.281 305.93 319.938 304.427 321.441 301.983L323.557 339.856C306.779 348.629 293.222 343.512 288.541 339.856C289.19 332.18 290.421 316.56 290.152 315.486C289.884 314.412 289.369 314.68 289.145 314.949L284.111 326.093L275.251 321.662L276.344 319.462Z" fill="#FFF1DF"/>
<path d="M267.626 266.773C271.256 265.23 272.708 256.062 272.436 255.518C273.234 254.574 273.422 254.032 274.632 254.032L280.984 243.776C275.104 264.034 279.018 269.765 282.073 269.644C288.317 266.231 290.525 268.83 290.585 270.675C288.988 275.903 290.888 283.382 292.037 286.468C280.494 290.462 272.224 286.136 269.532 283.473C265.266 281.295 263.996 268.315 267.626 266.773Z" fill="#F3B781"/>
<path d="M267.47 262.183L270.588 264.451" stroke="#817057"/>
<path d="M264.331 269.17C264.142 268.171 266.345 267.224 267.47 266.875L266.424 269.947C265.805 270.104 264.52 270.17 264.331 269.17Z" fill="#E68361"/>
<path d="M287.018 270.038C287.019 270.274 287.023 273.324 287.026 274.82" stroke="#D68360"/>
<path d="M262.769 251.474L268.822 252.905L272.344 245.31L270.363 253.676L275.316 254.886C275.228 251.628 279.021 246.117 280.929 243.768C274.678 265.08 279.446 270.032 282.612 269.844C288.181 265.855 290.121 268.824 290.394 270.807C287.093 299.324 312.265 299.846 312.007 302.855C311.801 305.262 313.01 308.368 313.64 309.62C312.123 312.602 315.493 314.051 315.157 315.662C314.889 316.951 315.761 318.661 316.231 319.355C317.102 319.355 317.574 320.835 317.574 322.51C317.574 326.681 319.319 329.313 320.728 330.163C321.265 338.811 328.291 344.24 331.737 345.873C333.509 340.073 326.534 332.326 322.825 329.178C323.161 328.171 322.196 325.648 321.672 324.512C322.039 322.048 320.057 320.227 320.728 319.355C321.4 318.482 320.393 316.199 320.728 315.662C321.064 315.125 320.594 312.305 320.057 311.634C319.628 311.097 319.878 310.067 320.057 309.62C320.719 308.009 319.781 303.429 319.23 301.34C327.595 295.176 333.868 276.095 335.959 267.325C337.192 243.02 323.852 232.687 317.029 230.559C305.935 227.389 296.851 229.238 293.696 230.559C290.438 229.855 284.488 230.853 281.92 231.44C268.536 235.579 263.576 246.52 262.769 251.474Z" fill="url(#paint0_linear_60_1357)"/>
<path d="M318.179 230.955C297.39 239.907 282.488 236.194 277.254 233.306L273.716 235.355L270.295 238.102C296.281 251.675 317.023 241.461 324.121 234.663C324.121 234.663 323.678 234.07 321.194 232.532C318.711 230.994 318.179 230.955 318.179 230.955Z" fill="#9D4A46"/>
<path d="M289.698 231.185C285.019 235.217 277.863 247.515 286.674 264.451" stroke="#692E2C" stroke-width="0.5"/>
<path d="M299.228 231.185C296.636 239.537 293.267 259.655 300.524 273.307" stroke="#692E2C" stroke-width="0.5"/>
<path d="M309.771 245.657C309.987 246.953 315.819 263.37 315.171 274.819" stroke="#692E2C" stroke-width="0.5"/>
<path d="M303.076 228.809C309.195 233.129 321.002 248.379 319.274 274.819" stroke="#692E2C" stroke-width="0.5"/>
<path d="M303.508 228.809C311.499 231.545 326.92 242.763 324.674 265.747" stroke="#692E2C" stroke-width="0.5"/>
<path d="M304.156 229.24C313.155 229.744 331.067 237.881 330.721 266.395" stroke="#692E2C" stroke-width="0.5"/>
<path d="M254.161 341.913C258.306 341.627 270.539 328.332 276.138 321.72L283.967 326.043C280.843 335.349 256.652 346.516 254.161 347.779C252.168 348.789 250.871 347.358 250.472 346.516C249.974 345.101 250.016 342.199 254.161 341.913Z" fill="#DD804E"/>
<path d="M252.045 345.568C250.472 356.752 283.446 360.755 294.247 360.612C295.21 358.961 294.649 356.486 294.247 355.454C304.046 358.807 321.752 353.305 324.33 349.006C326.393 345.568 324.56 341.384 323.385 339.722C308.051 348.731 293.56 343.476 288.231 339.722C264.852 338.003 252.797 341.663 252.045 345.568Z" fill="url(#paint1_linear_60_1357)"/>
<path d="M407.721 217.793L411.107 213.504L414.23 214.538L413.973 220.533L410.695 219.666L407.721 217.793Z" fill="#CD775B"/>
<path d="M385.184 199.329C386.862 207.9 394.792 207.392 398.547 206.067C401.728 211.457 415.113 215.088 421.409 216.229C442.613 218.704 448.43 207.319 448.688 201.317C445.33 197.517 444.565 185.668 444.601 180.219C434.352 175.359 425.826 164.938 422.844 160.336C419.222 181.721 403.37 192.591 395.896 195.352C387.945 191.199 385.441 196.273 385.184 199.329Z" fill="#F0B57D"/>
<path d="M395.927 202.914C393.067 202.616 388.048 201.03 390.857 197.062" stroke="#DA7A5E"/>
<path d="M436.893 181.985C438.174 181.248 441.393 180.727 444.03 184.534" stroke="#4D2A14" stroke-width="1.5"/>
<path d="M422.193 180.976C421.836 181.048 414.415 180.762 412.275 183.688" stroke="#4D2A14" stroke-width="1.5"/>
<path d="M417.629 188.508C414.325 189.014 413.57 189.399 412.583 190.484C412.538 190.534 412.429 190.543 412.384 190.593C412.02 190.993 411.185 194.302 411.167 194.901C411.04 199.144 413.233 200.768 414.214 201.114C414.222 201.117 414.231 201.118 414.239 201.119C417.222 201.34 414.687 201.223 416.825 201.118C418.962 201.013 420.061 199.005 420.431 197.946C420.435 197.936 420.436 197.927 420.437 197.916L420.601 191.841C420.723 190.781 420.271 188.103 417.629 188.508Z" fill="white"/>
<path d="M440.071 190.319C437.279 191.121 436.705 190.975 435.997 192.607C435.91 192.808 435.297 195.796 435.352 196.36C435.7 199.919 437.706 201.043 438.564 201.228C438.573 201.23 438.582 201.231 438.59 201.23C441.105 201.095 438.974 201.269 440.751 200.952C442.525 200.635 443.229 198.84 443.426 197.914C443.428 197.904 443.428 197.894 443.427 197.884L442.913 192.788C442.902 191.889 442.236 189.697 440.071 190.319Z" fill="white"/>
<path d="M423.311 189.73C418.322 187.281 413.765 188.941 411.909 189.933C411.878 189.949 411.851 189.97 411.827 189.995C411.623 190.209 411.774 190.563 412.07 190.563L423.091 190.563C423.588 190.563 423.758 189.949 423.311 189.73Z" fill="#341913"/>
<path d="M444.037 190.308C440.354 187.315 437.053 189.323 435.714 190.523C435.68 190.553 435.653 190.588 435.631 190.627C435.468 190.915 435.68 191.271 436.011 191.264L443.735 191.114C444.173 191.106 444.377 190.584 444.037 190.308Z" fill="#341913"/>
<path d="M413.546 196.858C413.084 193.707 414.803 191.349 415.721 190.563H420.615V196.277C420.751 199.814 418.27 200.979 417.012 201.119C416.049 201.011 414.008 200.008 413.546 196.858Z" fill="url(#paint2_linear_60_1357)"/>
<path d="M437.519 197.488C436.77 194.716 438.12 191.894 438.797 191.092L442.708 191.092L443.364 196.209C443.884 199.363 441.943 200.672 440.907 200.932C440.09 200.939 438.267 200.26 437.519 197.488Z" fill="url(#paint3_linear_60_1357)"/>
<path d="M432.744 201.712C430.384 200.952 430.844 198.004 430.798 197.634H428.806C428.806 198.458 428.176 200.554 427.601 201.712C427.675 205.419 430.782 205.542 432.327 205.141C434.699 204.103 433.593 202.422 432.744 201.712Z" fill="#F18059"/>
<ellipse cx="416.585" cy="205.858" rx="5.74512" ry="2.59508" fill="#F89873"/>
<ellipse cx="440.4" cy="205.302" rx="4.44781" ry="2.59508" fill="#F89873"/>
<path d="M430.542 210.331C427.178 208.977 425.265 210.026 424.63 210.316C424.553 210.351 424.514 210.483 424.569 210.547C426.888 213.224 429.472 211.694 430.581 210.487C430.627 210.437 430.606 210.357 430.542 210.331Z" fill="#CB5A5A"/>
<path d="M413.497 145.363C441.555 146.269 446.172 168.819 444.973 179.981C437.263 178.524 427.125 165.902 423.02 159.773C420.325 180.307 404.07 192.132 396.279 195.478C394.123 193.7 391.07 193.659 389.813 193.861C383.885 195.694 385.322 200.643 386.782 202.889C390.015 208.278 396.256 207.156 398.973 205.92L403.89 210.704C399.202 215.5 391.088 215.536 387.617 214.954C370.986 205.109 368.526 187.537 369.374 179.981C374.918 145.779 397.385 145.364 413.497 145.363Z" fill="#1C1916"/>
<path d="M387.289 195.106L389.276 193.637C386.246 154.31 412.182 147.804 425.672 149.467C427.448 149.711 430.359 149.845 427.792 148.43C425.224 147.014 422.872 146.816 422.016 146.893C386.978 147.792 384.265 179.409 387.289 195.106Z" fill="#904238"/>
<rect x="387.848" y="214.879" width="7.16464" height="1.34147" fill="#DB9923"/>
<path d="M387.008 224.812C385.779 220.588 387.931 216.337 387.854 216.145L395.008 216.145C401.489 225.728 394.852 229.151 390.808 229.842H383.783C384.428 230.948 384.052 232.274 383.783 232.798C382.554 232.891 381.352 230.61 380.904 229.458C380.105 227.553 384.64 225.567 387.008 224.812Z" fill="#1C1916"/>
<path d="M454.088 221.588V215.812H459.286V221.588H454.088Z" fill="#F4A399"/>
<path d="M462.426 215.812H459.088L458.979 221.628H462.426V215.812Z" fill="#BF7AAA"/>
<path d="M433.609 260.192C427.958 257.223 423.561 249.304 422.276 245.926L416.627 248.835C421.536 256.085 427.402 260.834 429.828 262.19V264.545C430.17 266.829 431.398 265.878 431.968 265.116C432.556 267.552 434.47 268.405 434.323 267.257C434.038 265.031 434.204 263.903 434.323 263.618C436.537 266.673 437.571 265.966 437.45 265.432L436.749 263.618C437.367 263.689 438.922 265.228 439.817 264.545C440.259 264.208 439.413 263.213 438.604 262.19C439.627 261.691 440.459 262.06 440.459 261.049C440.459 260.537 433.966 260.192 433.609 260.192Z" fill="#DD955D"/>
<path d="M422.338 246.034L417.542 230.354H412.043L416.606 248.842L422.338 246.034Z" fill="#E57021"/>
<path d="M397.418 239.599C399.384 224.153 405.335 218.341 408.065 217.366C410.873 222.14 425.068 221.383 431.814 220.642V223.802C432.087 224.27 432.47 225.791 431.814 228.131C430.995 231.057 416.605 229.418 417.073 229.769C417.448 230.05 415.825 247.516 414.967 256.215C399.244 257.993 394.143 255.473 393.558 253.991C394.494 252.774 396.521 243.889 397.418 239.599Z" fill="#FFAD24"/>
<path d="M431.826 220.641C437.643 219.301 449.423 216.255 450.008 214.793C450.593 213.331 457.135 214.183 460.333 214.793C460.728 215.189 460.348 215.663 458.813 215.883C456.902 216.156 457.404 217.16 457.86 218.07L457.866 218.082C458.322 218.996 456.495 218.631 455.399 218.082C454.522 217.644 455.033 219.24 455.399 220.093C454.972 220.519 453.827 220.714 452.658 218.082V221.463C452.081 221.981 450.743 222.267 450.008 219.27C449.979 219.152 449.952 219.042 449.927 218.937L431.826 226.215V220.641Z" fill="#DD8153"/>
<path d="M399.375 303.388C395.789 302.604 391.992 303.915 390.541 304.669V306.289C394.342 306.402 401.934 306.425 401.899 305.611C401.864 304.797 400.202 303.79 399.375 303.388Z" fill="#EC395E"/>
<path d="M390.541 301.177V304.746C391.55 303.996 394.745 302.975 398.586 303.247L398.461 301.177H390.541Z" fill="white"/>
<path d="M392.134 267.761C390.593 271.073 390.468 291.318 390.507 301.027H398.435C398.256 300.321 398.009 279.067 398.127 268.546C396.929 268.546 393.632 268.023 392.134 267.761Z" fill="#F3B47C"/>
<path d="M407.819 301.669L408.32 304.628L415.787 303.329L415.397 300.996L407.819 301.669Z" fill="white"/>
<path d="M405.71 268.896C405.522 272.734 407.058 292.611 407.818 301.683L415.42 300.911C414.484 299.563 412.222 279.006 411.208 268.896H405.71Z" fill="#DA8556"/>
<path d="M416.838 303.612C414.476 302.809 410.17 303.946 408.313 304.615C408.313 305.194 408.87 306.082 409.148 306.454H419.736C420.627 304.715 418.176 303.835 416.838 303.612Z" fill="#EC395E"/>
<path d="M415.09 255.99C401.425 257.675 394.967 255.288 393.447 253.884C393.447 254.82 389.937 262.153 388.182 265.702C394.733 270.57 408.851 269.213 415.09 267.925V255.99Z" fill="#8ABCE1"/>
<path d="M359.228 79.7432L350.101 88.0435C348.907 95.7555 342.473 98.098 339.405 98.3053H345.81C348.397 98.0067 357.086 88.3544 361.107 83.5656C361.294 80.7669 361.496 75.297 361.288 74.4521C361.017 73.3556 359.143 73.3379 359.049 74.4521L359.228 79.7432Z" fill="#DD8154"/>
<path d="M324.56 93.9079C323.202 99.437 327.305 101.238 329.526 101.447L341.289 97.9625C351.452 96.3916 350.181 86.8355 348.276 82.2538C349.154 78.3729 346.217 78.4422 344.638 78.962L341.289 72.6668C330.26 71.0498 329.972 76.8828 331.819 82.9468C333.298 87.798 330.906 91.7445 329.526 93.1113C326.121 92.0487 324.796 93.1996 324.56 93.9079Z" fill="#F5B882"/>
<path d="M342.288 79.7382C339.038 79.509 338.208 81.8134 338.199 82.9943L337.366 82.4994C337.678 78.915 340.778 78.4704 342.288 78.6962V79.7382Z" fill="#70453D"/>
<path d="M328.511 156.328C330.243 157.468 338.737 158.798 342.768 159.321C343.128 159.368 345.679 142.322 346.91 133.793C341.39 134.124 332.344 132.704 328.511 131.953V156.328Z" fill="#2C4B8B"/>
<path d="M328.511 131.895C329.576 133.883 343.003 134.28 349.584 134.23C349.584 122.541 346.922 112.791 345.591 109.377C344.526 107.208 346.429 106.464 347.514 106.364V98.3057C332.134 98.4262 329.078 101.619 329.473 103.201C331.839 112.961 329.818 126.397 328.511 131.895Z" fill="#8ED0F3"/>
<path d="M329.684 156.975C329.033 159.282 329.955 173.909 330.497 180.935L335.895 179.012C335.185 176.705 337.817 164.542 339.222 158.749C335.91 158.394 331.483 157.418 329.684 156.975Z" fill="#F6B57C"/>
<path d="M341.037 182.743L333.993 176.557C333.399 179.385 331.48 180.273 330.594 180.363V183.83H335.29C341.124 184.7 341.552 183.468 341.037 182.743Z" fill="#EB1C2E"/>
<ellipse cx="2.65682" cy="2.83754" rx="2.65682" ry="2.83754" transform="matrix(0.543978 0.839099 -0.839012 0.544112 342.127 79.0898)" fill="white"/>
<ellipse cx="1.48664" cy="2.12023" rx="1.48664" ry="2.12023" transform="matrix(0.880297 -0.474423 0.474294 0.880367 340.04 81.0312)" fill="#70453D"/>
<ellipse cx="1.79229" cy="2.30619" rx="1.79229" ry="2.30619" transform="matrix(0.805065 0.593186 -0.593051 0.805165 345.072 83.7163)" fill="#F1947B"/>
<path d="M329.802 96.538C329.154 96.3474 329.193 97.0622 329.294 97.4435C329.459 98.5872 328.018 98.598 327.276 98.4604C327.192 97.5655 327.073 95.6071 327.276 94.9335C327.48 94.2598 330.093 94.3562 331.375 94.4886V96.538C331.12 96.6175 330.45 96.7287 329.802 96.538Z" fill="#E79769"/>
<rect x="359.457" y="64.5474" width="29.6357" height="5.48417" rx="1" fill="#C2D7EE"/>
<rect x="361.487" y="70.0312" width="25.5162" height="16.8888" fill="#DEDFE1"/>
<path d="M347.297 98.5685C353.015 95.6844 365.53 88.1415 369.848 81.0421L368.887 76.7529C368.71 75.2937 370.321 74.4774 371.401 76.1614L374.137 74.6083C375.024 74.1893 376.577 73.7949 375.689 75.5698C375.227 76.4951 374.865 76.9782 374.603 77.2077L377.612 76.3248C378.676 75.6804 379.707 77.1626 378.333 77.5922C376.552 78.1488 375.834 78.8976 375.698 79.0454H379.017C380.115 79.0454 380.437 80.3204 378.891 80.7501C376.655 81.3713 377.612 81.3379 377.612 82.4472C377.612 83.5564 375.763 83.1867 373.028 83.0388C369.602 89.4725 359.748 103.094 347.741 106.112L347.297 98.5685Z" fill="#F1B37E"/>
<path d="M330.458 102.008C329.743 103.185 327.902 105.462 326.261 105.156C326.038 105.84 325.164 106.922 323.447 105.777C321.73 104.632 320.823 105.872 320.585 106.635C319.535 107.192 317.065 107.58 315.576 104.679C315.863 103.041 315.948 100.453 314.002 103.2C312.056 105.948 309.089 102.532 307.849 100.481C308.167 98.1911 307.945 94.1265 304.51 96.1874C301.076 98.2484 301.299 95.8057 301.839 94.3268C302.412 92.4026 302.679 89.0886 299.168 91.2259C294.78 93.8975 294.064 88.1249 294.685 83.879C297.801 83.1316 303.06 80.6444 299.168 76.6752L294.685 76.2935C294.748 75.7528 295.782 74.6046 299.407 74.3375C298.389 73.2561 297.68 71.1219 302.984 71.2364V69.5191C300.027 69.7895 294.541 69.2806 296.259 65.0824C298.405 59.8346 300.504 60.0731 303.556 62.22C304.431 59.9777 307.458 56.8957 312.572 62.5061C312.333 59.8663 313.659 55.4262 320.871 58.7848C321.253 58.1169 321.863 56.7048 321.253 56.3995C320.49 56.0178 317.484 56.5426 317.866 53.5847C318.248 50.6269 325.879 53.0598 326.166 53.5847C326.395 54.0046 326.547 55.6362 326.595 56.3995H328.884C329.361 55.4771 330.63 53.8137 331.89 54.5389C333.464 55.4453 335.228 53.6324 335.61 57.449H337.041C336.898 56.3836 337.079 54.3099 338.949 54.5389C340.819 54.7679 341.223 57.2105 341.191 58.4032C341.906 58.4509 343.223 58.2696 342.765 57.1628C342.307 56.056 342.192 55.2386 342.192 54.9682C342.638 54.5389 343.776 54.224 344.768 56.3995C346.438 56.0495 349.624 56.0367 349.013 58.7848C348.091 60.7885 345.379 64.7577 341.906 64.6051C344.196 65.925 347.573 68.8796 342.765 70.1391C341.906 70.0914 340.59 70.4826 342.192 72.4291C340.793 73.5422 337.575 75.177 335.896 72.8107C334.926 72.8425 333.13 73.3546 333.702 75.1484C332.714 75.1484 330.944 76.3434 330.944 78.5336C330.957 78.5501 331.004 78.5833 330.983 78.5833C331.002 78.6235 331.02 78.6641 331.038 78.705C331.665 79.8481 331.246 79.1124 331.059 78.7504C333.178 83.4979 335.136 92.8567 326.5 93.611C324.735 95.3604 323.055 99.489 330.458 102.008Z" fill="#F6701B"/>
<path d="M276.301 192.628V166.829H279.462L278.34 192.628H276.301Z" fill="#DFB17A"/>
<path d="M292.512 192.221L283.03 166.829H287.006L295.367 192.221H292.512Z" fill="#DFB17A"/>
<path d="M249.54 190.997L259.226 166.829H262.692L252.191 190.997H249.54Z" fill="#DFB17A"/>
<path d="M282.509 133C265.172 133 269.628 152.847 274.023 162.771H287.481C287.282 160.908 290.935 158.427 296.348 149.452C298.75 135.768 288.123 132.782 282.509 133Z" fill="#C7E9F8"/>
<rect x="257.326" y="162.771" width="30.0961" height="4.05839" fill="#B6D6E3"/>
<path d="M287.969 140.958H278.766C278.418 138.67 281.399 137.807 282.933 137.662C287.459 137.811 288.177 139.922 287.969 140.958Z" fill="#FDF7F9"/>
<path d="M284.25 170.069L283.03 166.829H286.995L287.886 169.646L284.25 170.069Z" fill="#B97C53"/>
<path d="M279.346 169.805H276.296V166.823L279.467 166.806L279.346 169.805Z" fill="#B97C53"/>
<path d="M258.027 169.779L259.197 166.821H262.684L261.382 169.779H258.027Z" fill="#B97C53"/>
<path d="M144.239 192.628V166.829H141.079L142.2 192.628H144.239Z" fill="#DFB17A"/>
<path d="M128.028 192.221L137.51 166.829H133.534L125.173 192.221H128.028Z" fill="#DFB17A"/>
<path d="M171 190.997L161.314 166.829H157.848L168.349 190.997H171Z" fill="#DFB17A"/>
<path d="M138.031 133C155.369 133 150.912 152.847 146.517 162.771H133.06C133.259 160.908 129.606 158.427 124.193 149.452C121.79 135.768 132.417 132.782 138.031 133Z" fill="#C7E9F8"/>
<rect width="30.0961" height="4.05839" transform="matrix(-1 0 0 1 163.214 162.771)" fill="#B6D6E3"/>
<path d="M132.571 140.958H141.774C142.122 138.67 139.141 137.807 137.608 137.662C133.081 137.811 132.364 139.922 132.571 140.958Z" fill="#FDF7F9"/>
<path d="M136.29 170.069L137.51 166.829H133.545L132.654 169.646L136.29 170.069Z" fill="#B97C53"/>
<path d="M141.194 169.805H144.244V166.823L141.073 166.806L141.194 169.805Z" fill="#B97C53"/>
<path d="M162.513 169.779L161.343 166.821H157.856L159.158 169.779H162.513Z" fill="#B97C53"/>
<path fill-rule="evenodd" clip-rule="evenodd" d="M180.487 191.11H167.906L189.753 148.273L202.036 147.88L192.704 166.6H237.812L228.554 147.88L240.837 148.276L262.684 191.456H250.103L240.629 172.298H189.864L180.487 191.11Z" fill="#D9B27B"/>
<rect x="172.996" y="143.395" width="89.7949" height="4.85853" fill="#DBAD7C"/>
<path d="M224.268 133.966C223.762 134.624 222.792 140.526 222.37 143.394H214.652C215.107 142.281 212.817 136.645 211.615 133.966H224.268Z" fill="#F48464"/>
<path d="M201.358 128.651C202.927 128.196 211.586 132.005 215.719 133.966H221.856C222.109 130.929 232.105 128.651 233.623 127.259C234.838 126.145 234.129 124.981 233.623 124.538C225.525 120.741 219.873 126.5 218.06 129.853C209.899 118.78 199.397 129.22 201.358 128.651Z" fill="#BFCA50"/>
<rect x="231.77" y="82.9297" width="6.24118" height="30.8494" fill="#D9D9D9"/>
<rect x="188.172" y="107.266" width="43.5976" height="6.5138" fill="#D9D9D9"/>
<path d="M200.564 107.266L231.77 86.7295V107.266H200.564Z" fill="#F5FAFE"/>
<path d="M231.77 92.7003V86.7295C226.283 90.0165 215.308 96.699 215.308 97.1332C222.255 97.2056 229.177 94.2081 231.77 92.7003Z" fill="#CBEDF1"/>
<mask id="path-128-outside-1_60_1357" maskUnits="userSpaceOnUse" x="3.5" y="-3.63623" width="501" height="431" fill="black">
<rect fill="white" x="3.5" y="-3.63623" width="501" height="431"/>
<path d="M184.358 118.011C124.065 145.801 93.0057 171.503 85.0129 180.881C13.7058 246.287 52.5058 313.778 80.8192 339.348C136.862 383.772 227.829 389.213 266.308 386.381C395.248 374.756 441.86 322.656 449.049 298.059C460.626 271.798 476.199 200.565 445.871 125.73C415.542 50.8956 365.051 35.7269 343.597 37.4969C307.185 39.1586 280.807 58.2114 266.564 67.2241C255.169 74.4342 207.012 104.086 184.358 118.011Z"/>
</mask>
<path d="M85.0129 180.881L112.051 210.359L113.862 208.698L115.455 206.828L85.0129 180.881ZM184.358 118.011L201.102 154.337L203.27 153.338L205.304 152.088L184.358 118.011ZM266.564 67.2241L245.175 33.4226L245.175 33.4226L266.564 67.2241ZM343.597 37.4969L345.421 77.4553L346.154 77.4219L346.886 77.3615L343.597 37.4969ZM445.871 125.73L482.942 110.706L445.871 125.73ZM449.049 298.059L412.447 281.924L411.39 284.322L410.655 286.838L449.049 298.059ZM266.308 386.381L269.244 426.273L269.572 426.249L269.899 426.219L266.308 386.381ZM80.8192 339.348L54.0097 369.034L54.964 369.896L55.9718 370.695L80.8192 339.348ZM115.455 206.828C115.433 206.855 117.01 205.105 121.088 201.695C124.924 198.487 130.359 194.322 137.547 189.44C151.91 179.685 172.815 167.376 201.102 154.337L167.614 81.6837C104.925 110.578 67.9411 139.247 54.5707 154.933L115.455 206.828ZM205.304 152.088C227.808 138.256 276.274 108.415 287.952 101.026L245.175 33.4226C234.064 40.4534 186.216 69.9164 163.412 83.9332L205.304 152.088ZM287.952 101.026C304.256 90.709 321.506 78.5467 345.421 77.4553L341.774 -2.46148C292.864 -0.229492 257.358 25.7138 245.175 33.4226L287.952 101.026ZM346.886 77.3615C346.726 77.3747 349.048 77.2417 353.407 78.4831C357.535 79.6589 362.938 81.9189 368.985 86.012C380.79 94.0026 396.271 109.841 408.799 140.754L482.942 110.706C447.15 22.39 381.974 -5.80511 340.308 -2.36763L346.886 77.3615ZM408.799 140.754C434.321 203.729 420.533 263.583 412.447 281.924L485.65 314.195C500.719 280.012 518.077 197.402 482.942 110.706L408.799 140.754ZM410.655 286.838C410.759 286.482 405.887 298.621 382.449 312.971C360.064 326.675 322.396 341.162 262.716 346.542L269.899 426.219C339.16 419.975 389.267 402.599 424.221 381.199C458.122 360.443 480.15 334.233 487.443 309.28L410.655 286.838ZM263.371 346.489C247.462 347.66 218.6 347.17 187.609 341.287C156.237 335.332 126.584 324.582 105.667 308.002L55.9718 370.695C91.0975 398.538 134.95 412.72 172.691 419.884C210.814 427.12 246.675 427.934 269.244 426.273L263.371 346.489ZM107.629 309.663C98.4366 301.361 87.6888 285.918 85.0974 268.997C82.9636 255.065 85.3606 234.84 112.051 210.359L57.9748 151.403C13.3581 192.327 -0.498398 238.551 6.01941 281.108C12.0796 320.678 34.8884 351.766 54.0097 369.034L107.629 309.663Z" fill="white" mask="url(#path-128-outside-1_60_1357)"/>
<path d="M74.8994 271.442C79.6952 258.458 90.8876 244.958 99.1907 238.204C100.087 237.032 110.372 231.662 117.897 232.572C125.421 233.482 131.23 244.047 133.194 249.216L122.961 252.937C122.1 258.209 120.377 268.878 120.377 269.374C104.005 281.449 83.237 275.784 74.8994 271.442Z" fill="url(#paint4_linear_60_1357)"/>
<path d="M126.114 291.265C127.421 287.428 120.121 280.947 116.307 278.186C106.551 274.971 92.6271 283.386 86.8848 287.995C110.945 299.243 123.063 294.861 126.114 291.265Z" fill="#FDA573"/>
<path d="M134.504 289.739C138.514 285.728 131.671 278.113 127.748 274.807C124.871 273.499 118.704 276.297 115.979 277.859C123.564 283.613 126.041 288.176 126.332 289.739C128.511 292.267 132.688 290.792 134.504 289.739Z" fill="#FDA573"/>
<path d="M86.7225 287.832C75.2152 285.565 74.2273 275.335 75.1717 270.503C97.0527 280.966 114.365 273.555 120.285 268.541L127.477 274.971C124.426 273.838 118.505 276.534 115.926 278.023C107.47 275.146 92.9338 283.363 86.7225 287.832Z" fill="#D14260"/>
<path d="M70.2077 275.333C72.4544 275.06 74.4343 277.432 75.1434 278.652C74.5987 281.308 78.3772 283.731 80.3346 284.61C68.7609 286.653 59.2297 283.929 59.485 281.291C59.7403 278.652 63.2294 280.27 63.0592 279.503C62.889 278.737 64.6762 277.461 65.1017 278.652C65.4421 279.606 66.5483 280.128 67.0589 280.27C67.1724 278.737 67.961 275.605 70.2077 275.333Z" fill="#DF8A5C"/>
<path d="M84.76 295.507C84.76 292.487 92.1204 269.088 95.8007 257.766H102.649L93.4248 291.733C93.518 295.087 93.6484 302.188 93.4248 303.754C93.2012 305.319 91.8409 304.406 91.1887 303.754L88.6731 300.539C86.1109 301.797 80.6791 304.201 79.4492 303.754C78.2194 303.307 79.9617 301.424 80.9865 300.539C78.9834 300.912 74.9771 301.433 74.9771 300.539C74.9771 299.644 77.9585 298.582 79.4492 298.163C78.3312 298.163 75.8715 297.855 74.9771 296.625C74.0826 295.395 81.1263 295.367 84.76 295.507Z" fill="#FCA87C"/>
<path d="M152.964 277.613L131.056 246.907L123.246 250.777C130.663 263.868 144.878 275.504 151.059 279.686C152.492 285.489 153.898 286.468 154.422 286.232V281.868C156.894 286.232 158.785 286.595 159.421 286.232C161.457 281.432 155.965 278.486 152.964 277.613Z" fill="url(#paint5_linear_60_1357)"/>
<path d="M93.4713 257.322C92.4219 249.491 102.754 244.485 103.4 243.92C104.084 243.49 106.16 245.14 107.113 246.019C107.839 247.768 108.662 252.155 106.144 255.707C103.626 259.259 96.6462 258.264 93.4713 257.322Z" fill="url(#paint6_linear_60_1357)"/>
<path d="M158.621 208.867C155.901 206.962 147.173 190.956 143.15 183.19C141.127 199.326 129.477 207.855 123.904 210.103L117.891 232.192L129.4 236.548C152.709 243.102 162.461 230.607 164.424 223.541C163.665 217.658 159.997 213.547 159.681 212.725C159.428 212.067 158.869 209.879 158.621 208.867Z" fill="#F3B680"/>
<path d="M143.486 190.704C142.17 194.961 136.568 205.517 124.682 213.69C123.444 217.483 121.339 226.879 122.825 234.123H115.164L122.825 210.672C129.712 201.772 143.486 183.413 143.486 181.184C143.486 178.398 156.667 208.165 160.207 209.418V213.551C160.208 213.599 160.208 213.646 160.207 213.69V213.551C160.16 211.966 158.544 208.597 152.278 206.728C149.348 202.984 143.486 194.538 143.486 190.704Z" fill="#E1865B"/>
<path d="M158.891 209.064C153.683 206.285 145.871 190.398 142.616 182.801C141.053 199.644 129.379 208.195 123.736 210.366C109.217 249.582 122.434 253.34 120.698 254.643C119.309 255.685 114.911 250.302 112.886 247.48V251.387H108.112L106.159 235.109C102.166 235.456 94.6575 242.488 91.4024 245.961C86.8887 243.356 82.1435 238.509 80.3351 236.411C85.7169 176.68 117.877 167.246 133.285 169.996C160.193 174.684 161.568 197.994 158.891 209.064Z" fill="url(#paint7_linear_60_1357)"/>
<path d="M142.111 186.629C122.841 186.841 115.86 176.889 115.11 172.3C112.348 173.14 109.019 175.168 107.034 176.624C106.372 189.729 136.168 200.066 136.698 199.536C137.121 199.113 140.661 193.741 142.111 186.629Z" fill="#FBD149"/>
<path d="M141.157 178.893C124.789 174.198 99.2387 176.576 85.8379 235.932" stroke="#E8850E" stroke-width="0.5"/>
<path d="M142.595 182.903C136.664 183.581 124.999 189.015 117.136 203.118C114.311 207.129 107.917 215.457 104.934 216.678" stroke="#E8850E" stroke-width="0.5"/>
<path d="M142.357 182.611C139.25 189.165 127.541 207.084 106.798 218.203" stroke="#E8850E" stroke-width="0.5"/>
<path d="M155.537 183.953C154.311 186.175 147.416 186.696 144.351 186.625C146.758 191.622 148.433 194.965 149.984 197.684L159.506 193.141C159.451 190.748 156.837 186.019 155.537 183.953Z" fill="#FFD04A"/>
<path d="M150.54 224.209C147.098 221.616 147.986 218.563 147.528 218.563C144.882 224.897 147.705 227.25 149.898 227.454C152.585 227.059 151.149 225.279 150.54 224.209Z" fill="#F57C52"/>
<path d="M144.152 232.701C140.785 232.359 139.601 231.39 139.099 230.541C138.38 229.852 137.04 230.304 137.287 230.927C138.907 235.016 142.725 235.054 143.843 234.476C144.738 234.013 144.821 233.082 144.152 232.701Z" fill="#B7444D"/>
<ellipse cx="136.09" cy="224.444" rx="5.91327" ry="2.15884" fill="#F29E6B"/>
<path d="M132.537 217.52C132.537 213.966 134.839 212.722 136.251 212.528L135.496 222.802C133.282 222.192 132.537 221.418 132.537 217.52Z" fill="white"/>
<path d="M134.211 221.304C133.468 217.037 135.139 213.676 136.068 212.528C137.136 212.528 139.647 213.293 140.769 213.676C141.929 215.419 140.285 219.488 139.318 221.304C136.393 224.333 134.695 222.566 134.211 221.304Z" fill="#3E7093"/>
<path d="M133.302 214.478C133.571 214.201 136.137 209.956 140.766 213.645C137.852 213.645 136.802 214.869 133.302 214.478Z" fill="#87624F"/>
<ellipse cx="4.4057" cy="2.15884" rx="4.4057" ry="2.15884" transform="matrix(0.995977 -0.0896111 0.0895799 0.99598 152.146 222.183)" fill="#F29E6B"/>
<path d="M152.028 218.114C151.399 214.843 153.298 213.29 154.564 212.862L155.687 222.453C153.541 222.283 152.717 221.703 152.028 218.114Z" fill="white"/>
<path d="M154.239 221.302C152.8 217.505 153.744 214.114 154.396 212.894C155.379 212.705 157.826 212.965 158.926 213.118C160.303 214.518 159.509 218.555 158.94 220.398C156.783 223.704 154.907 222.378 154.239 221.302Z" fill="#3E7093"/>
<path d="M159.724 214.426C157.694 209.676 152.898 213.753 152.73 214.028C155.216 214.421 157.679 214.424 159.724 214.426L159.724 214.426Z" fill="#87624F"/>
<path d="M139.059 207.454C134.152 206.771 131.701 208.14 130.828 209.793C130.828 210.479 131.118 211.496 132.278 210.074C133.438 208.652 137.469 208.764 139.34 208.998C140.99 209.422 141.19 207.751 139.059 207.454Z" fill="#D67B33"/>
<path d="M158.36 257.319C157.407 255.521 157.963 240.172 158.36 232.723C148.31 242.244 129.739 236.972 122.817 234.035C126.501 238.061 133.38 246.714 132.838 249.781L143.02 253.616L146.194 248.459L145.004 254.674H148.045C148.045 251.924 149.103 247.269 149.632 245.285V254.674C149.632 256.155 155.45 257.054 158.36 257.319Z" fill="#CC4B23"/>
<path d="M142.817 181.579C142.817 182.416 157.837 204.55 160.208 205.387" stroke="#E8850E" stroke-width="0.5"/>
<path d="M188.261 151.155L189.729 148.275L201.838 148.275L200.373 151.155H188.261Z" fill="#C27F64"/>
<path d="M242.403 151.528L240.897 148.253H228.71L230.291 151.528H242.403Z" fill="#C27F64"/>
</g>
<defs>
<linearGradient id="paint0_linear_60_1357" x1="299.404" y1="228.809" x2="321.367" y2="327.255" gradientUnits="userSpaceOnUse">
<stop stop-color="#8B3E3D"/>
<stop offset="0.594497" stop-color="#5F2223"/>
</linearGradient>
<linearGradient id="paint1_linear_60_1357" x1="288.655" y1="339.365" x2="288.655" y2="360.617" gradientUnits="userSpaceOnUse">
<stop stop-color="#AA70B0"/>
<stop offset="0.781288" stop-color="#97529D"/>
<stop offset="1" stop-color="#97529D"/>
</linearGradient>
<linearGradient id="paint2_linear_60_1357" x1="417.044" y1="190.563" x2="417.044" y2="201.119" gradientUnits="userSpaceOnUse">
<stop stop-color="#562A1C"/>
<stop offset="1" stop-color="#864B19"/>
</linearGradient>
<linearGradient id="paint3_linear_60_1357" x1="439.722" y1="191.475" x2="440.935" y2="200.929" gradientUnits="userSpaceOnUse">
<stop stop-color="#562A1C"/>
<stop offset="1" stop-color="#864B19"/>
</linearGradient>
<linearGradient id="paint4_linear_60_1357" x1="127.498" y1="241.778" x2="74.8949" y2="271.819" gradientUnits="userSpaceOnUse">
<stop stop-color="#028E83"/>
<stop offset="1" stop-color="#24DDD0"/>
</linearGradient>
<linearGradient id="paint5_linear_60_1357" x1="126.228" y1="250.005" x2="154.262" y2="286.334" gradientUnits="userSpaceOnUse">
<stop stop-color="#DA8051"/>
<stop offset="1" stop-color="#EEB27E"/>
</linearGradient>
<linearGradient id="paint6_linear_60_1357" x1="106.434" y1="246.876" x2="91.8988" y2="253.205" gradientUnits="userSpaceOnUse">
<stop stop-color="#0DA79C"/>
<stop offset="1" stop-color="#24DDD0"/>
</linearGradient>
<linearGradient id="paint7_linear_60_1357" x1="131.935" y1="169.574" x2="80.3228" y2="245.309" gradientUnits="userSpaceOnUse">
<stop stop-color="#FFB409"/>
<stop offset="1" stop-color="#FF6513"/>
</linearGradient>
<clipPath id="clip0_60_1357">
<rect width="508" height="423" fill="white"/>
</clipPath>
</defs>
</svg>
