<svg width="537" height="469" viewBox="0 0 537 469" fill="none" xmlns="http://www.w3.org/2000/svg">
<g clip-path="url(#clip0_71_8745)">
<path d="M54.7975 189.828L54.7142 190.052L54.6352 190.278C34.083 248.998 47.9716 300.785 59.4709 343.663C62.2123 353.885 64.8178 363.601 66.7886 372.783L67.4779 375.994L68.9732 378.919C95.8032 431.388 144.062 445.359 190.668 444.793C228.923 444.329 270.605 434.077 305.049 425.605C311.11 424.115 316.947 422.679 322.501 421.362L322.614 421.335L322.726 421.307C390.485 404.573 432.473 370.04 458.186 332.049C483.453 294.715 491.946 255.609 495.913 231.017L496.05 230.169L496.128 229.313C498.031 208.492 500.804 191.966 503.433 178.03C504.057 174.721 504.702 171.422 505.341 168.159C507.264 158.333 509.122 148.841 510.122 140.456C511.551 128.469 511.645 116.17 507.831 103.024C504.064 90.0383 497.051 78.1666 487.254 65.9199L486.678 65.2005L486.051 64.5254C468.393 45.5086 444.767 35.3499 420.569 30.4092C396.37 25.4684 369.999 25.3945 344.531 27.8385C293.854 32.7015 242.614 47.958 210.435 60.632C113.725 95.2643 66.7959 157.541 54.7975 189.828Z" fill="#F1EBEB" stroke="white" stroke-width="50"/>
<path d="M120.328 425.639L55.1489 230.103L377 125.514L435.61 321.05L120.328 425.639Z" fill="#A0A0A0"/>
<mask id="mask0_71_8745" style="mask-type:alpha" maskUnits="userSpaceOnUse" x="54" y="125" width="382" height="301">
<path d="M120.09 425.639L54.9116 230.103L376.763 125.514L435.373 321.05L120.09 425.639Z" fill="url(#paint0_linear_71_8745)"/>
</mask>
<g mask="url(#mask0_71_8745)">
<path fill-rule="evenodd" clip-rule="evenodd" d="M392.683 357.343L311.766 120.801L311.577 120.865L392.494 357.408L392.683 357.343ZM34.9165 215.506L115.833 452.048L115.644 452.113L34.7272 215.57L34.9165 215.506ZM109.589 454.185L28.6718 217.642L28.4826 217.707L109.399 454.249L109.589 454.185ZM22.4272 219.778L103.344 456.321L103.155 456.386L22.238 219.843L22.4272 219.778ZM97.0994 458.457L16.1826 221.914L15.9933 221.979L96.9101 458.522L97.0994 458.457ZM95.0178 459.169L14.101 222.627L13.9118 222.691L94.8286 459.234L95.0178 459.169ZM18.2641 221.202L99.1809 457.745L98.9917 457.81L18.0749 221.267L18.2641 221.202ZM101.262 457.033L20.3457 220.49L20.1564 220.555L101.073 457.098L101.262 457.033ZM105.426 455.609L24.5087 219.066L24.3195 219.131L105.236 455.674L105.426 455.609ZM26.5903 218.354L107.507 454.897L107.318 454.962L26.4011 218.419L26.5903 218.354ZM30.7534 216.93L111.67 453.473L111.481 453.537L30.5641 216.995L30.7534 216.93ZM113.752 452.761L32.8349 216.218L32.6457 216.283L113.562 452.825L113.752 452.761ZM117.915 451.336L36.998 214.794L36.8088 214.858L117.726 451.401L117.915 451.336ZM39.0796 214.082L119.996 450.625L119.807 450.689L38.8903 214.147L39.0796 214.082ZM122.078 449.912L41.1616 213.369L40.9723 213.434L121.889 449.977L122.078 449.912ZM43.2431 212.657L124.16 449.2L123.971 449.265L43.0539 212.722L43.2431 212.657ZM126.241 448.488L45.3247 211.946L45.1354 212.01L126.052 448.553L126.241 448.488ZM47.4062 211.234L128.323 447.776L128.134 447.841L47.217 211.298L47.4062 211.234ZM130.405 447.064L49.4878 210.521L49.2985 210.586L130.215 447.129L130.405 447.064ZM51.5693 209.809L132.486 446.352L132.297 446.417L51.3801 209.874L51.5693 209.809ZM134.568 445.64L53.6508 209.097L53.4616 209.162L134.378 445.705L134.568 445.64ZM55.7324 208.385L136.649 444.928L136.46 444.992L55.5431 208.45L55.7324 208.385ZM138.731 444.216L57.8139 207.673L57.6247 207.738L138.541 444.281L138.731 444.216ZM59.8955 206.961L140.812 443.504L140.623 443.569L59.7062 207.026L59.8955 206.961ZM142.894 442.792L61.977 206.249L61.7878 206.314L142.705 442.856L142.894 442.792ZM64.0586 205.537L144.975 442.08L144.786 442.144L63.8693 205.602L64.0586 205.537ZM147.057 441.368L66.1401 204.825L65.9509 204.89L146.868 441.432L147.057 441.368ZM68.2216 204.113L149.138 440.655L148.949 440.72L68.0324 204.177L68.2216 204.113ZM151.22 439.943L70.3032 203.401L70.1139 203.465L151.031 440.008L151.22 439.943ZM72.3852 202.689L153.302 439.231L153.113 439.296L72.196 202.753L72.3852 202.689ZM155.384 438.519L74.4668 201.976L74.2775 202.041L155.194 438.584L155.384 438.519ZM76.5483 201.264L157.465 437.807L157.276 437.872L76.3591 201.329L76.5483 201.264ZM159.547 437.095L78.6298 200.552L78.4406 200.617L159.357 437.16L159.547 437.095ZM80.7114 199.84L161.628 436.383L161.439 436.448L80.5221 199.905L80.7114 199.84ZM163.71 435.671L82.7929 199.128L82.6037 199.193L163.52 435.736L163.71 435.671ZM84.8745 198.416L165.791 434.959L165.602 435.024L84.6852 198.481L84.8745 198.416ZM167.873 434.247L86.956 197.704L86.7668 197.769L167.684 434.312L167.873 434.247ZM89.0375 196.992L169.954 433.535L169.765 433.599L88.8483 197.057L89.0375 196.992ZM172.036 432.823L91.1191 196.28L90.9299 196.345L171.847 432.888L172.036 432.823ZM93.2006 195.568L174.117 432.111L173.928 432.176L93.0114 195.633L93.2006 195.568ZM176.199 431.398L95.2822 194.856L95.0929 194.92L176.01 431.463L176.199 431.398ZM97.3637 194.144L178.281 430.687L178.091 430.751L97.1745 194.209L97.3637 194.144ZM180.362 429.975L99.4453 193.432L99.256 193.497L180.173 430.039L180.362 429.975ZM101.527 192.719L182.444 429.262L182.254 429.327L101.338 192.784L101.527 192.719ZM184.525 428.55L103.608 192.008L103.419 192.072L184.336 428.615L184.525 428.55ZM105.69 191.296L186.607 427.838L186.418 427.903L105.501 191.36L105.69 191.296ZM188.689 427.126L107.772 190.583L107.583 190.648L188.499 427.191L188.689 427.126ZM109.853 189.871L190.77 426.414L190.581 426.479L109.664 189.936L109.853 189.871ZM192.852 425.702L111.935 189.159L111.746 189.224L192.663 425.767L192.852 425.702ZM114.017 188.447L194.933 424.99L194.744 425.054L113.827 188.512L114.017 188.447ZM197.015 424.278L116.098 187.735L115.909 187.8L196.826 424.343L197.015 424.278ZM118.18 187.023L199.096 423.566L198.907 423.631L117.99 187.088L118.18 187.023ZM201.178 422.854L120.261 186.311L120.072 186.376L200.989 422.919L201.178 422.854ZM122.343 185.599L203.26 422.142L203.07 422.206L122.153 185.664L122.343 185.599ZM205.341 421.43L124.424 184.887L124.235 184.952L205.152 421.494L205.341 421.43ZM126.506 184.175L207.423 420.718L207.233 420.783L126.317 184.24L126.506 184.175ZM209.504 420.005L128.587 183.463L128.398 183.527L209.315 420.07L209.504 420.005ZM130.669 182.751L211.586 419.293L211.396 419.358L130.48 182.815L130.669 182.751ZM213.667 418.582L132.75 182.039L132.561 182.104L213.478 418.646L213.667 418.582ZM134.832 181.326L215.749 417.869L215.56 417.934L134.643 181.391L134.832 181.326ZM217.83 417.157L136.914 180.614L136.724 180.679L217.641 417.222L217.83 417.157ZM138.996 179.903L219.912 416.445L219.723 416.51L138.806 179.967L138.996 179.903ZM221.994 415.733L141.077 179.19L140.888 179.255L221.805 415.798L221.994 415.733ZM143.159 178.478L224.075 415.021L223.886 415.086L142.969 178.543L143.159 178.478ZM226.157 414.309L145.24 177.766L145.051 177.831L225.968 414.374L226.157 414.309ZM147.322 177.054L228.239 413.597L228.049 413.661L147.133 177.119L147.322 177.054ZM230.32 412.885L149.403 176.342L149.214 176.407L230.131 412.95L230.32 412.885ZM151.485 175.63L232.402 412.173L232.212 412.238L151.296 175.695L151.485 175.63ZM234.483 411.461L153.566 174.918L153.377 174.983L234.294 411.526L234.483 411.461ZM155.648 174.206L236.565 410.749L236.375 410.813L155.459 174.271L155.648 174.206ZM238.646 410.037L157.729 173.494L157.54 173.559L238.457 410.101L238.646 410.037ZM159.811 172.782L240.728 409.325L240.539 409.389L159.622 172.847L159.811 172.782ZM242.809 408.612L161.893 172.07L161.703 172.134L242.62 408.677L242.809 408.612ZM163.974 171.358L244.891 407.9L244.702 407.965L163.785 171.422L163.974 171.358ZM246.972 407.188L166.056 170.646L165.866 170.71L246.783 407.253L246.972 407.188ZM168.137 169.933L249.054 406.476L248.865 406.541L167.948 169.998L168.137 169.933ZM251.136 405.764L170.219 169.221L170.029 169.286L250.946 405.829L251.136 405.764ZM172.301 168.51L253.218 405.052L253.028 405.117L172.111 168.574L172.301 168.51ZM255.299 404.34L174.382 167.797L174.193 167.862L255.11 404.405L255.299 404.34ZM176.464 167.085L257.381 403.628L257.191 403.693L176.275 167.15L176.464 167.085ZM259.462 402.916L178.545 166.373L178.356 166.438L259.273 402.981L259.462 402.916ZM180.627 165.661L261.544 402.204L261.354 402.268L180.438 165.726L180.627 165.661ZM263.625 401.492L182.708 164.949L182.519 165.014L263.436 401.556L263.625 401.492ZM184.79 164.237L265.707 400.78L265.518 400.845L184.601 164.302L184.79 164.237ZM267.788 400.067L186.872 163.525L186.682 163.589L267.599 400.132L267.788 400.067ZM188.953 162.813L269.87 399.355L269.681 399.42L188.764 162.877L188.953 162.813ZM271.951 398.644L191.035 162.101L190.845 162.166L271.762 398.708L271.951 398.644ZM193.116 161.389L274.033 397.932L273.844 397.996L192.927 161.454L193.116 161.389ZM276.115 397.219L195.198 160.676L195.008 160.741L275.925 397.284L276.115 397.219ZM197.279 159.965L278.196 396.507L278.007 396.572L197.09 160.029L197.279 159.965ZM280.278 395.795L199.361 159.253L199.172 159.317L280.088 395.86L280.278 395.795ZM201.442 158.54L282.359 395.083L282.17 395.148L201.253 158.605L201.442 158.54ZM284.441 394.371L203.524 157.828L203.335 157.893L284.251 394.436L284.441 394.371ZM205.606 157.116L286.523 393.659L286.333 393.724L205.417 157.181L205.606 157.116ZM288.604 392.947L207.687 156.404L207.498 156.469L288.415 393.012L288.604 392.947ZM209.769 155.692L290.686 392.235L290.497 392.3L209.58 155.757L209.769 155.692ZM292.767 391.523L211.851 154.98L211.661 155.045L292.578 391.588L292.767 391.523ZM213.932 154.268L294.849 390.811L294.66 390.875L213.743 154.333L213.932 154.268ZM296.93 390.099L216.014 153.556L215.824 153.621L296.741 390.163L296.93 390.099ZM218.095 152.844L299.012 389.387L298.823 389.451L217.906 152.909L218.095 152.844ZM301.094 388.674L220.177 152.132L219.987 152.196L300.904 388.739L301.094 388.674ZM222.258 151.42L303.175 387.962L302.986 388.027L222.069 151.484L222.258 151.42ZM305.257 387.25L224.34 150.708L224.151 150.772L305.067 387.315L305.257 387.25ZM226.421 149.996L307.338 386.539L307.149 386.603L226.232 150.061L226.421 149.996ZM309.42 385.826L228.503 149.283L228.314 149.348L309.23 385.891L309.42 385.826ZM230.584 148.572L311.501 385.114L311.312 385.179L230.395 148.636L230.584 148.572ZM313.583 384.402L232.666 147.86L232.477 147.924L313.394 384.467L313.583 384.402ZM234.748 147.147L315.664 383.69L315.475 383.755L234.558 147.212L234.748 147.147ZM317.746 382.978L236.829 146.435L236.64 146.5L317.557 383.043L317.746 382.978ZM238.911 145.723L319.828 382.266L319.639 382.331L238.722 145.788L238.911 145.723ZM321.909 381.554L240.993 145.011L240.803 145.076L321.72 381.618L321.909 381.554ZM243.074 144.299L323.991 380.842L323.802 380.907L242.885 144.364L243.074 144.299ZM326.073 380.13L245.156 143.587L244.966 143.652L325.883 380.195L326.073 380.13ZM247.237 142.875L328.154 379.417L327.965 379.482L247.048 142.939L247.237 142.875ZM330.236 378.706L249.319 142.163L249.13 142.228L330.046 378.77L330.236 378.706ZM251.4 141.451L332.317 377.994L332.128 378.058L251.211 141.516L251.4 141.451ZM334.399 377.281L253.482 140.739L253.293 140.803L334.209 377.346L334.399 377.281ZM255.563 140.027L336.48 376.569L336.291 376.634L255.374 140.091L255.563 140.027ZM338.562 375.857L257.645 139.315L257.456 139.379L338.373 375.922L338.562 375.857ZM259.727 138.603L340.643 375.146L340.454 375.21L259.537 138.667L259.727 138.603ZM342.725 374.433L261.808 137.89L261.619 137.955L342.536 374.498L342.725 374.433ZM263.89 137.178L344.806 373.721L344.617 373.786L263.7 137.243L263.89 137.178ZM346.888 373.009L265.971 136.467L265.782 136.531L346.699 373.074L346.888 373.009ZM268.053 135.754L348.97 372.297L348.781 372.362L267.864 135.819L268.053 135.754ZM351.052 371.585L270.135 135.042L269.945 135.107L350.862 371.65L351.052 371.585ZM272.216 134.33L353.133 370.873L352.944 370.938L272.027 134.395L272.216 134.33ZM355.215 370.161L274.298 133.618L274.109 133.683L355.025 370.225L355.215 370.161ZM276.379 132.906L357.296 369.449L357.107 369.513L276.19 132.971L276.379 132.906ZM359.378 368.737L278.461 132.194L278.272 132.259L359.188 368.802L359.378 368.737ZM280.542 131.482L361.459 368.024L361.27 368.089L280.353 131.546L280.542 131.482ZM363.541 367.313L282.624 130.77L282.435 130.834L363.352 367.377L363.541 367.313ZM284.706 130.058L365.622 366.601L365.433 366.665L284.516 130.123L284.706 130.058ZM367.704 365.888L286.787 129.345L286.598 129.41L367.515 365.953L367.704 365.888ZM288.869 128.634L369.785 365.176L369.596 365.241L288.679 128.698L288.869 128.634ZM371.867 364.464L290.951 127.922L290.761 127.986L371.678 364.529L371.867 364.464ZM293.032 127.209L373.949 363.752L373.76 363.817L292.843 127.274L293.032 127.209ZM376.031 363.04L295.114 126.497L294.925 126.562L375.841 363.105L376.031 363.04ZM297.195 125.785L378.112 362.328L377.923 362.393L297.006 125.85L297.195 125.785ZM380.194 361.616L299.277 125.073L299.088 125.138L380.004 361.68L380.194 361.616ZM301.358 124.361L382.275 360.904L382.086 360.969L301.169 124.426L301.358 124.361ZM384.357 360.192L303.44 123.649L303.251 123.714L384.167 360.257L384.357 360.192ZM305.521 122.937L386.438 359.479L386.249 359.544L305.332 123.001L305.521 122.937ZM388.52 358.768L307.603 122.225L307.414 122.29L388.331 358.832L388.52 358.768ZM309.685 121.513L390.601 358.056L390.412 358.12L309.495 121.578L309.685 121.513ZM313.848 120.089L394.765 356.631L394.576 356.696L313.659 120.153L313.848 120.089ZM396.846 355.919L315.93 119.377L315.74 119.441L396.657 355.984L396.846 355.919ZM318.011 118.664L398.928 355.207L398.739 355.272L317.822 118.729L318.011 118.664ZM401.01 354.495L320.093 117.952L319.904 118.017L400.82 354.56L401.01 354.495ZM322.174 117.24L403.091 353.783L402.902 353.848L321.985 117.305L322.174 117.24ZM405.173 353.071L324.256 116.529L324.067 116.593L404.983 353.136L405.173 353.071ZM326.337 115.816L407.254 352.359L407.065 352.424L326.148 115.881L326.337 115.816ZM409.336 351.647L328.419 115.104L328.23 115.169L409.146 351.712L409.336 351.647ZM330.5 114.392L411.417 350.935L411.228 351L330.311 114.457L330.5 114.392ZM413.499 350.223L332.582 113.68L332.393 113.745L413.31 350.287L413.499 350.223ZM334.664 112.968L415.58 349.511L415.391 349.575L334.474 113.033L334.664 112.968ZM417.662 348.799L336.746 112.256L336.556 112.321L417.473 348.864L417.662 348.799ZM338.827 111.544L419.744 348.086L419.555 348.151L338.638 111.608L338.827 111.544ZM421.825 347.375L340.909 110.832L340.719 110.897L421.636 347.439L421.825 347.375ZM342.99 110.12L423.907 346.663L423.718 346.727L342.801 110.185L342.99 110.12ZM425.989 345.95L345.072 109.407L344.883 109.472L425.799 346.015L425.989 345.95ZM347.153 108.696L428.07 345.238L427.881 345.303L346.964 108.76L347.153 108.696ZM430.152 344.526L349.235 107.984L349.046 108.048L429.962 344.591L430.152 344.526ZM351.316 107.271L432.233 343.814L432.044 343.879L351.127 107.336L351.316 107.271ZM434.315 343.102L353.398 106.559L353.209 106.624L434.125 343.167L434.315 343.102ZM355.479 105.847L436.396 342.39L436.207 342.455L355.29 105.912L355.479 105.847ZM438.478 341.678L357.561 105.135L357.372 105.2L438.289 341.742L438.478 341.678ZM359.643 104.423L440.56 340.966L440.371 341.031L359.454 104.488L359.643 104.423ZM442.641 340.254L361.725 103.711L361.535 103.776L442.452 340.319L442.641 340.254ZM363.806 102.999L444.723 339.542L444.534 339.606L363.617 103.064L363.806 102.999ZM446.804 338.83L365.888 102.287L365.698 102.352L446.615 338.894L446.804 338.83ZM367.969 101.575L448.886 338.118L448.697 338.182L367.78 101.64L367.969 101.575ZM450.968 337.405L370.051 100.863L369.862 100.927L450.778 337.47L450.968 337.405ZM372.132 100.151L453.049 336.693L452.86 336.758L371.943 100.215L372.132 100.151ZM455.131 335.981L374.214 99.4387L374.025 99.5034L454.941 336.046L455.131 335.981ZM376.295 98.7263L457.212 335.269L457.023 335.334L376.106 98.791L376.295 98.7263ZM459.294 334.557L378.377 98.0144L378.188 98.0791L459.104 334.622L459.294 334.557ZM380.458 97.3025L461.375 333.845L461.186 333.91L380.269 97.3672L380.458 97.3025ZM463.457 333.133L382.541 96.5901L382.351 96.6548L463.268 333.198L463.457 333.133ZM384.622 95.8781L465.539 332.421L465.35 332.486L384.433 95.9429L384.622 95.8781ZM467.62 331.709L386.704 95.1662L386.514 95.231L467.431 331.774L467.62 331.709ZM388.785 94.4538L469.702 330.997L469.513 331.061L388.596 94.5186L388.785 94.4538ZM471.783 330.285L390.867 93.7419L390.677 93.8067L471.594 330.349L471.783 330.285Z" fill="#939393"/>
</g>
<path d="M157.891 385.507L116.391 260.007L332.391 186.007L374.391 313.507L157.891 385.507Z" fill="white"/>
<path d="M168.891 364.507L137.391 270.507L322.391 208.507L352.891 301.007L168.891 364.507Z" fill="#85D653"/>
<path d="M94.6282 232.905C63.3212 245.639 50.3579 265.449 47.7896 273.763C58.0901 272.952 66.8156 278.764 69.8909 281.772C75.2439 261.739 90.4377 246.727 97.3655 241.726C100.711 242.267 107.22 242.821 106.49 240.712C105.76 238.603 107.673 238.008 108.72 237.975C114.073 235.055 107.774 230.067 103.955 227.938C99.3323 225.505 95.811 230.236 94.6282 232.905Z" fill="#F3BF92"/>
<path d="M36.4255 296.248C36.3943 296.36 36.3636 296.47 36.3335 296.578C36.3335 296.467 36.3647 296.357 36.4255 296.248C38.5308 288.725 43.0972 274.123 45.2551 273.368C47.9925 272.41 64.5178 274.22 71.6146 283.482L70.0939 290.722C59.2597 291.406 37.9948 293.438 36.4255 296.248Z" fill="#FC8497"/>
<path d="M132.968 398.68C99.3377 402.039 78.6239 390.575 72.4708 384.423C81.958 380.33 86.9596 371.116 88.2745 367.02C102.363 382.235 122.808 388.415 131.27 389.603C133.976 387.562 139.472 384.033 139.812 386.238C140.151 388.444 142.12 388.077 143.062 387.617C149.159 387.7 145.918 395.052 143.535 398.718C140.583 403.028 135.26 400.489 132.968 398.68Z" fill="#F3BF92"/>
<path d="M71.2174 386.37C69.0362 387.126 51.346 374.373 53.9697 368.373C55.6996 370.624 71.8811 362.073 81.2156 355.751L88.3391 366.749C88.0871 378.067 73.9438 385.425 71.2174 386.37Z" fill="#FC8497"/>
<path d="M64.2471 290.968C55.5064 284.639 51.6375 288.33 50.5392 291.568C59.4204 315.055 76.6199 361.185 76.1323 362.485C75.6405 363.796 77.84 365.354 79.0012 365.969C83.9192 365.149 86.9247 358.933 87.8127 355.928C92.5668 354.78 97.7171 348.072 99.6979 344.862C104.206 333.182 96.4192 319.452 98.0586 319.452C99.6979 319.452 100.108 317.813 100.927 314.124C101.583 311.173 97.3755 309.616 95.1897 309.206L88.8373 299.985C80.9684 288.181 69.1651 289.056 64.2471 290.968Z" fill="#F2BD90"/>
<path d="M28.2495 298.496C34.3518 293.378 61.3042 290.622 74.0176 289.884C81.3843 291.478 84.6213 300.94 85.319 305.471V298.496C90.9445 301.744 95.2418 315.516 96.6872 321.996C98.5624 327.341 94.5777 334.849 92.3509 337.935C94.7886 338.873 97.4295 332.935 98.4452 329.849C103.883 347.288 87.2723 355.789 78.2871 357.859C75.6618 365.36 61.3323 368.329 54.4958 368.876C54.9646 370.282 55.6209 373.142 54.4958 373.329C53.0894 373.564 49.2218 375.79 51.4486 378.838C53.23 381.275 55.6287 379.853 56.6053 378.838V383.291C51.4486 385.916 48.6141 382.975 47.8415 381.176C48.2917 376.524 48.6819 367.159 46.6409 366.919C44.0897 366.619 39.2874 366.169 38.387 366.169C20.4985 366.289 11.9399 359.816 9.8967 356.564C-1.85029 350.081 -1.16079 334.228 0.652333 327.111C2.04354 321.181 11.1779 307.433 15.5712 301.301C15.2051 299.104 12.0016 300.02 10.4457 300.752C9.89652 296.084 16.6846 298.006 17.6763 298.006C16.6994 294.162 13.2834 295.718 12.5508 294.436C11.9647 293.411 8.40152 294.558 6.69319 295.26C6.32708 293.503 8.67632 292.026 9.8967 291.508C17.2188 290.043 18.6532 297.091 20.3307 297.457C22.0082 297.823 21.246 297.731 21.6121 295.26C21.9782 292.789 15.9377 289.884 13.2834 287.178C10.6291 284.471 11.3616 282.63 14.7481 279.975C18.1345 277.321 25.5482 285.101 22.1617 283.545C19.4525 282.3 17.3815 283.644 16.6846 284.471C16.094 285.258 17.7509 286.603 18.6532 287.178C20.1296 288.08 23.6729 289.884 26.0351 289.884C28.3973 289.884 28.4957 295.626 28.2495 298.496Z" fill="#E58A31"/>
<path d="M3.2251 322.003L3.33792 320.333L20.3239 332.676L20.1013 334.952L3.2251 322.003Z" fill="#CA3861"/>
<path d="M21.9945 340.671L18.0552 361.306L20.2791 360.116L24.4659 341.495L21.9945 340.671Z" fill="#CA3861"/>
<path d="M3.46826 320.339C3.58812 319.259 11.4218 311.185 15.3237 307.283C24.8081 309.213 26.4786 323.995 26.1283 331.145C28.7949 332.527 28.8007 336.307 28.3011 338.941C36.5336 341.319 35.4717 346.096 38.774 348.104C41.4159 349.711 40.4486 355.076 39.6347 357.557C36.6333 358.808 29.4599 361.579 24.7776 362.66C20.0954 363.74 18.3246 362.209 18.0244 361.309L20.2765 360.108L24.0197 341.475C21.5167 341.406 19.342 339.557 20.2765 333.246C20.4266 331.745 3.31845 321.69 3.46826 320.339Z" fill="#FE859B"/>
<path d="M26.2056 331.042C22.4593 329.793 20.6993 332.095 20.2876 333.402C20.5296 332.167 21.7105 330.737 23.0174 330.475C24.3244 330.214 25.5641 330.376 26.2056 331.042Z" fill="#F3657F"/>
<path d="M28.3472 338.872C26.2503 342.194 23.4993 341.667 22.386 340.988C23.3253 341.724 25.1016 341.995 26.2592 341.34C27.4169 340.685 28.2642 339.767 28.3472 338.872Z" fill="#F3657F"/>
<path d="M196.072 282C184.819 282.358 182.75 291.379 183.122 295.844L199.05 290.336C199.764 286.942 197.362 283.365 196.072 282Z" fill="#F18124"/>
<path d="M191.756 292.345C189.672 292.345 186.769 288.872 185.578 287.135C187.439 283.042 193.691 281.405 196.073 281.851C197.978 282.208 199 287.607 199.273 290.261C197.636 290.956 193.84 292.345 191.756 292.345Z" fill="#E5D6AE"/>
<path d="M246.536 254.09L215.425 263.989C215.008 258.451 223.488 253.594 227.78 251.857C237.664 249.535 244.403 252.378 246.536 254.09Z" fill="#69A15F"/>
<path d="M288.086 240.775C285.875 240.851 281.002 247.541 278.842 250.877C282.197 250.877 284.729 258.884 285.904 262.505C294.831 259.329 313.532 252.211 314.295 252.211C306.48 244.873 290.85 240.679 288.086 240.775Z" fill="#DB4A47"/>
<path d="M297.618 252.4L303.146 250.589L299.333 241.726L294.092 242.87L297.618 252.4Z" fill="#FEC73E"/>
<path d="M203.891 289.007L172.391 299.507C165.591 303.107 164.891 311.341 165.391 315.007L193.891 399.507C198.691 406.707 206.225 406.841 209.391 406.007L353.391 358.007C358.591 354.007 359.225 346.674 358.891 343.507L330.891 261.007C329.691 253.007 319.391 251.674 314.391 252.007L285.891 262.507C285.491 250.107 273.892 245.507 268.391 246.507C251.725 251.507 216.191 262.707 207.391 267.507C198.591 272.307 201.391 283.841 203.891 289.007Z" fill="#292929"/>
<path d="M230.892 286.507L226.892 273.007L252.392 264.007L257.892 277.507L230.892 286.507Z" fill="#1A1A1A"/>
<path d="M288.392 278.007L176.892 314.507L202.392 395.007L316.392 357.507L288.392 278.007Z" fill="#18171C"/>
<path d="M286.392 288.007L185.392 321.007L206.392 385.507L307.892 351.507L286.392 288.007Z" fill="#3F92D7"/>
<path d="M208.892 381.007L189.892 323.007L284.392 292.007L303.392 350.507L208.892 381.007Z" fill="#83D754"/>
<path d="M211.892 350.507L197.892 346.507L206.392 372.507C206.392 369.307 208.392 368.507 209.392 368.507C209.392 371.841 209.892 378.507 211.892 378.507C214.392 378.507 212.892 373.007 214.392 371.007C215.892 369.007 216.892 372.507 218.392 374.007C219.592 375.207 222.225 373.507 223.392 372.507L217.392 366.507C220.392 366.507 226.292 366.107 225.892 364.507C225.392 362.507 217.392 360.507 215.392 360.507C213.792 360.507 214.058 359.507 214.392 359.007C219.192 358.207 219.725 356.007 219.392 355.007C218.058 354.674 214.592 354.007 211.392 354.007C208.192 354.007 208.058 353.341 208.392 353.007C211.592 351.807 212.058 350.841 211.892 350.507Z" fill="#419C64"/>
<path d="M231.117 341.115C227.382 341.774 227.425 334.495 227.913 330.772C226.793 330.772 223.796 331.385 220.774 333.833C217.753 336.282 219.515 346.115 220.774 350.725C229.707 362.367 241.154 359.054 245.761 355.942C249.941 352.312 259.618 345.051 264.89 345.051C271.48 345.051 278.345 350.725 285.484 352.739C291.195 354.35 299.945 352.068 303.606 350.725L299.487 341.115C296.924 346.607 282.738 343.861 280.175 341.847C277.612 339.834 270.473 338.552 266.812 336.173C263.151 333.793 255.737 335.349 251.71 338.552C247.683 341.756 235.785 340.291 231.117 341.115Z" fill="#D18E4A"/>
<path d="M235.602 320.155C237.359 324.914 244.998 327.081 248.598 327.569L256.653 326.013C266.073 324.194 267.91 315.671 267.636 311.552C266.684 305.621 258.514 302.918 254.547 302.308C249.697 303.925 239.757 307.287 238.805 307.799C237.615 308.44 233.405 314.206 235.602 320.155Z" fill="#69A15F"/>
<path d="M258.206 333.135L251.201 334.85L250.268 323.765L249.815 318.394L248.842 306.831L250.629 306.402L253.301 315.829L255.255 322.725L258.206 333.135Z" fill="#A05138"/>
<path d="M249.815 318.394L248.842 306.831L250.629 306.402L253.301 315.829M249.815 318.394C248.875 317.53 247.466 316.133 246.171 314.644M249.815 318.394L250.268 323.765M243.052 309.833C243.357 311.115 244.689 312.94 246.171 314.644M246.171 314.644C246.711 312.659 247.466 308.575 246.171 308.117M253.301 315.829C254.364 315.403 256.404 313.778 256.061 310.691M253.301 315.829L255.255 322.725M256.061 310.691C255.585 310.119 254.674 308.632 254.846 307.26M256.061 310.691C256.657 310.119 257.805 308.632 257.634 307.26M255.255 322.725L258.206 333.135L251.201 334.85L250.268 323.765M255.255 322.725C256.93 321.596 260.364 319.054 260.707 317.91M260.707 317.91C262.018 318 264.638 317.71 264.638 315.829M260.707 317.91C261.565 316.647 263.223 313.778 262.994 312.406M260.707 317.91C260.064 316.79 259.163 313.778 260.707 310.691M250.268 323.765C248.758 323.488 246.184 322.633 243.695 320.984M238.478 315.408C239.772 317.846 241.707 319.668 243.695 320.984M243.695 320.984C242.528 321.222 239.85 321.155 238.478 318.982M243.695 320.984C243.647 319.054 242.881 314.851 240.193 313.478" stroke="#A05138"/>
<path d="M207.479 333.145C207.217 328.18 209.818 321.499 218.128 322.962C219.391 323.899 221.244 327.925 218.553 336.539C218.487 337.369 219.559 339.026 224.375 339.008C227.034 339.219 232.613 338.861 233.664 335.734C234.016 334.689 234.408 334.141 235.284 333.76L234.651 332.785C234.304 332.318 233.959 331.854 234.032 331.831C234.153 331.792 236.904 333.172 237.028 333.141C237.863 332.938 238.151 332.884 238.905 333.018L238.436 331.966C238.19 331.482 237.955 331.017 238.019 331.033C238.138 331.062 240.62 332.985 240.733 333.018C241.733 333.318 241.985 334.049 242.296 334.414C243.214 335.49 243.933 339.059 245.468 338.679L246.006 338.22C246.684 338.107 247.916 338.171 247.422 339.336C246.824 340.746 246.657 342.66 242.013 343.777C241.717 343.848 241.457 344.042 241.364 344.332C241.06 345.273 240.954 346.832 242.223 347.951C242.515 348.476 242.893 349.609 242.064 349.945C241.028 350.364 239.64 348.185 238.541 348.389C237.442 348.593 238.14 351.413 237.42 351.582C236.623 351.768 235.847 351.711 234.924 349.269C234.762 348.841 234.345 348.555 233.888 348.587L232.072 348.715C231.497 348.756 231.084 349.271 231.207 349.835C231.511 351.226 231.934 352.835 231.28 353.1C230.347 353.477 229.18 351.529 228.344 349.625C228.181 349.252 227.802 349.018 227.397 349.053C226.875 349.098 226.495 349.565 226.537 350.087C226.67 351.725 226.685 353.7 226.217 353.7C225.974 353.7 224.259 354.485 223.132 344.449C223.069 343.885 222.556 343.482 221.991 343.529C217.203 343.925 209.194 342.749 207.479 333.145Z" fill="#F18124"/>
<path d="M231.935 341.675C230.978 342.185 232.054 344.944 232.328 345.745C232.704 347.366 234.472 347.55 234.836 347.737C235.2 347.924 236.351 347.779 238.02 346.648C239.689 345.518 240.942 344.951 240.301 344.027C240.023 343.625 238.731 343.965 237.94 344.416C237.564 344.63 237.099 344.785 236.684 344.665L234.84 344.131C234.607 344.063 234.406 343.914 234.281 343.706C233.488 342.388 232.969 341.125 231.935 341.675Z" fill="#E5D6AE"/>
<path d="M219.624 331.815C218.689 334.202 211.109 329.215 208.81 327.052C210.48 323.493 213.629 322.291 218.188 322.822C219.905 324.446 220.529 329.504 219.624 331.815Z" fill="#E5D6AE"/>
<circle cx="246.595" cy="338.906" r="1.02686" transform="rotate(4.54692 246.595 338.906)" fill="#A05138"/>
<ellipse cx="236.241" cy="337.397" rx="0.430361" ry="0.464111" transform="rotate(4.54692 236.241 337.397)" fill="#2E2C2B"/>
<ellipse cx="239.789" cy="336.757" rx="0.460244" ry="0.496338" transform="rotate(4.54692 239.789 336.757)" fill="#2E2C2B"/>
<path d="M238.147 341.685C240.228 343.044 242.134 343.553 242.902 343.532C242.902 343.532 242.22 343.785 241.743 343.847C240.856 343.962 239.246 342.457 238.147 341.685Z" fill="#2E2C2B"/>
<circle cx="315.374" cy="299.33" r="8.30396" fill="#333333"/>
<circle cx="318.423" cy="277.913" r="9.10474" fill="#CFCFD1" stroke="#1E1E1E"/>
<circle cx="328.028" cy="326.362" r="17.0081" fill="#1A1A1A"/>
<circle cx="281.306" cy="386.015" r="15.3765" fill="#333333"/>
<path d="M282.878 316.4C281.267 313.179 285.594 305.224 287.516 301.868L291.549 313.537C289.2 314.391 283.464 316.4 282.878 316.4Z" fill="#DB4A47"/>
<path d="M297.089 331.203C287.278 330.91 284.823 320.513 284.854 315.845L291.56 313.541L297.089 331.203Z" fill="#FEC73E"/>
<path d="M289.247 323.004C288.282 319.932 289.244 317.638 292.525 316.66L295.485 325.564C293.807 325.99 290.211 326.076 289.247 323.004Z" fill="#553317"/>
<path d="M124.794 231.919C114.794 224.719 118.961 200.919 122.294 189.919L144.794 204.419C139.994 208.019 141.128 214.919 142.294 217.919C141.494 220.319 154.961 228.919 161.794 232.919C163.461 231.919 167.594 230.019 170.794 230.419C173.994 230.819 173.128 232.919 172.294 233.919C167.094 233.919 166.461 235.919 166.794 236.919C170.128 238.252 176.994 241.419 177.794 243.419C178.594 245.419 177.128 245.586 176.294 245.419L168.794 242.419C166.394 242.419 166.461 244.086 166.794 244.919L174.794 250.919C175.194 253.319 173.294 253.586 172.294 253.419C170.461 252.086 166.494 249.219 165.294 248.419C164.094 247.619 163.794 248.086 163.794 248.419C164.794 249.919 166.994 253.519 167.794 255.919C168.594 258.319 166.794 258.586 165.794 258.419L159.794 249.919L160.794 258.419C159.794 259.919 159.294 259.419 157.794 258.919C156.594 258.519 155.961 252.752 155.794 249.919C154.194 248.719 153.461 245.419 153.294 243.919C144.894 244.319 130.794 236.086 124.794 231.919Z" fill="#F5C192"/>
<path d="M119.891 198.233L122.391 189.233L144.891 203.733L140.891 210.233L139.891 204.233C136.891 202.566 130.291 198.833 127.891 197.233C124.891 195.233 123.391 196.733 122.391 197.733C121.591 198.533 120.391 198.4 119.891 198.233Z" fill="#F4A672"/>
<path d="M119.391 187.233C118.591 185.633 127.058 170.9 131.391 163.733L152.391 193.233L144.891 204.733C138.391 203.233 120.391 189.233 119.391 187.233Z" fill="#FFC44D"/>
<path d="M233.391 143.233L211.891 129.233V163.733L219.391 170.233C229.791 164.633 233.058 149.9 233.391 143.233Z" fill="#FFC44D"/>
<path d="M178.891 192.733C168.091 196.733 159.391 194.4 156.391 192.733C155.591 189.533 188.725 180.4 205.391 176.233V179.233C205.391 180.733 198.891 184.733 194.391 187.733C189.891 190.733 193.391 189.733 191.391 193.233C189.791 196.033 187.058 195.4 185.891 194.733C183.391 191.733 179.391 192.733 178.891 192.733Z" fill="#F5C192"/>
<path d="M264.891 207.233C262.891 179.233 242.724 155.233 232.891 146.733C232.891 156.333 225.224 166.066 221.391 169.733C231.391 172.933 237.891 181.4 239.891 185.233C242.691 188.433 251.724 201.9 255.891 208.233L254.891 214.233C253.558 215.233 251.491 217.333 253.891 217.733C256.891 218.233 257.391 221.733 258.891 223.233C260.091 224.433 261.724 223.4 262.391 222.733C263.558 222.9 265.791 223.033 265.391 222.233C264.991 221.433 265.558 220.566 265.891 220.233C266.558 220.233 267.891 219.933 267.891 218.733C267.891 217.533 269.224 216.9 269.891 216.733C270.691 212.333 266.891 208.566 264.891 207.233Z" fill="#F5C192"/>
<path d="M121.891 148.233C122.691 154.233 127.224 156.4 129.391 156.733C128.991 159.533 131.224 161.566 132.391 162.233C129.591 166.633 133.224 170.067 135.391 171.233C136.558 171.566 138.291 172.633 135.891 174.233C133.491 175.833 135.891 177.233 137.391 177.733C137.391 183.333 141.724 185.066 143.891 185.233C147.891 194.033 156.558 192.233 160.391 190.233C164.791 193.833 168.891 191.733 170.391 190.233C175.591 192.233 178.891 190.066 179.891 188.733C183.491 189.533 185.391 187.733 185.891 186.733C192.291 187.533 195.558 184.066 196.391 182.233C201.591 182.233 202.891 178.233 202.891 176.233C212.091 176.633 213.391 170.4 212.891 167.233C216.491 165.233 215.058 162.066 213.891 160.733C218.691 156.333 215.224 150.9 212.891 148.733C215.691 147.133 214.724 144.4 213.891 143.233C219.091 137.233 214.058 132.066 210.891 130.233C214.491 127.833 211.391 123.566 209.391 121.733C213.391 116.933 208.391 114.733 205.391 114.233C206.991 111.033 203.058 109.233 200.891 108.733C199.291 102.733 187.558 102.566 181.891 103.233C179.491 100.833 175.891 102.9 174.391 104.233C170.891 101.733 165.891 104.733 165.391 106.733C164.991 108.333 161.891 108.066 160.391 107.733C157.191 104.933 154.391 106.566 153.391 107.733C146.191 106.933 144.058 112.4 143.891 115.233C139.891 114.433 138.558 118.566 138.391 120.733C130.791 121.533 128.891 128.066 128.891 131.233C127.391 131.733 124.291 133.333 123.891 135.733C123.491 138.133 126.391 140.4 127.891 141.233C125.558 141.066 121.091 142.233 121.891 148.233Z" fill="#52281A"/>
<path d="M174.391 130.733C174.724 129.233 176.191 126.333 179.391 126.733C181.558 126.9 185.491 128.133 183.891 131.733C186.391 132.566 190.991 135.333 189.391 139.733" stroke="#462012"/>
<path d="M162.891 151.233C161.058 150.566 157.091 150.033 155.891 153.233C155.391 154.899 155.391 158.733 159.391 160.733C158.558 162.399 157.991 165.833 162.391 166.233" stroke="#462012"/>
<path d="M174.891 145.733C178.724 145.066 185.691 146.033 182.891 155.233C185.891 155.899 190.091 158.333 182.891 162.733C184.724 164.066 187.291 167.233 182.891 169.233C181.391 169.566 178.291 169.833 177.891 168.233" stroke="#462012"/>
<path d="M201.891 144.733C204.558 145.566 209.591 148.433 208.391 153.233C207.558 155.066 205.391 158.833 203.391 159.233C204.891 159.566 207.891 160.733 207.891 162.733C207.558 163.733 206.391 165.633 204.391 165.233C206.391 166.9 208.991 170.333 203.391 170.733" stroke="#462012"/>
<path d="M165.391 179.733C166.058 181.066 167.991 183.733 170.391 183.733C172.175 183.733 173.701 182.444 174.64 181.303C175.06 180.794 175.852 180.691 176.342 181.132C177.602 182.265 179.27 183.544 179.891 183.233C180.691 182.833 182.558 181.4 183.391 180.733" stroke="#462012"/>
<path d="M149.391 172.733C148.391 173.9 146.791 176.733 148.391 178.733C149.991 180.733 151.725 180.9 152.391 180.733C152.391 183.4 153.991 188.533 160.391 187.733" stroke="#462012"/>
<path d="M143.891 160.233C141.558 159.733 137.491 157.733 139.891 153.733C137.224 152.233 132.491 147.833 134.891 142.233C135.724 140.399 138.491 137.033 142.891 138.233C143.391 135.566 145.491 130.433 149.891 131.233" stroke="#462012"/>
<path d="M156.891 123.233C157.391 120.733 159.691 116.433 164.891 119.233C166.224 117.566 169.591 115.233 172.391 119.233" stroke="#462012"/>
<path d="M185.891 111.733C186.891 112.4 188.991 114.033 189.391 115.233C191.391 113.4 196.191 110.633 199.391 114.233C200.891 115.9 203.191 119.933 200.391 122.733C202.058 123.233 204.891 124.933 202.891 127.733" stroke="#462012"/>
<path d="M329.431 180.321V140.626H333.194V180.321H329.431Z" fill="#D32121"/>
<path d="M333.075 140.68H329.408C329.325 139.751 329.619 137.951 331.453 138.176C333.286 138.402 333.298 139.939 333.075 140.68Z" fill="#E4FF3E"/>
<path d="M330.77 189.24L329.431 180.279H333.223L330.77 189.24Z" fill="#F4C091"/>
<path d="M337.648 99.8889L346.744 97.9595L353.36 131.587L343.023 132.828C330.454 116.069 334.203 103.886 337.648 99.8889Z" fill="#92E4C6"/>
<path d="M399.483 160.422L398.601 153.187L428.249 138.01L432.131 146.657C428.884 160.493 409.013 161.599 399.483 160.422Z" fill="#92E4C6"/>
<path d="M350.306 108.215C344.518 97.3436 349.071 93.6849 352.071 93.2144L427.073 131.862C432.862 130.733 433.485 134.333 433.073 136.274C431.379 140.086 424.132 142.333 420.72 142.98L414.014 150.745C407.661 155.969 387.013 152.922 377.483 150.745C376.601 151.922 374.06 153.993 370.954 152.863C367.848 151.734 367.307 148.157 367.424 146.51L357.895 138.392C344.059 124.556 347.071 112.509 350.306 108.215Z" fill="#F5C192"/>
<path d="M360.215 235.166C359.096 234.793 357.054 239.26 356.173 241.539C356.173 244.524 358.868 243.715 360.215 242.938C360.215 238.12 367.054 237.809 369.385 237.809C371.717 237.809 375.292 241.539 368.453 241.539C362.981 241.539 361.614 243.301 361.614 244.182C370.318 249.031 379.955 243.301 383.686 239.83H408.4C415.551 243.197 429.571 249.498 428.452 247.757C427.333 246.016 435.032 233.457 439.022 227.394C423.354 222.047 392.39 226.41 378.867 229.26C355.707 221.488 361.614 235.633 360.215 235.166Z" fill="#F4C091"/>
<path d="M367.305 297.705C392.263 304.697 412.502 301.346 419.503 298.797L428.243 320.769C404.742 326.207 375.074 313.081 363.178 305.838C353.345 304.745 350.068 301.832 351.403 295.519C352.471 290.47 357.189 290.502 359.415 291.149C361.842 289.596 365.686 294.872 367.305 297.705Z" fill="#F4C091"/>
<path d="M452.078 232.99C454.69 233.239 455.964 235.995 456.275 237.343C453.115 261.85 447.477 311.828 450.213 315.683C452.949 319.538 449.073 320.605 446.794 320.657C440.079 319.911 437.882 314.854 437.623 312.419C418.721 309.559 415.447 288.533 416.172 278.378C414.618 279 411.478 279.031 411.354 274.181C411.229 269.332 415.136 267.083 417.105 266.565C423.447 244.057 436.535 239.571 442.286 240.14C444.462 237.653 449.467 232.742 452.078 232.99Z" fill="#F4C091"/>
<path d="M471.197 235.477C448.192 222.793 440.472 224.597 439.488 227.084L428.918 244.648L471.197 235.477Z" fill="#D6F194"/>
<path d="M429.229 323.144C423.633 317.051 421.198 306.202 420.68 301.538L456.431 316.15C451.084 320.875 436.068 322.782 429.229 323.144Z" fill="#D6F194"/>
<path d="M363.568 69.3719C356.777 73.7658 353.415 88.1794 352.583 94.837C354.02 96.4442 353.887 98.6859 353.641 99.6059C351.073 105.218 348.687 112.884 347.815 116.016C346.982 118.988 347.41 125.79 355.782 129.215C366.246 133.495 365.889 134.209 364.7 134.328C363.749 134.423 359.864 133.812 358.041 133.495C384.296 156.612 399.422 147.804 403.703 140.511L401.8 144.792C401.8 146.694 394.427 149.945 390.741 151.332L402.632 152.164C410.908 152.164 422.728 137.261 427.604 129.809C432.74 127.811 437.253 117.237 438.867 112.199C444.131 87.2432 415.908 72.419 416.001 71.8619C416.076 71.4161 419.066 70.9951 420.552 70.8404C413.94 65.8629 407.086 67.7874 404.486 69.3719C405.229 64.6311 401.391 62.8656 399.379 62.5755C389.628 55.779 370.962 59.0467 366.319 63.4113C362.605 66.903 362.937 68.8399 363.568 69.3719Z" fill="#925C36" stroke="#925C36"/>
<path d="M401.966 75.351C403.133 73.7268 407.508 71.4531 415.669 75.351" stroke="#462012" stroke-linecap="round"/>
<path d="M402.293 75.126C400.683 75.9617 397.28 78.4551 397.057 79.9409" stroke="#462012" stroke-linecap="round"/>
<path d="M421.361 98.4593C420.611 92.4882 414.796 80.6191 401.173 75.8865" stroke="#462012" stroke-linecap="round"/>
<path d="M381.578 79.2481C383.244 75.7833 389.584 70.2337 401.615 75.7537" stroke="#462012" stroke-linecap="round"/>
<path d="M388.302 69.2521C391.707 68.9424 399.235 69.7561 402.101 75.4884" stroke="#462012" stroke-linecap="round"/>
<path d="M376.101 70.3141C374.674 67.7456 368.213 70.1952 365.161 71.7411C365.161 73.1681 364.329 73.7626 362.189 78.1623C361.594 80.4216 361.832 79.946 362.189 80.8972L362.195 80.9142C362.548 81.8557 362.773 82.4559 361.118 84.5835C359.454 85.6537 360.167 85.4158 359.81 86.3671C359.454 87.3184 361.118 87.3184 361.118 89.9344C359.454 91.3614 360.762 91.7181 361.118 93.3829C361.475 95.0476 361.832 95.0476 362.783 96.3556C363.734 97.6636 364.686 98.3771 365.994 98.3771C367.302 98.3771 368.134 98.496 369.204 98.3771C370.275 98.2582 370.037 97.4258 370.037 96.3556C370.037 95.2854 369.204 94.572 369.204 93.3829C369.204 92.1937 370.275 91.1236 370.75 90.6479C371.226 90.1723 372.415 88.0319 372.296 87.3184C372.201 86.7476 371.781 85.2573 371.583 84.5835L373.485 82.4431C373.287 81.9278 372.629 80.3503 371.583 78.1623C370.536 75.9743 374.159 72.0185 376.101 70.3141Z" fill="#99653D"/>
<path d="M377.885 118.205C376.172 116.374 369.538 117.442 366.435 118.205C365.02 118.73 362.759 120.28 365.042 122.278C367.896 124.775 368.61 125.964 369.799 128.105C370.988 130.245 370.75 128.937 379.431 129.056C388.111 129.175 381.452 129.413 382.998 130.721C384.544 132.029 385.019 132.623 387.279 133.456C389.538 134.288 389.657 133.456 394.532 133.456C399.407 133.456 398.456 133.456 400.002 134.288C401.548 135.12 403.688 135.953 406.661 136.072C409.634 136.191 408.564 135.12 410.942 134.288C413.32 133.456 413.201 133.694 416.174 133.456C419.147 133.218 418.314 132.623 419.147 131.315C419.979 130.007 420.692 129.769 421.763 128.105C422.833 126.44 425.33 123.11 425.925 122.278C426.519 121.446 429.73 118.205 429.849 114.073C429.967 109.941 430.324 112.052 431.513 110.03C432.702 108.009 432.465 110.03 433.654 107.295C434.843 104.56 434.129 105.868 434.248 104.085C434.367 102.301 433.654 102.539 431.513 99.8039C429.373 97.0689 429.373 97.6636 427.351 97.3069C425.33 96.9501 425.925 98.0203 425.33 99.8039C424.735 101.588 424.617 101.944 422.952 103.49C421.287 105.036 422.952 104.917 421.763 106.701C420.574 108.484 422.119 108.128 422.952 110.03C423.784 111.933 423.546 112.052 420.692 112.052C418.671 111.1 419.266 112.527 418.314 114.073C417.363 115.619 416.887 114.668 415.579 115.262C414.271 115.857 416.293 118.205 413.201 119.781C411.774 120.613 412.844 120.732 411.774 122.278C410.704 123.824 410.347 121.565 406.661 122.278C405.115 123.824 405.115 123.11 403.688 124.062C402.261 125.013 402.499 124.062 401.429 125.132C400.359 126.202 400.478 125.489 396.791 124.062C393.105 122.635 395.84 123.824 392.986 124.062C390.132 124.3 390.846 123.824 387.279 122.278C383.711 120.732 382.522 122.397 382.047 120.732C381.571 119.067 380.025 120.494 377.885 118.205Z" fill="#99653D"/>
<path d="M305.869 141.786C302.254 120.273 323.194 109.17 334.116 106.308C332.67 113.358 338.184 125.666 341.121 130.939C335.879 130.035 329.747 134.931 327.337 137.492C323.902 137.854 325.906 154.064 327.337 162.124C331.133 161.401 334.644 168.451 335.924 172.067C330.551 182.505 323.646 181.03 318.072 181.106C308.671 176.225 310.991 168.677 313.327 165.513C309.711 161.717 306.849 148.113 305.869 141.786Z" fill="#F4C091"/>
<path d="M340.944 130.765C334.577 118.049 333.494 109.605 334.11 106.308L328.808 108.098L323.871 110.39C325.143 110.39 328.964 110.933 330.352 112.321C331.739 113.708 333.435 125.195 334.11 130.765C333 131.227 331.335 133.732 330.641 134.927L340.944 130.765Z" fill="#F4A672"/>
<path d="M404.859 176.922C407.566 175.17 405.987 165.311 404.859 160.601C416.268 161.382 425.756 155.612 429.074 152.629C431.436 165.188 429.333 177.447 427.986 182.007C422.141 196.68 400.625 200.988 390.598 201.308C385.342 204.788 384.159 211.895 382.677 214.412C381.49 216.426 379.912 215.646 379.271 215.004C379.913 212.833 381.018 208.267 380.307 207.379C379.419 206.268 376.458 212.783 375.125 213.376C373.792 213.968 372.164 212.857 372.016 211.895C371.868 210.933 375.125 208.045 377.198 205.602C378.856 203.648 377.395 203.455 376.458 203.603C374.483 204.812 370.209 207.26 368.906 207.379C367.277 207.527 366.537 207.231 366.167 205.602C365.871 204.299 372.016 201.012 375.125 199.531C377.79 196.866 375.396 196.545 373.866 196.718C371.818 197.779 367.322 199.827 365.723 199.531C363.724 199.161 363.798 197.384 364.316 195.682C364.731 194.319 373.373 192.103 377.642 191.165C377.568 190.066 376.709 187.869 373.866 187.869C371.023 187.869 370.905 186.612 371.201 185.983C376.413 183.436 382.012 186.179 384.159 187.869C386.548 188.187 398.954 180.703 404.859 176.922Z" fill="#F4C091"/>
<path d="M430.298 160.563L429.546 152.006C423.591 160.042 404.839 160.505 405.032 161.083C406.003 163.997 405.562 166.737 406.051 168.376C405.935 163.404 419.775 161.199 423.129 159.349C425.812 157.869 429.026 159.541 430.298 160.563Z" fill="#F4A672"/>
<path d="M425.329 260.802C425.936 259.345 422.901 243.686 437.589 240.287C436.699 241.258 434.919 243.395 434.919 244.172C434.919 245.143 439.896 237.738 450.821 240.287C453.815 237.536 464.125 233.368 481.411 238.709C486.874 238.426 497.92 244.147 498.406 269.299C497.611 269.413 495.993 269.879 495.875 270.826C496.862 271.073 498.11 272.011 495.208 273.788C495.702 274.923 497.148 277.549 498.984 278.97C501.279 280.747 497.207 280.303 495.875 278.97C494.542 277.637 503.373 302.16 472.441 316.616C465.342 317.445 450.244 317.735 446.638 312.264C442.13 305.424 431.094 322.522 419.281 290.036L426.711 295.682C421.328 291.435 413.65 278.031 423.633 255.995L425.329 260.802Z" fill="#B78167"/>
</g>
<defs>
<linearGradient id="paint0_linear_71_8745" x1="398.27" y1="204.016" x2="110.298" y2="425.639" gradientUnits="userSpaceOnUse">
<stop offset="0.197156" stop-color="#D2D2D2"/>
<stop offset="0.349506" stop-color="#D2D2D2"/>
<stop offset="0.643201" stop-color="#D2D2D2"/>
<stop offset="1" stop-color="#A0A0A0"/>
</linearGradient>
<clipPath id="clip0_71_8745">
<rect width="537" height="469" fill="white"/>
</clipPath>
</defs>
</svg>
