<svg width="31" height="30" viewBox="0 0 31 30" fill="none" xmlns="http://www.w3.org/2000/svg">
<path fill-rule="evenodd" clip-rule="evenodd" d="M15.5 30C23.7843 30 30.5 23.2843 30.5 15C30.5 6.71573 23.7843 0 15.5 0C7.21573 0 0.5 6.71573 0.5 15C0.5 23.2843 7.21573 30 15.5 30ZM17.2108 12.3H19.5145C20.0878 12.3 20.5326 12.7689 20.4664 13.3026L20.2469 15.099C20.1913 15.5535 19.7819 15.8964 19.2949 15.8964L17.2108 15.8973V23.1C17.2108 23.5968 16.7813 24 16.2521 24H14.3347C13.8055 24 13.376 23.5968 13.376 23.1V15.8991L11.4587 15.9C10.9295 15.9 10.5 15.4968 10.5 15V13.2C10.5 12.7032 10.9295 12.3 11.4587 12.3H13.376V10.2291C13.376 7.49133 15.2742 6.00003 17.8751 6.00003C18.4561 5.99913 19.0361 6.01623 19.6151 6.05313C20.1156 6.08463 20.5 6.48693 20.5 6.95763V8.08623C20.5 8.58303 20.0705 8.98623 19.5413 8.98623H18.7092C17.2913 8.98623 17.2108 9.57123 17.2108 10.5V12.3Z" fill="#FD2066"/>
</svg>
