<svg width="89" height="138" viewBox="0 0 89 138" fill="none" xmlns="http://www.w3.org/2000/svg">
<path d="M25.8116 111.401C22.4568 105.904 17.1934 93.0089 22.9779 85.4035C28.6451 77.9524 29.5228 66.2925 29.2498 61.079C37.9413 68.0829 49.6655 66.0506 54.4411 64.159L56.5908 73.1806C62.3753 79.2339 64.082 83.8514 64.2123 85.4035C64.31 88.4431 64.5445 95.8415 64.7009 101.119C64.8572 106.396 58.6427 110.173 55.516 111.401H25.8116Z" fill="#FE7E4C"/>
<path d="M48.1158 106.593L23.0356 105.755L24.1883 108.527L25.7621 111.344L55.7018 111.722C64.8948 107.37 64.6866 104.148 64.6866 101.397C59.9575 107.049 55.4845 106.593 48.1158 106.593Z" fill="#AD502D"/>
<path d="M29.1122 66.4939L29.2587 61.0913C37.8877 68.0016 49.5012 65.6483 54.4201 64.1853L55.5827 68.95C45.142 75.1977 33.3235 69.9451 29.1122 66.4939Z" fill="#AD502D"/>
<path d="M42.7744 73.3296C38.6232 74.3599 35.9574 79.567 35.1435 82.0417C34.8723 83.627 33.4761 85.5039 33.7699 94.6934C34.0742 104.209 35.7794 109.668 36.5934 111.209C40.307 111.436 47.8565 111.754 48.3449 111.209C48.8332 110.663 49.5149 103.355 49.7947 99.7692C49.8202 98.3045 49.7642 93.163 49.3369 84.3145C48.9095 75.4659 44.7838 73.3043 42.7744 73.3296Z" fill="#F9D8B9"/>
<path d="M27.8775 0C22.3274 1.86786 19.372 16.4992 18.5881 23.5815L39.8715 19.729C37.4257 8.52199 30.8564 1.90674 27.8775 0Z" fill="#95583C"/>
<path d="M27.7557 7.53174C25.6499 9.22205 22.641 18.1755 21.4835 22.216L35.7086 19.5975C32.8859 12.8807 29.2306 8.75499 27.7557 7.53174Z" fill="#E78154"/>
<path d="M31.5006 20.4047L25.4753 11.1614C24.0743 13.8369 21.4774 21.9479 21.4769 22.2148C21.4769 22.2477 28.418 20.9386 31.5006 20.4047Z" fill="#EEA17A"/>
<path d="M80.9004 13.6023C84.4033 18.6982 77.5103 32.966 73.6259 39.4628L58.0671 22.7259C67.3371 14.7786 77.1518 13.3321 80.9004 13.6023Z" fill="#95583C"/>
<path d="M75.63 20.7681C76.3286 23.5333 73.1276 33.0241 71.5134 37.1802L61.1424 25.9568C67.8479 22.0526 73.5948 20.8709 75.63 20.7681Z" fill="#E78154"/>
<path d="M64.1895 29.3049L75.2311 25.2873C74.6999 28.4411 71.6908 36.9573 71.5198 37.1838C71.4988 37.2116 66.4584 31.7085 64.1895 29.3049Z" fill="#EEA17A"/>
<path d="M48.8044 20.2632C26.0382 16.4364 10.0076 26.4419 4.83801 31.923C11.3426 46.8714 29.2303 61.3713 37.3611 66.7528C58.6817 66.7528 76.1578 57.983 82.2308 53.5982C80.5746 44.081 71.5705 24.09 48.8044 20.2632Z" fill="#FE7E4C"/>
<path d="M29.7545 32.7364C20.6087 26.2175 9.33275 29.5028 4.83801 31.9603C13.0449 49.8594 35.5701 66.5755 37.1904 65.9405C38.3629 57.5655 38.9004 39.2553 29.7545 32.7364Z" fill="#F9D8B9"/>
<path d="M59.2403 41.4372C70.3474 39.6083 79.5297 49.2849 82.2337 53.6145C65.6519 65.2765 39.1162 67.8794 37.5072 66.2524C40.6208 58.3823 47.0236 43.4488 59.2403 41.4372Z" fill="#F9D8B9"/>
<ellipse cx="4.96139" cy="3.65655" rx="4.96139" ry="3.65655" transform="matrix(0.23938 -0.970926 0.971721 0.236133 33.4166 67.7778)" fill="#452E24"/>
<ellipse cx="28.9021" cy="42.1062" rx="4.41371" ry="4.38188" fill="#452E24"/>
<ellipse cx="55.7851" cy="50.1587" rx="4.41371" ry="4.38188" fill="#452E24"/>
<ellipse cx="27.7544" cy="40.7395" rx="1.37661" ry="1.36668" fill="white"/>
<ellipse cx="54.4086" cy="48.7922" rx="1.37661" ry="1.36668" fill="white"/>
<path d="M86.2632 112.918C87.8012 93.9587 72.0869 85.9814 63.9695 84.0728C63.9695 86.8345 63.9392 93.3495 64.3623 99.6356C64.7854 105.922 61.9065 107.633 55.1937 111.338L22.737 110.694C5.30523 112.402 0.468387 129.43 0.228943 137.731C5.61209 133.15 22.9527 133.932 30.9099 134.621H44.6882H58.4665C77.692 133.73 84.9815 119.599 86.2632 112.918Z" fill="#FE7E4C"/>
<path d="M22.2979 110.706C4.51976 113.201 0.48327 130.155 0.228943 137.731C1.32468 136.663 3.97879 135.064 12.7017 134.342L29.8172 134.527C29.2277 134.065 27.8785 132.548 25.9797 132.401C24.0809 132.253 24.63 131.446 25.142 131.061L35.7065 128.473C33.5811 128.35 28.6604 128.113 25.9797 128.15C23.299 128.187 23.3735 127.58 23.7458 127.272L27.8413 125.054C27.3138 125.069 25.7563 125.026 23.7458 124.731C21.7353 124.435 22.1325 123.56 22.5825 123.16L34.031 119.972C31.3162 119.694 25.4584 119.085 23.7458 118.863C22.0331 118.641 22.4737 118.031 22.9081 117.754L32.5418 112.902L20.7672 114.104L22.2979 110.706Z" fill="#F9D8B9"/>
</svg>
