<svg width="31" height="30" viewBox="0 0 31 30" fill="none" xmlns="http://www.w3.org/2000/svg">
<path fill-rule="evenodd" clip-rule="evenodd" d="M15.5 30C23.7843 30 30.5 23.2843 30.5 15C30.5 6.71573 23.7843 0 15.5 0C7.21573 0 0.5 6.71573 0.5 15C0.5 23.2843 7.21573 30 15.5 30ZM8.5 11.7897C8.5 9.70001 10.2 8 12.2897 8H18.7103C20.8 8 22.5 9.70001 22.5 11.7897V18.2104C22.5 20.3 20.8 22 18.7104 22H12.2897C10.2 22 8.5 20.3 8.5 18.2104V11.7897ZM11.672 15C11.672 12.8892 13.3892 11.172 15.5 11.172C17.6108 11.172 19.328 12.8892 19.328 15C19.328 17.1108 17.6108 18.828 15.5 18.828C13.3892 18.828 11.672 17.1108 11.672 15ZM12.4927 15C12.4927 16.6582 13.8419 18.0073 15.5 18.0073C17.1582 18.0073 18.5073 16.6582 18.5073 15C18.5073 13.3419 17.1582 11.9927 15.5 11.9927C13.8419 11.9927 12.4927 13.3419 12.4927 15ZM19.4196 9.81248C18.7958 9.81248 18.2884 10.3199 18.2884 10.9436C18.2884 11.5674 18.7958 12.0749 19.4196 12.0749C20.0433 12.0749 20.5508 11.5674 20.5508 10.9436C20.5508 10.3198 20.0433 9.81248 19.4196 9.81248ZM19.4196 11.254C19.2484 11.254 19.1092 11.1147 19.1092 10.9436C19.1092 10.7724 19.2484 10.6332 19.4196 10.6332C19.5908 10.6332 19.7301 10.7724 19.7301 10.9436C19.7301 11.1147 19.5908 11.254 19.4196 11.254Z" fill="#FD2066"/>
</svg>
