<svg width="41" height="40" viewBox="0 0 41 40" fill="none" xmlns="http://www.w3.org/2000/svg">
<path fill-rule="evenodd" clip-rule="evenodd" d="M20.5 40C31.5457 40 40.5 31.0457 40.5 20C40.5 8.9543 31.5457 0 20.5 0C9.4543 0 0.5 8.9543 0.5 20C0.5 31.0457 9.4543 40 20.5 40ZM14.9713 14.6845C14.9713 11.5451 17.3634 9 20.314 9C23.2646 9 25.6566 11.5451 25.6566 14.6845C25.6566 17.8238 23.2646 20.3689 20.314 20.3689C17.3634 20.3689 14.9713 17.8238 14.9713 14.6845ZM22.2824 14.6845C22.2824 13.5274 21.401 12.5901 20.314 12.5901C19.2265 12.5901 18.3456 13.5279 18.3456 14.6845C18.3456 15.8415 19.227 16.7788 20.314 16.7788C21.401 16.7788 22.2824 15.841 22.2824 14.6845ZM23.6835 20.6879C24.0171 20.4739 24.3952 20.3738 24.7753 20.3932C24.902 20.3996 25.029 20.4194 25.1548 20.4527C25.6585 20.5855 26.0824 20.9195 26.35 21.3924C26.6177 21.8652 26.6969 22.4209 26.572 22.9568C26.4472 23.4927 26.1333 23.9438 25.6889 24.2285C24.9793 24.6833 24.2192 25.045 23.4207 25.3085L26.1252 28.2789C26.8509 29.1471 26.7777 30.4559 25.9772 31.213C25.6207 31.5494 25.1626 31.7348 24.6871 31.7348C24.1325 31.7348 23.6029 31.4827 23.2348 31.0414L20.314 27.8328L17.3808 31.0586C17.0064 31.5066 16.4788 31.7368 15.9465 31.7368C15.4866 31.7368 15.0227 31.5649 14.6517 31.214C14.2636 30.8471 14.0334 30.3423 14.0028 29.7909C13.9722 29.2395 14.146 28.709 14.4904 28.2961L17.2072 25.3085C16.4088 25.0455 15.6496 24.6843 14.94 24.2296C14.4951 23.9453 14.1812 23.4927 14.0559 22.9568C13.9311 22.4209 14.0103 21.8657 14.2779 21.3924C14.8306 20.4157 16.0265 20.0993 16.9445 20.6879C18.9596 21.9793 21.6678 21.9793 23.6835 20.6879Z" fill="#FD2066"/>
</svg>
