<svg width="21" height="20" viewBox="0 0 21 20" fill="none" xmlns="http://www.w3.org/2000/svg">
<path d="M18.0915 16.7872L20.4989 0.120365C20.4996 0.11527 20.5 0.110127 20.5 0.104976C20.5 0.0263763 20.4189 -0.0242696 20.351 0.0118998L0.763361 10.442C0.381946 10.6451 0.423864 11.2189 0.830513 11.3613L6.09042 13.2024C6.25366 13.2595 6.43413 13.2239 6.56509 13.1086L12.7821 7.63648C13.236 7.23693 13.8567 7.8654 13.4744 8.33751L9.23226 13.5764C9.01379 13.8462 9.12598 14.2572 9.44914 14.371L17.4509 17.1877C17.7393 17.2892 18.0467 17.097 18.0915 16.7872Z" fill="white"/>
<path d="M10.6761 16.086L8.58054 15.3486C8.26396 15.2372 7.9347 15.4789 7.9347 15.8226V19.4979C7.9347 19.9823 8.53722 20.1848 8.81592 19.7941L10.9114 16.8562C11.1059 16.5836 10.9873 16.1955 10.6761 16.086Z" fill="white"/>
</svg>
