<svg width="343" height="293" viewBox="0 0 343 293" fill="none" xmlns="http://www.w3.org/2000/svg">
<mask id="path-1-inside-1_60_1766" fill="white">
<path fill-rule="evenodd" clip-rule="evenodd" d="M114.042 149.881C100.969 137.357 92.8286 119.724 92.8286 100.191C92.8286 67.9585 114.992 40.9029 144.91 33.4323C150.432 14.2008 168.153 0.129395 189.16 0.129395C205.405 0.129395 219.685 8.54444 227.878 21.2533C228.727 21.2187 229.581 21.2012 230.439 21.2012C264.522 21.2012 292.153 48.8315 292.153 82.9152C292.153 93.7019 289.385 103.842 284.522 112.665C292.298 122.99 296.907 135.835 296.907 149.756C296.907 183.84 269.277 211.47 235.193 211.47C225.633 211.47 216.581 209.297 208.503 205.416C198.266 215.489 184.221 221.704 168.725 221.704C137.401 221.704 112.008 196.311 112.008 164.987C112.008 159.756 112.716 154.691 114.042 149.881Z"/>
</mask>
<path fill-rule="evenodd" clip-rule="evenodd" d="M114.042 149.881C100.969 137.357 92.8286 119.724 92.8286 100.191C92.8286 67.9585 114.992 40.9029 144.91 33.4323C150.432 14.2008 168.153 0.129395 189.16 0.129395C205.405 0.129395 219.685 8.54444 227.878 21.2533C228.727 21.2187 229.581 21.2012 230.439 21.2012C264.522 21.2012 292.153 48.8315 292.153 82.9152C292.153 93.7019 289.385 103.842 284.522 112.665C292.298 122.99 296.907 135.835 296.907 149.756C296.907 183.84 269.277 211.47 235.193 211.47C225.633 211.47 216.581 209.297 208.503 205.416C198.266 215.489 184.221 221.704 168.725 221.704C137.401 221.704 112.008 196.311 112.008 164.987C112.008 159.756 112.716 154.691 114.042 149.881Z" fill="#96BE4B"/>
<path d="M114.042 149.881L123.682 152.538L125.267 146.787L120.96 142.66L114.042 149.881ZM144.91 33.4323L147.333 43.1344L152.929 41.7369L154.521 36.1924L144.91 33.4323ZM227.878 21.2533L219.473 26.6717L222.572 31.4782L228.286 31.245L227.878 21.2533ZM284.522 112.665L275.764 107.837L272.638 113.508L276.534 118.681L284.522 112.665ZM208.503 205.416L212.833 196.402L206.499 193.359L201.489 198.288L208.503 205.416ZM120.96 142.66C109.774 131.944 102.829 116.887 102.829 100.191H82.8286C82.8286 122.562 92.1637 142.77 107.124 157.102L120.96 142.66ZM102.829 100.191C102.829 72.6565 121.762 49.5196 147.333 43.1344L142.487 23.7302C108.222 32.2863 82.8286 63.2605 82.8286 100.191H102.829ZM154.521 36.1924C158.846 21.1329 172.731 10.1294 189.16 10.1294V-9.87061C163.575 -9.87061 142.019 7.26885 135.298 30.6722L154.521 36.1924ZM189.16 10.1294C201.866 10.1294 213.044 16.698 219.473 26.6717L236.283 15.8349C226.327 0.390924 208.945 -9.87061 189.16 -9.87061V10.1294ZM228.286 31.245C228.999 31.2159 229.717 31.2012 230.439 31.2012V11.2012C229.445 11.2012 228.455 11.2214 227.471 11.2616L228.286 31.245ZM230.439 31.2012C258.999 31.2012 282.153 54.3543 282.153 82.9152H302.153C302.153 43.3086 270.045 11.2012 230.439 11.2012V31.2012ZM282.153 82.9152C282.153 91.9712 279.833 100.456 275.764 107.837L293.279 117.493C298.937 107.229 302.153 95.4325 302.153 82.9152H282.153ZM276.534 118.681C283.049 127.332 286.907 138.079 286.907 149.756H306.907C306.907 133.591 301.547 118.648 292.51 106.649L276.534 118.681ZM286.907 149.756C286.907 178.317 263.754 201.47 235.193 201.47V221.47C274.8 221.47 306.907 189.363 306.907 149.756H286.907ZM235.193 201.47C227.164 201.47 219.589 199.648 212.833 196.402L204.173 214.43C213.573 218.946 224.102 221.47 235.193 221.47V201.47ZM201.489 198.288C193.047 206.596 181.492 211.704 168.725 211.704V231.704C186.95 231.704 203.485 224.383 215.517 212.544L201.489 198.288ZM168.725 211.704C142.924 211.704 122.008 190.788 122.008 164.987H102.008C102.008 201.834 131.878 231.704 168.725 231.704V211.704ZM122.008 164.987C122.008 160.663 122.593 156.491 123.682 152.538L104.401 147.224C102.839 152.891 102.008 158.85 102.008 164.987H122.008Z" fill="#333333" mask="url(#path-1-inside-1_60_1766)"/>
<path fill-rule="evenodd" clip-rule="evenodd" d="M221.733 29.8964C217.297 19.4436 206.939 12.1123 194.868 12.1123C178.757 12.1123 165.697 25.1727 165.697 41.2834C165.697 46.7408 167.195 51.8481 169.804 56.2164C147.68 64.3808 131.906 85.6555 131.906 110.615C131.906 120.679 134.47 130.144 138.982 138.392C136.49 144.054 135.107 150.313 135.107 156.896C135.107 182.289 155.693 202.875 181.086 202.875C191.415 202.875 200.948 199.469 208.625 193.719C216.486 198.563 225.744 201.357 235.655 201.357C264.152 201.357 287.254 178.255 287.254 149.758C287.254 135.942 281.824 123.394 272.982 114.132C279.027 105.415 282.569 94.8311 282.569 83.4196C282.569 53.6197 258.412 29.462 228.612 29.462C226.281 29.462 223.985 29.6097 221.733 29.8964Z" fill="#AFD755"/>
<path d="M267.991 105.079C274.813 109.288 284.715 113.663 287.952 127.944" stroke="#333333" stroke-width="10" stroke-linecap="round"/>
<path d="M151.01 31.6992C148.572 38.0993 145.796 42.5819 147.723 56.7523" stroke="#333333" stroke-width="10" stroke-linecap="round"/>
<path d="M134.306 118.41C132.883 133.648 139.791 163.759 178.801 162.297" stroke="#333333" stroke-width="10" stroke-linecap="round"/>
<path d="M171.634 193.919C179.488 198.123 198.862 202.344 213.523 185.588" stroke="#333333" stroke-width="10" stroke-linecap="round"/>
<path d="M231.526 49.2285C241.99 49.3301 262.552 55.6894 261.089 80.3146" stroke="#333333" stroke-width="10" stroke-linecap="round"/>
<path d="M188.397 287.482L191.729 205.369L211.96 197.753C213.468 226.473 216.958 287.482 216.958 287.482H188.397Z" fill="#985C51" stroke="#333333" stroke-width="10" stroke-linecap="round"/>
<path d="M201.728 220.505L207.825 217.552L211.446 281.22H201.728V220.505Z" fill="#AF6E5A"/>
<path d="M103.628 223.708C85.1831 226.282 78.8739 241.492 78.0249 248.775L80.974 290.331L179.367 291.001C191.914 258.4 170.028 246.854 157.517 245.156C154.192 229.284 139.599 229.695 132.717 231.885C125.961 222.984 110.51 222.725 103.628 223.708Z" fill="#AEDB81" stroke="#333333" stroke-width="3"/>
<path d="M135.291 255.231L140.594 269.916M147.874 290.078L140.594 269.916M140.594 269.916L151.939 260.845" stroke="#333333" stroke-width="3" stroke-linecap="round"/>
<path d="M168.395 274.59L161.619 290.465" stroke="#333333" stroke-width="3" stroke-linecap="round"/>
<path d="M120.771 243.615C120.285 244.632 119.031 247.731 117.363 251.97M117.363 251.97C113.183 262.59 106.401 280.364 102.573 290.465L117.363 251.97ZM117.363 251.97L107.219 243.615" stroke="#333333" stroke-width="3" stroke-linecap="round"/>
<path d="M55.6067 233.557C40.008 235.734 34.6725 248.596 33.9546 254.756L36.4486 289.898L119.656 290.465C130.267 262.895 111.759 253.131 101.178 251.695C98.3669 238.273 86.0255 238.621 80.2063 240.472C74.4928 232.945 61.426 232.726 55.6067 233.557Z" fill="#AEDB81" stroke="#333333" stroke-width="3"/>
<path d="M82.3822 260.215L86.8669 272.634M93.0237 289.684L86.8669 272.634M86.8669 272.634L96.4617 264.963" stroke="#333333" stroke-width="3" stroke-linecap="round"/>
<path d="M110.377 276.587L104.647 290.011" stroke="#333333" stroke-width="3" stroke-linecap="round"/>
<path d="M70.1035 250.392C69.6925 251.252 68.6322 253.872 67.2212 257.457M67.2212 257.457C63.6866 266.438 57.9516 281.47 54.7144 290.011L67.2212 257.457ZM67.2212 257.457L58.6435 250.392" stroke="#333333" stroke-width="3" stroke-linecap="round"/>
<path d="M275.781 234.093C260.182 236.27 254.847 249.133 254.129 255.292L256.623 290.434L339.831 291.001C350.441 263.431 331.933 253.667 321.353 252.231C318.541 238.809 306.2 239.157 300.381 241.009C294.667 233.481 281.6 233.262 275.781 234.093Z" fill="#AEDB81" stroke="#333333" stroke-width="3"/>
<path d="M302.557 260.751L307.041 273.171M313.198 290.22L307.041 273.171M307.041 273.171L316.636 265.499" stroke="#333333" stroke-width="3" stroke-linecap="round"/>
<path d="M330.552 277.123L324.822 290.548" stroke="#333333" stroke-width="3" stroke-linecap="round"/>
<path d="M290.278 250.929C289.867 251.788 288.806 254.409 287.396 257.994M287.396 257.994C283.861 266.975 278.126 282.006 274.889 290.548L287.396 257.994ZM287.396 257.994L278.818 250.929" stroke="#333333" stroke-width="3" stroke-linecap="round"/>
<path d="M17.9708 256.796C-1.16465 263.961 0.324131 281.925 3.46046 290.011H70.5708C72.4752 265.162 53.6042 262.2 43.9307 263.825C38.2173 253.214 24.2435 254.718 17.9708 256.796Z" fill="#95CC81" stroke="#333333" stroke-width="3"/>
<path d="M29.3582 288L26.9062 280.867M23.3302 270.464L26.9062 280.867M26.9062 280.867L16.2062 277.999" stroke="#333333" stroke-width="3" stroke-linecap="round"/>
<path d="M40.436 290.011L42.888 282.878L46.464 272.475" stroke="#333333" stroke-width="3" stroke-linecap="round"/>
<path d="M241.86 257.459C222.725 264.623 224.213 282.587 227.35 290.673H294.46C296.364 265.825 277.493 262.862 267.82 264.487C262.106 253.876 248.133 255.38 241.86 257.459Z" fill="#95CC81" stroke="#333333" stroke-width="3"/>
<path d="M253.247 288.662L250.795 281.529M247.219 271.126L250.795 281.529M250.795 281.529L240.095 278.661" stroke="#333333" stroke-width="3" stroke-linecap="round"/>
<path d="M264.325 290.673L266.777 283.54L270.353 273.137" stroke="#333333" stroke-width="3" stroke-linecap="round"/>
</svg>
