<svg width="41" height="40" viewBox="0 0 41 40" fill="none" xmlns="http://www.w3.org/2000/svg">
<path fill-rule="evenodd" clip-rule="evenodd" d="M20.5 40C31.5457 40 40.5 31.0457 40.5 20C40.5 8.9543 31.5457 0 20.5 0C9.4543 0 0.5 8.9543 0.5 20C0.5 31.0457 9.4543 40 20.5 40ZM22.8344 25.8679C22.9001 26.7359 22.9957 28 20.6288 28C13.8591 28 9.83333 16.7575 9.83333 14.757C9.83333 13.8662 10.3631 13.3343 11.2502 13.3343H13.4377C14.4537 13.3343 14.8146 14.0236 15.0528 14.7677C15.9026 17.5182 17.1044 19.6703 17.7799 20.4672C17.7161 19.3348 17.7455 18.5356 17.7681 17.9223C17.8069 16.8696 17.8254 16.365 17.3177 15.6644C16.3986 14.3991 17.2475 13.3333 18.1346 13.3333H21.5728C22.9232 13.3333 22.8919 14.662 22.8584 16.087C22.8568 16.1562 22.8551 16.2256 22.8536 16.295C22.8376 17.0645 22.8172 18.1 22.8474 19.4562C23.8376 18.4989 25.1585 15.7944 25.6287 14.4793C25.9096 13.7391 26.4652 13.3333 27.1976 13.3333H29.3851C29.9087 13.3333 30.2962 13.5123 30.5398 13.8662C30.7015 14.1028 30.858 14.5213 30.6873 15.1667L30.6855 15.1745C30.37 16.5884 28.226 20.122 27.6642 20.9385H27.666C27.6438 20.9776 27.6011 21.0529 27.5745 21.1096C27.6158 21.1813 27.8028 21.3951 28.0713 21.7022C28.9524 22.7097 30.7115 24.7212 31.0855 26.0132C31.2722 26.7132 31.1015 27.163 30.9273 27.4192C30.7469 27.6842 30.386 28 29.6927 28H27.5051C26.624 28 26.1894 27.4651 25.424 26.523C25.1571 26.1944 24.85 25.8164 24.4696 25.3942C23.5167 24.3754 23.0554 24.1182 22.8599 24.0576C22.8458 24.3252 22.8491 24.764 22.8527 25.2214L22.8527 25.2329C22.7972 25.3769 22.8144 25.6041 22.8344 25.8679Z" fill="#FD2066"/>
</svg>
